<?xml version="1.0" encoding="UTF-8" standalone="no"?>
<svg width="216px" height="36px" viewBox="0 0 216 36" version="1.1" xmlns="http://www.w3.org/2000/svg" xmlns:xlink="http://www.w3.org/1999/xlink">
    <!-- Generator: Sketch 39.1 (31720) - http://www.bohemiancoding.com/sketch -->
    <title>LOGO</title>
    <desc>Created with Sketch.</desc>
    <defs></defs>
    <g id="INDEX" stroke="none" stroke-width="1" fill="none" fill-rule="evenodd">
        <g id="SPRYKER-SHOP---INDEX---1440" transform="translate(-135.000000, -64.000000)">
            <g id="HEADER">
                <g id="LOGO" transform="translate(135.000000, 64.000000)">
                    <path d="M156.895525,14.7708282 L156.895525,22.2801328 L158.397969,22.2801328 C159.827682,22.2801328 160.706852,21.6511366 160.706852,19.6943867 L160.706852,17.2858588 C160.706852,15.5403012 160.113071,14.7708282 158.745208,14.7708282 L156.895525,14.7708282 Z M161.090266,35.7201916 C160.878085,35.0911954 160.741022,34.7088924 160.741022,32.7166415 L160.741022,28.8774836 C160.741022,26.6091463 159.969136,25.7689577 158.226926,25.7689577 L156.895525,25.7689577 L156.895525,35.7201916 L153.05919,35.7201916 L153.05919,11.2796175 L158.854782,11.2796175 C162.837343,11.2796175 164.547768,13.1312962 164.547768,16.8997385 L164.547768,18.8221327 C164.547768,21.3372588 163.741807,22.9765999 162.0268,23.7801424 C163.954083,24.582826 164.582034,26.4312599 164.582034,28.9825549 L164.582034,32.7521425 C164.582034,33.9405646 164.6163,34.8116733 165,35.7201916 L161.090266,35.7201916 Z M132.175872,21.580421 L137.446311,21.580421 L137.446311,25.0714408 L132.175872,25.0714408 L132.175872,32.2292673 L138.805106,32.2292673 L138.805106,35.7201916 L128.334765,35.7201916 L128.334765,11.2796175 L138.805106,11.2796175 L138.805106,14.7708282 L132.175872,14.7708282 L132.175872,21.580421 Z M107.031477,25.98015 L105.846301,28.2142271 L105.846301,35.7201916 L102.002808,35.7201916 L102.002808,11.2796175 L105.846301,11.2796175 L105.846301,21.9306587 L110.870007,11.2796175 L114.713405,11.2796175 L109.372049,22.1740118 L114.713405,35.7201916 L110.767401,35.7201916 L107.031477,25.98015 Z M79.8978535,27.6206363 L75.0452857,11.2796175 L79.0575307,11.2796175 L81.9919789,22.417174 L84.9240409,11.2796175 L88.5914329,11.2796175 L83.7389606,27.6206363 L83.7389606,35.7201916 L79.8978535,35.7201916 L79.8978535,27.6206363 Z M54.5820339,14.7708282 L54.5820339,22.2801328 L56.0824739,22.2801328 C57.5141914,22.2801328 58.3889707,21.6511366 58.3889707,19.6943867 L58.3889707,17.2858588 C58.3889707,15.5403012 57.7950943,14.7708282 56.4319084,14.7708282 L54.5820339,14.7708282 Z M58.7724801,35.7201916 C58.5623995,35.0911954 58.4231411,34.7088924 58.4231411,32.7166415 L58.4231411,28.8774836 C58.4231411,26.6091463 57.6534497,25.7689577 55.9089497,25.7689577 L54.5820339,25.7689577 L54.5820339,35.7201916 L50.7390179,35.7201916 L50.7390179,11.2796175 L56.5369964,11.2796175 C60.5171711,11.2796175 62.2297915,13.1312962 62.2297915,16.8997385 L62.2297915,18.8221327 C62.2297915,21.3372588 61.4261208,22.9765999 59.7110187,23.7801424 C61.6315245,24.582826 62.2642482,26.4312599 62.2642482,28.9825549 L62.2642482,32.7521425 C62.2642482,33.9405646 62.2983231,34.8116733 62.6774419,35.7201916 L58.7724801,35.7201916 Z M29.3692026,14.7708282 L29.3692026,23.0461703 L31.1846204,23.0461703 C32.4063527,23.0461703 33.0709559,22.4890348 33.0709559,20.742332 L33.0709559,17.0765751 C33.0709559,15.3313038 32.4063527,14.7708282 31.1846204,14.7708282 L29.3692026,14.7708282 Z M36.9141629,17.3221232 L36.9141629,20.4971657 C36.9141629,24.407898 35.0279228,26.5373809 31.1846204,26.5373809 L29.3692026,26.5373809 L29.3692026,35.7201916 L25.528191,35.7201916 L25.528191,11.2796175 L31.1846204,11.2796175 C35.0279228,11.2796175 36.9141629,13.4108182 36.9141629,17.3221232 L36.9141629,17.3221232 Z M5.76161296,11 C9.49744113,11 11.4203332,13.2340771 11.4203332,17.1486267 L11.4203332,17.911324 L7.79159747,17.911324 L7.79159747,16.8997385 C7.79159747,15.1565667 7.09062858,14.4909244 5.87118708,14.4909244 C4.64706862,14.4909244 3.94848594,15.1565667 3.94848594,16.8997385 C3.94848594,21.9306587 11.4545989,22.8716241 11.4545989,29.8548088 C11.4545989,33.7659229 9.49744113,36 5.72725174,36 C1.95477161,36 0,33.7659229 0,29.8548088 L0,28.3512683 L3.63341264,28.3512683 L3.63341264,30.1003569 C3.63341264,31.8433379 4.39833157,32.4748153 5.62225913,32.4748153 C6.84408683,32.4748153 7.61139196,31.8433379 7.61139196,30.1003569 C7.61139196,25.0714408 0.107474259,24.1284714 0.107474259,17.1486267 C0.107474259,13.2340771 2.02788465,11 5.76161296,11 L5.76161296,11 Z" fill="#393C44"></path>
                    <g id="NOTIFICATION" transform="translate(174.000000, 0.000000)">
                        <path d="M0,4.00281647 C0,1.79212198 1.79125179,0 4.00811116,0 L37.9918888,0 C40.2055075,0 42,1.79793835 42,4.00281647 L42,20.9971835 C42,23.207878 40.2087482,25 37.9918888,25 L0,25 L0,4.00281647 Z" id="ZUSATZ" fill="#E2694A"></path>
                        <path d="M5.122,14.26 L6.242,14.26 C6.5686683,15.2120048 7.29666102,15.688 8.426,15.688 C8.99533618,15.688 9.45499825,15.5550013 9.805,15.289 C10.1550017,15.0229987 10.33,14.656669 10.33,14.19 C10.33,13.8446649 10.2226677,13.5623344 10.008,13.343 C9.79333226,13.1236656 9.44333576,12.9533339 8.958,12.832 L7.418,12.426 C6.04599314,12.0713316 5.36,11.3340056 5.36,10.214 C5.36,9.49532974 5.62599734,8.90966893 6.158,8.457 C6.69000266,8.00433107 7.36666256,7.778 8.188,7.778 C9.05600434,7.778 9.75599734,7.98099797 10.288,8.387 C10.8200027,8.79300203 11.1699992,9.3459965 11.338,10.046 L10.232,10.046 C9.92399846,9.1593289 9.24267194,8.716 8.188,8.716 C7.66533072,8.716 7.23833499,8.84433205 6.907,9.101 C6.57566501,9.35766795 6.41,9.70066452 6.41,10.13 C6.41,10.4846684 6.52199888,10.7623323 6.746,10.963 C6.97000112,11.1636677 7.315331,11.3246661 7.782,11.446 L9.252,11.824 C10.6800071,12.1880018 11.394,12.9579941 11.394,14.134 C11.394,14.8993372 11.1163361,15.5059978 10.561,15.954 C10.0056639,16.4020022 9.29400434,16.626 8.426,16.626 C7.55799566,16.626 6.83000294,16.4183354 6.242,16.003 C5.65399706,15.5876646 5.28066746,15.0066704 5.122,14.26 L5.122,14.26 Z M19.0286667,7.904 L20.1346667,7.904 L20.1346667,16.5 L19.0286667,16.5 L19.0286667,12.58 L14.1706667,12.58 L14.1706667,16.5 L13.0646667,16.5 L13.0646667,7.904 L14.1706667,7.904 L14.1706667,11.586 L19.0286667,11.586 L19.0286667,7.904 Z M29.5613333,12.202 C29.5613333,13.4993398 29.197337,14.5609959 28.4693333,15.387 C27.7413297,16.2130041 26.8080057,16.626 25.6693333,16.626 C24.5399944,16.626 23.611337,16.2130041 22.8833333,15.387 C22.1553297,14.5609959 21.7913333,13.4993398 21.7913333,12.202 C21.7913333,10.9046602 22.1553297,9.84300413 22.8833333,9.017 C23.611337,8.19099587 24.5399944,7.778 25.6693333,7.778 C26.8080057,7.778 27.7413297,8.19099587 28.4693333,9.017 C29.197337,9.84300413 29.5613333,10.9046602 29.5613333,12.202 L29.5613333,12.202 Z M28.4553333,12.202 C28.4553333,11.193995 28.1986692,10.3703365 27.6853333,9.731 C27.1719974,9.09166347 26.5000042,8.772 25.6693333,8.772 C24.8479959,8.772 24.1806692,9.09166347 23.6673333,9.731 C23.1539974,10.3703365 22.8973333,11.193995 22.8973333,12.202 C22.8973333,13.210005 23.1539974,14.0336635 23.6673333,14.673 C24.1806692,15.3123365 24.8479959,15.632 25.6693333,15.632 C26.5000042,15.632 27.1719974,15.3123365 27.6853333,14.673 C28.1986692,14.0336635 28.4553333,13.210005 28.4553333,12.202 L28.4553333,12.202 Z M34.438,13.056 L32.324,13.056 L32.324,16.5 L31.218,16.5 L31.218,7.904 L34.438,7.904 C35.3246711,7.904 36.0176642,8.12566445 36.517,8.569 C37.0163358,9.01233555 37.266,9.64932918 37.266,10.48 C37.266,11.3106708 37.0140025,11.9476645 36.51,12.391 C36.0059975,12.8343356 35.3153377,13.056 34.438,13.056 L34.438,13.056 Z M36.174,10.48 C36.174,9.97599748 36.0223349,9.58166809 35.719,9.297 C35.4156652,9.01233191 34.9793362,8.87 34.41,8.87 L32.324,8.87 L32.324,12.076 L34.41,12.076 C34.9793362,12.076 35.4156652,11.9336681 35.719,11.649 C36.0223349,11.3643319 36.174,10.9746691 36.174,10.48 L36.174,10.48 Z" id="SHOP" fill="#FFFFFF"></path>
                    </g>
                </g>
            </g>
        </g>
    </g>
</svg>