<?xml version="1.0" encoding="UTF-8" standalone="no"?><svg width="47" height="42" viewBox="0 0 47 42" xmlns="http://www.w3.org/2000/svg" xmlns:xlink="http://www.w3.org/1999/xlink"><svg width="12" height="8" viewBox="-1 -1 12 8" id="arrowdown-dodgerblue" x="24"><title></title><desc>Created with Sketch.</desc><g fill="none" fill-rule="evenodd"><g fill="#3B94F5"><path d="M5 5.64L.442 1.084 1.16.36 5 4.2 8.84.36l.718.723L5 5.64z"/></g></g></svg><svg width="8" height="12" viewBox="-1 -1 8 12" id="arrowleft-dodgerblue" x="24" y="8"><title>Artboard 1</title><desc>Created with Sketch.</desc><g fill="none" fill-rule="evenodd"><g fill="#3B94F5"><path d="M4.92 9.558L.363 5 4.92.442l.717.718L1.797 5l3.84 3.84-.717.718z"/></g></g></svg><svg width="8" height="12" viewBox="-1 -1 8 12" id="arrowright-dodgerblue" x="15" y="10"><title>Artboard 1</title><desc>Created with Sketch.</desc><g fill="none" fill-rule="evenodd"><g fill="#3B94F5"><path d="M1.083 9.558L.36 8.84 4.2 5 .36 1.16l.723-.718L5.64 5 1.084 9.558z"/></g></g></svg><svg width="12" height="8" viewBox="-1 -1 12 8" id="arrowup-dodgerblue" y="24"><title>Artboard 1</title><desc>Created with Sketch.</desc><g fill="none" fill-rule="evenodd"><g fill="#3B94F5"><path d="M8.84 5.62L5 1.78 1.16 5.62l-.718-.717L5 .345l4.558 4.558-.718.717z"/></g></g></svg><svg width="11" height="11" viewBox="-1 -1 11 11" id="checkmark-white" x="36" y="12"><title>Artboard 1</title><desc>Created with Sketch.</desc><g fill="none" fill-rule="evenodd"><g stroke="#fff" stroke-width=".8" fill="#fff"><path d="M4.04 7.823l-2.968-3.78.615-.483 2.276 2.905 3.3-5.288.665.41L4.04 7.823z"/></g></g></svg><svg width="11" height="12" viewBox="-1 -1 11 12" id="outbound-dodgerblue" x="36"><title></title><desc>Created with Sketch.</desc><g fill="none" fill-rule="evenodd"><g transform="translate(-1 -1)" fill="#3B94F5"><path d="M2.016 2.016V9.53h4.671v1.017H1V1h5.688v1.016H2.016zM6.313 8.75l-.717-.717L7.348 6.28H3.234V5.267h4.114L5.596 3.514l.717-.718L9.29 5.773 6.313 8.75z"/></g></g></svg><svg width="15" height="14" viewBox="-1 -1 15 14" id="search-dodgerblue" y="10"><title>Artboard 1</title><desc>Created with Sketch.</desc><g fill="none" fill-rule="evenodd"><g fill="#3B94F5"><g transform="translate(2 .5)"><path d="M10.534 9.816l-.718.718L7.144 7.86c-.75.585-1.6.877-2.552.877-.55 0-1.078-.104-1.583-.314-.507-.21-.957-.51-1.35-.898-.39-.39-.69-.837-.9-1.343-.208-.505-.313-1.035-.313-1.59 0-.554.105-1.084.314-1.59.21-.506.51-.953.9-1.342.393-.39.843-.69 1.35-.9C3.513.553 4.04.448 4.59.448c.555 0 1.085.105 1.59.314.506.21.954.51 1.343.9.393.39.695.836.904 1.342.21.506.314 1.036.314 1.59 0 .948-.294 1.8-.883 2.552l2.674 2.672zM2.37 6.808c.614.613 1.355.92 2.222.92.868 0 1.608-.307 2.222-.92.61-.61.914-1.348.914-2.216 0-.863-.305-1.604-.914-2.22-.618-.61-1.358-.915-2.222-.915-.867 0-1.606.304-2.215.914-.614.614-.92 1.355-.92 2.222 0 .868.304 1.606.914 2.216z"/></g></g></g></svg><svg width="24" height="10" viewBox="-1 -1 24 10" id="switch-background"><title>Artboard 1</title><desc>Created with Sketch.</desc><g fill="none" fill-rule="evenodd"><g><g><path d="M3.57 7.315L.602 3.535l.615-.482 2.275 2.905L6.792.67l.665.41L3.57 7.315z" stroke="#fff" stroke-width=".2" fill="#fff"/><path d="M21.048 1.67l-2.73 2.728 2.73 2.73-.717.717-2.728-2.73-2.73 2.73-.717-.717 2.73-2.73-2.73-2.73.717-.716 2.73 2.73 2.73-2.73.716.717z" fill="#F5F6F8"/></g></g></g></svg><svg width="10" height="10" viewBox="-1 -1 10 10" id="x-dodgerblue" y="32"><title>Artboard 1</title><desc>Created with Sketch.</desc><g fill="none" fill-rule="evenodd"><g fill="#3B94F5"><path d="M7.447 1.27L4.717 4l2.73 2.73-.718.717L4 4.717l-2.73 2.73-.717-.718L3.283 4 .553 1.27 1.27.554 4 3.283 6.73.553l.717.718z"/></g></g></svg></svg>