<?xml version="1.0" encoding="UTF-8" standalone="no"?><svg width="306" height="156" viewBox="0 0 306 156" xmlns="http://www.w3.org/2000/svg" xmlns:xlink="http://www.w3.org/1999/xlink"><svg width="142" height="11" viewBox="-1 -1 142 11" id="commerce" x="164"><title>Artboard 1</title><path d="M4.064 2.484v.653h-.5V2.45c0-.844-.33-1.485-1.205-1.485-.877 0-1.207.64-1.207 1.486v4.1c0 .844.33 1.475 1.206 1.475.874 0 1.204-.63 1.204-1.475v-.935h.5v.9c0 1.138-.5 1.994-1.717 1.994S.63 7.652.63 6.515V2.484C.63 1.347 1.13.49 2.347.49s1.717.857 1.717 1.994zm4.228 0c0-1.148.534-1.993 1.74-1.993 1.228 0 1.762.846 1.762 1.994v4.032c0 1.148-.534 1.993-1.762 1.993-1.206 0-1.74-.846-1.74-1.994V2.484zm.523 4.066c0 .855.34 1.486 1.217 1.486.887 0 1.24-.63 1.24-1.486v-4.1c0-.855-.353-1.485-1.24-1.485-.876 0-1.217.63-1.217 1.486v4.1zm9.925 1.88h-.523l-1.683-6.97v6.98h-.466V.56h.75l1.672 6.97L20.15.56h.75v7.88h-.5V1.438L18.74 8.43zm9.152 0h-.523l-1.684-6.97v6.98h-.467V.56h.75l1.672 6.97 1.66-6.97h.75v7.88h-.5V1.438l-1.66 6.994zm9.174-4.222v.472h-2.17v3.288h2.613v.473h-3.14V.56h3.14v.472h-2.615v3.176h2.17zm6.366-3.65c1.217 0 1.706.666 1.706 1.78v.687c0 .924-.364 1.453-1.15 1.632.82.18 1.15.755 1.15 1.61v1.23c0 .325.022.685.193.944h-.545c-.136-.235-.17-.517-.17-.944v-1.24c0-1.046-.58-1.34-1.49-1.34h-.83v3.525h-.524V.56h1.662zm-.296 3.885c.932 0 1.478-.258 1.478-1.316v-.744c0-.845-.33-1.35-1.193-1.35h-1.125v3.41h.84zm9.834-1.96v.654h-.5V2.45c0-.844-.33-1.485-1.205-1.485-.876 0-1.205.64-1.205 1.486v4.1c0 .844.33 1.475 1.205 1.475s1.205-.63 1.205-1.475v-.935h.5v.9c0 1.138-.5 1.994-1.717 1.994-1.216 0-1.716-.857-1.716-1.994V2.484c0-1.137.5-1.993 1.716-1.993 1.217 0 1.717.857 1.717 1.994zm6.957 1.725v.472h-2.17v3.288h2.614v.473h-3.138V.56h3.14v.472h-2.616v3.176h2.17zm12.46.19v.474H70.33v3.57h-.524V.558h3.024v.472h-2.5v3.366h2.057zm6.31-3.84c1.216 0 1.705.666 1.705 1.78v.687c0 .924-.364 1.453-1.148 1.632.818.18 1.148.755 1.148 1.61v1.23c0 .325.023.685.193.944h-.546c-.137-.235-.17-.517-.17-.944v-1.24c0-1.046-.58-1.34-1.49-1.34h-.83v3.525h-.524V.56h1.66zM78.4 4.444c.933 0 1.48-.258 1.48-1.316v-.744c0-.845-.33-1.35-1.195-1.35H77.56v3.41h.84zm7.197 2.253L85.2 8.44h-.48L86.46.55h.762l1.775 7.893h-.524l-.398-1.744h-2.478zm.08-.45h2.32l-1.173-5.102-1.148 5.102zM95.873 8.43h-.523L93.67 1.46v6.98h-.466V.56h.75l1.673 6.97 1.66-6.97h.75v7.88h-.5V1.438l-1.66 6.994zm9.175-4.222v.472h-2.173v3.288h2.615v.473h-3.138V.56h3.138v.472h-2.615v3.176h2.172zm6.614 4.233h-.727L109.652.56h.512l1.193 7.183 1.16-7.15h.558l1.114 7.128 1.147-7.16h.467l-1.274 7.88h-.682l-1.07-6.45-1.114 6.45zm8.322-5.956c0-1.148.535-1.993 1.74-1.993 1.228 0 1.762.846 1.762 1.994v4.032c0 1.148-.534 1.993-1.762 1.993-1.205 0-1.74-.846-1.74-1.994V2.484zm.523 4.066c0 .855.34 1.486 1.216 1.486.887 0 1.24-.63 1.24-1.486v-4.1c0-.855-.353-1.485-1.24-1.485-.875 0-1.217.63-1.217 1.486v4.1zM129.42.56c1.216 0 1.706.664 1.706 1.778v.687c0 .924-.365 1.453-1.15 1.632.82.18 1.15.755 1.15 1.61v1.23c0 .325.022.685.193.944h-.545c-.137-.235-.17-.517-.17-.944v-1.24c0-1.046-.58-1.34-1.49-1.34h-.83v3.525h-.523V.56h1.66zm-.296 3.883c.933 0 1.478-.258 1.478-1.316v-.744c0-.845-.33-1.35-1.193-1.35h-1.125v3.41h.84zm7.503.294l-.546.855v2.85h-.524V.558h.524v4.165L138.676.56h.545l-2.273 3.67 2.423 4.21h-.546l-2.195-3.703z" fill="#B3C4D7" fill-rule="evenodd"/></svg><svg width="17" height="14" viewBox="-1 -1 17 14" id="mail" x="164" y="11"><title>Artboard 1</title><path d="M13.266 9.498v-5.01l1.406-1.186v8.323H.328V3.03l1.406 1.195v5.282l2.68-3.375 1.135.835-2.585 3.252h9.08L9.59 7.142l1.134-.835 2.54 3.19zM.328.375h14.344v1.46l-5.66 4.314c-.364.27-.806.404-1.327.404-.516 0-.956-.135-1.32-.405L.33 1.56V.375zm7.85 4.667l4.402-3.26H2.798L7.2 5.04c.13.094.293.14.49.14.195 0 .358-.046.487-.14z" fill="#FFF" fill-rule="evenodd"/></svg><svg width="15" height="17" viewBox="-1 -1 15 17" id="padlock" x="164" y="25"><title>Artboard 1</title><path d="M6.5 8.906c.352 0 .65.125.896.374.247.25.37.546.37.892 0 .45-.188.803-.563 1.055v1.054H5.797v-1.053c-.375-.252-.563-.604-.563-1.055 0-.346.123-.643.37-.892.246-.25.544-.374.896-.374zm4.64-2.803c.475.035.875.228 1.2.58.326.35.488.764.488 1.24v5.06c0 .505-.18.936-.536 1.293-.357.358-.788.537-1.292.537H2c-.504 0-.935-.18-1.292-.537-.357-.357-.536-.788-.536-1.292V7.922c0-.475.162-.888.488-1.24.325-.35.725-.544 1.2-.58V4.83c0-.838.207-1.613.623-2.325.416-.71.98-1.275 1.692-1.69C4.887.395 5.662.187 6.5.187c.838 0 1.613.208 2.325.624.712.416 1.276.98 1.692 1.69.416.713.624 1.488.624 2.326v1.275zm.282 6.88v-5.06c0-.118-.04-.218-.123-.3-.083-.082-.183-.123-.3-.123H4.39V6.094h5.344V4.828c0-.89-.316-1.652-.95-2.285-.632-.633-1.393-.95-2.284-.95-.89 0-1.652.317-2.285.95-.633.633-.95 1.394-.95 2.285V7.5H2c-.117 0-.217.04-.3.123-.08.082-.122.182-.122.3v5.06c0 .12.04.218.123.3.083.082.183.123.3.123h9c.117 0 .217-.04.3-.123.08-.082.122-.18.122-.3z" fill="#FFF" fill-rule="evenodd"/></svg><svg width="164" height="156" viewBox="-1 -1 164 156" id="spryker"><title>Artboard 1</title><g fill="none" fill-rule="evenodd"><path d="M5.627 129c3.65 0 5.525 2.16 5.525 5.944v.743H7.605v-.98c0-1.688-.682-2.33-1.875-2.33-1.194 0-1.876.642-1.876 2.33 0 4.864 7.333 5.776 7.333 12.53 0 3.784-1.91 5.945-5.594 5.945-3.683 0-5.593-2.16-5.593-5.944v-1.452h3.548v1.688c0 1.69.75 2.297 1.943 2.297 1.195 0 1.944-.607 1.944-2.296 0-4.863-7.332-5.775-7.332-12.53 0-3.783 1.876-5.944 5.525-5.944zm30.422 6.113v3.073c0 3.783-1.842 5.843-5.595 5.843h-1.772v8.88H24.93v-23.64h5.525c3.753 0 5.594 2.06 5.594 5.843zm-7.367-2.465v8.004h1.772c1.195 0 1.843-.54 1.843-2.23v-3.545c0-1.69-.648-2.23-1.843-2.23h-1.772zM57.4 152.91c-.206-.606-.342-.977-.342-2.903v-3.715c0-2.195-.75-3.006-2.456-3.006h-1.295v9.625h-3.752v-23.64h5.66c3.89 0 5.56 1.79 5.56 5.437v1.858c0 2.432-.784 4.02-2.456 4.796 1.875.778 2.49 2.568 2.49 5.033v3.648c0 1.15.033 1.993.408 2.87h-3.82zm-4.093-20.262v7.26h1.465c1.4 0 2.25-.607 2.25-2.5v-2.33c0-1.688-.578-2.43-1.908-2.43h-1.807zm24.726 12.428l-4.74-15.806h3.92l2.866 10.774 2.863-10.774h3.58l-4.74 15.806v7.835h-3.75v-7.834zm26.5-1.587l-1.16 2.16v7.26H99.62v-23.64h3.752v10.3l4.91-10.3h3.753l-5.218 10.537 5.218 13.104h-3.854l-3.648-9.42zm24.554-4.257h5.15v3.378h-5.15v6.924h6.48v3.377h-10.23v-23.64h10.23v3.378h-6.48v6.585zm28.24 13.678c-.205-.606-.342-.977-.342-2.903v-3.715c0-2.195-.75-3.006-2.455-3.006h-1.296v9.625h-3.75v-23.64h5.66c3.888 0 5.558 1.79 5.558 5.437v1.858c0 2.432-.784 4.02-2.455 4.796 1.876.778 2.49 2.568 2.49 5.033v3.648c0 1.15.034 1.993.41 2.87h-3.82zm-4.093-20.262v7.26h1.466c1.4 0 2.25-.607 2.25-2.5v-2.33c0-1.688-.58-2.43-1.91-2.43h-1.806zM85.377 108c-.266.193-.593.4-.926.626-.328.222-.66.46-.948.715-.283.253-.522.523-.667.815-.143.288-.197.598-.113.935.015.06.032.12.05.177.018.058.038.116.058.173.02.057.043.114.066.17l.072.166c-.218.32-.402.646-.582.953-.178.302-.352.587-.555.83-.2.238-.427.436-.713.57-.282.132-.62.2-1.044.185-.415-.016-.814-.093-1.202-.216-.382-.124-.756-.294-1.12-.496-.36-.2-.714-.436-1.06-.69-.344-.256-.68-.53-1.01-.813l-.027-.12c-.008-.04-.018-.08-.028-.12-.01-.04-.022-.082-.034-.123-.01-.04-.024-.083-.037-.124-.1-.303-.243-.578-.42-.83-.175-.255-.383-.485-.61-.697-.23-.21-.48-.403-.736-.58-.257-.18-.523-.34-.787-.495l.01.024.01.022.01.023c.005.007.008.015.01.023l.042.147c.013.05.028.098.044.148.014.05.03.1.046.148l.05.15c.282.807.685 1.562 1.172 2.242.485.675 1.058 1.282 1.687 1.796.632.517 1.327.944 2.053 1.254.737.315 1.512.51 2.295.556.804.045 1.558-.09 2.232-.376.697-.295 1.31-.752 1.804-1.337.51-.602.89-1.342 1.096-2.177.21-.86.236-1.816.024-2.812l-.207-.84M54.124 69.373c-.082.036-.164.074-.246.114-.082.04-.164.083-.245.127-.08.045-.162.09-.243.14-.08.048-.16.098-.24.15-.446.293-.86.578-1.248.882-.387.3-.748.62-1.088.985-.34.363-.657.77-.958 1.244-.3.473-.584 1.014-.856 1.648.755-.105 1.522-.105 2.296 0 .78.105 1.57.316 2.363.63.8.315 1.602.735 2.404 1.256.81.526 1.62 1.155 2.423 1.88L55.264 69c-.097.02-.192.044-.288.07-.096.026-.19.055-.286.086-.094.03-.19.065-.284.1-.094.037-.188.075-.282.117M57 69l3.16 9.18 7.022.1c-.742-1.46-1.534-2.77-2.362-3.91-.82-1.133-1.676-2.1-2.55-2.89-.865-.78-1.75-1.385-2.637-1.803-.878-.414-1.76-.643-2.633-.677M61 81c1.08 1.27 2.14 2.715 3.167 4.33 1.038 1.63 2.04 3.43 2.993 5.388.963 1.976 1.874 4.11 2.72 6.385.853 2.295 1.638 4.73 2.34 7.29.05-1.118.065-2.263.043-3.428-.023-1.166-.082-2.352-.18-3.55-.096-1.2-.23-2.41-.405-3.628-.173-1.216-.386-2.438-.637-3.658-.17-.82-.353-1.62-.55-2.404-.197-.782-.408-1.545-.63-2.29-.223-.74-.457-1.463-.703-2.165-.245-.698-.5-1.377-.766-2.035L61 81M45 13c.203 1.884.43 3.793.68 5.722.252 1.933.527 3.888.826 5.86.3 1.976.625 3.97.975 5.98.352 2.017.728 4.05 1.13 6.093.527 2.68 1.083 5.306 1.666 7.867.585 2.575 1.197 5.088 1.832 7.53.638 2.458 1.3 4.847 1.982 7.158.686 2.326 1.393 4.576 2.116 6.74.313-.05.628-.074.944-.073.317 0 .636.03.956.08.32.054.64.13.963.234.322.104.644.233.966.386-.733-1.724-1.458-3.502-2.17-5.33-.706-1.815-1.4-3.68-2.08-5.59-.675-1.9-1.337-3.843-1.982-5.83-.64-1.975-1.267-3.992-1.875-6.05-.794-2.688-1.534-5.363-2.22-8.013-.68-2.633-1.31-5.245-1.886-7.824-.573-2.567-1.095-5.104-1.567-7.6C45.787 17.85 45.37 15.4 45 13M107.2 52.654c-.416.068-.828.145-1.238.23-.41.085-.82.18-1.226.28-.407.102-.812.213-1.214.33-.405.12-.806.247-1.204.383L101 65.524c1.33-1.49 2.722-2.883 4.17-4.178 1.422-1.272 2.898-2.448 4.42-3.52 1.498-1.055 3.04-2.01 4.622-2.86 1.556-.838 3.15-1.574 4.776-2.203-.946-.288-1.86-.482-2.77-.603-.914-.122-1.822-.17-2.75-.16-.93.012-1.883.08-2.88.188-1.004.11-2.055.26-3.177.433l-.052.01c-.017 0-.035.004-.053.007l-.053.01-.053.007M97.09 70l-17.076 8.402c-.23.934-.422 1.88-.576 2.838-.155.962-.27 1.934-.343 2.914-.074.986-.105 1.98-.092 2.978.013 1.003.07 2.01.175 3.02.157 1.512.412 2.982.76 4.405.352 1.43.795 2.81 1.326 4.136.532 1.33 1.15 2.6 1.85 3.81.7 1.21 1.48 2.354 2.33 3.428.07-3.504.416-6.95 1.015-10.303.585-3.288 1.41-6.477 2.45-9.538 1.015-2.997 2.232-5.866 3.625-8.584 1.36-2.656 2.887-5.165 4.554-7.506" fill="#F5F6F8"/><path d="M92.53 0c.567 2.1 1.02 4.28 1.384 6.538.367 2.286.643 4.658.853 7.115.213 2.49.36 5.074.464 7.745.107 2.714.17 5.523.218 8.422.108 6.732-.404 12.178-1.297 16.71-.92 4.678-2.242 8.348-3.69 11.445-1.487 3.18-3.1 5.738-4.543 8.166-1.476 2.482-2.77 4.817-3.573 7.54-.03.068-.058.137-.087.205l-.088.206c-.03.07-.06.14-.087.208l-.083.21 16.15-7.692V66.8l.01-.005c.828-5.127 1.355-9.93 1.65-14.41.29-4.357.364-8.434.284-12.222-.078-3.705-.303-7.15-.62-10.323-.31-3.118-.71-5.984-1.144-8.58-.33-1.962-.705-3.882-1.12-5.76-.41-1.86-.862-3.68-1.352-5.456-.485-1.763-1.008-3.485-1.565-5.164C93.738 3.212 93.15 1.585 92.53 0" fill="#B3C4D7"/></g></svg></svg>