<?xml version="1.0"?>
<svg version="1.1" xmlns="http://www.w3.org/2000/svg" xmlns:xlink="http://www.w3.org/1999/xlink" width="411" height="141">
    <desc iVinci="yes" version="4.5" gridStep="20" showGrid="no" snapToGrid="no" codePlatform="0"/>
    <g id="Layer1" opacity="1">
        <g id="Shape1">
            <desc shapeID="1" type="0" basicInfo-basicType="0" basicInfo-roundedRectRadius="12" basicInfo-polygonSides="6" basicInfo-starPoints="5" bounding="rect(-18.4608,-21.9727,36.9216,43.9455)" text="" font-familyName="" font-pixelSize="20" font-bold="0" font-underline="0" font-alignment="1" strokeStyle="0" markerStart="0" markerEnd="0" shadowEnabled="0" shadowOffsetX="0" shadowOffsetY="2" shadowBlur="4" shadowOpacity="160" blurEnabled="0" blurRadius="4" transform="matrix(1,0,0,1,73.4051,84.5519)" pers-center="0,0" pers-size="0,0" pers-start="0,0" pers-end="0,0" locked="0" mesh="" flag=""/>
            <path id="shapePath1" d="M59.7752,87.6456 C59.0202,87.0349 58.3058,86.2784 57.6411,85.3635 C53.0152,78.9965 54.4877,70.0407 60.9299,65.3601 C67.3722,60.6795 76.3447,62.0466 80.9706,68.4136 C81.6354,69.3285 82.134,70.2417 82.4815,71.1485 L82.5613,71.0905 C82.5613,71.0905 96.1785,101.863 90.4661,106.013 C84.7538,110.163 59.709,87.6937 59.709,87.6937 L59.7752,87.6456 Z" style="stroke:none;fill-rule:evenodd;fill:#f8e81c;fill-opacity:1;"/>
        </g>
        <g id="Shape2">
            <desc shapeID="2" type="0" basicInfo-basicType="0" basicInfo-roundedRectRadius="12" basicInfo-polygonSides="6" basicInfo-starPoints="5" bounding="rect(-24.3995,-14.7145,48.7991,29.429)" text="" font-familyName="" font-pixelSize="20" font-bold="0" font-underline="0" font-alignment="1" strokeStyle="0" markerStart="0" markerEnd="0" shadowEnabled="0" shadowOffsetX="0" shadowOffsetY="2" shadowBlur="4" shadowOpacity="160" blurEnabled="0" blurRadius="4" transform="matrix(1,0,0,1,85.656,58.9497)" pers-center="0,0" pers-size="0,0" pers-start="0,0" pers-end="0,0" locked="0" mesh="" flag=""/>
            <path id="shapePath2" d="M82.5928,71.7698 C81.7695,72.2849 80.8217,72.714 79.7403,73.0447 C72.2141,75.3457 64.2256,71.0377 61.8974,63.4225 C59.5692,55.8074 63.783,47.7688 71.3092,45.4678 C72.3907,45.1372 73.4164,44.963 74.3869,44.9297 L74.3581,44.8354 C74.3581,44.8354 107.887,41.9785 109.952,48.7309 C112.016,55.4832 82.6167,71.848 82.6167,71.848 L82.5928,71.7698 Z" style="stroke:none;fill-rule:evenodd;fill:#bf0000;fill-opacity:1;"/>
        </g>
        <g id="Shape3">
            <desc shapeID="3" type="0" basicInfo-basicType="0" basicInfo-roundedRectRadius="12" basicInfo-polygonSides="6" basicInfo-starPoints="5" bounding="rect(-126.453,-38.6631,252.905,77.3262)" text="" font-familyName="" font-pixelSize="20" font-bold="0" font-underline="0" font-alignment="1" strokeStyle="0" markerStart="0" markerEnd="0" shadowEnabled="0" shadowOffsetX="0" shadowOffsetY="2" shadowBlur="4" shadowOpacity="160" blurEnabled="0" blurRadius="4" transform="matrix(1,0,0,1,240.718,65.1583)" pers-center="0,0" pers-size="0,0" pers-start="0,0" pers-end="0,0" locked="0" mesh="" flag=""/>
            <path id="shapePath3" d="M142.958,34.9249 L135.664,34.9249 L137.447,26.4952 L144.742,26.4952 L142.958,34.9249 M115.603,97.0128 C118.872,96.9047 120.885,96.6143 121.641,96.1415 C122.398,95.6686 123.046,94.1894 123.586,91.7037 L133.961,42.8277 L141.256,42.8277 L130.719,92.4737 C130.044,95.6349 129.031,97.999 127.68,99.566 C125.41,102.214 121.911,103.538 117.183,103.538 C116.832,103.538 116.46,103.524 116.069,103.497 C115.677,103.47 115.076,103.416 114.265,103.335 L115.603,97.0128 M177.841,63.6183 C178.706,59.5655 178.76,56.2693 178.003,53.7296 C176.787,49.7309 173.667,47.7316 168.641,47.7316 C164.183,47.7316 160.583,49.4337 157.841,52.838 C155.099,56.2423 153.214,60.3491 152.187,65.1583 C151.215,69.7784 151.411,73.6285 152.775,76.7086 C154.139,79.7887 157.024,81.3287 161.428,81.3287 C166.264,81.3287 169.972,79.4982 172.552,75.8373 C175.133,72.1763 176.896,68.1033 177.841,63.6183 M185.501,63.4156 C184.015,70.4134 181.083,76.1953 176.706,80.7613 C172.329,85.3274 166.561,87.6105 159.401,87.6105 C153.43,87.6105 149.121,85.5908 146.473,81.5516 C143.825,77.5124 143.217,72.0885 144.649,65.2799 C146.216,57.985 149.31,52.1761 153.93,47.8531 C158.55,43.5302 163.981,41.3688 170.222,41.3688 C175.815,41.3688 180.144,43.233 183.211,46.9615 C186.278,50.69 187.041,56.1748 185.501,63.4156 M205.881,42.6251 L199.762,71.44 C199.302,73.6555 199.275,75.4658 199.681,76.8707 C200.41,79.4645 202.544,80.7613 206.084,80.7613 C211.163,80.7613 215.108,78.4918 217.918,73.9527 C219.431,71.5211 220.633,68.1843 221.525,63.9425 L226.064,42.6251 L233.359,42.6251 L224.159,86.0299 L217.269,86.0299 L218.688,79.6266 C217.391,81.2747 215.918,82.6661 214.27,83.8009 C211.001,86.0704 207.381,87.2052 203.409,87.2052 C197.222,87.2052 193.453,85.1383 192.102,81.0045 C191.345,78.789 191.359,75.8305 192.142,72.129 L198.424,42.6251 L205.881,42.6251 M271.855,42.6251 L279.92,42.6251 C278.299,45.408 274.665,51.7573 269.018,61.673 C264.803,69.13 261.304,75.2091 258.521,79.9103 C251.929,90.9877 247.511,97.7423 245.269,100.174 C243.026,102.606 239.798,103.821 235.583,103.821 C234.556,103.821 233.773,103.781 233.232,103.7 C232.692,103.619 232.044,103.47 231.287,103.254 L232.705,96.6075 C233.894,96.9588 234.766,97.1749 235.319,97.256 C235.873,97.337 236.366,97.3775 236.799,97.3775 C238.15,97.3775 239.19,97.1546 239.919,96.7088 C240.649,96.263 241.297,95.7159 241.865,95.0675 C242.054,94.8513 242.777,93.7436 244.033,91.7442 C245.289,89.7449 246.215,88.2589 246.809,87.2862 L240.244,42.6251 L248.511,42.6251 L252.645,77.965 L271.855,42.6251 M311.653,63.6183 C312.517,59.5655 312.571,56.2693 311.815,53.7296 C310.599,49.7309 307.478,47.7316 302.453,47.7316 C297.995,47.7316 294.395,49.4337 291.652,52.838 C288.91,56.2423 287.026,60.3491 285.999,65.1583 C285.026,69.7784 285.222,73.6285 286.587,76.7086 C287.951,79.7887 290.835,81.3287 295.239,81.3287 C300.075,81.3287 303.784,79.4982 306.364,75.8373 C308.944,72.1763 310.707,68.1033 311.653,63.6183 M319.312,63.4156 C317.826,70.4134 314.895,76.1953 310.518,80.7613 C306.141,85.3274 300.373,87.6105 293.213,87.6105 C287.242,87.6105 282.932,85.5908 280.285,81.5516 C277.637,77.5124 277.029,72.0885 278.461,65.2799 C280.028,57.985 283.121,52.1761 287.742,47.8531 C292.362,43.5302 297.792,41.3688 304.034,41.3688 C309.626,41.3688 313.956,43.233 317.023,46.9615 C320.089,50.69 320.852,56.1748 319.312,63.4156 M339.693,42.6251 L333.573,71.44 C333.114,73.6555 333.087,75.4658 333.492,76.8707 C334.222,79.4645 336.356,80.7613 339.895,80.7613 C344.975,80.7613 348.919,78.4918 351.729,73.9527 C353.242,71.5211 354.445,68.1843 355.336,63.9425 L359.875,42.6251 L367.17,42.6251 L357.971,86.0299 L351.081,86.0299 L352.499,79.6266 C351.203,81.2747 349.73,82.6661 348.082,83.8009 C344.813,86.0704 341.192,87.2052 337.221,87.2052 C331.033,87.2052 327.264,85.1383 325.913,81.0045 C325.157,78.789 325.17,75.8305 325.954,72.129 L332.236,42.6251 L339.693,42.6251 Z" style="stroke:none;fill-rule:nonzero;fill:#000000;fill-opacity:1;"/>
        </g>
        <g id="Shape4">
            <desc shapeID="4" type="0" basicInfo-basicType="0" basicInfo-roundedRectRadius="12" basicInfo-polygonSides="6" basicInfo-starPoints="5" bounding="rect(-14.4184,-25.1225,28.8368,50.245)" text="" font-familyName="" font-pixelSize="20" font-bold="0" font-underline="0" font-alignment="1" strokeStyle="0" markerStart="0" markerEnd="0" shadowEnabled="0" shadowOffsetX="0" shadowOffsetY="2" shadowBlur="4" shadowOpacity="160" blurEnabled="0" blurRadius="4" transform="matrix(1,0,0,1,61.9019,40.0358)" pers-center="0,0" pers-size="0,0" pers-start="0,0" pers-end="0,0" locked="0" mesh="" flag=""/>
            <path id="shapePath4" d="M75.9871,48.053 C76.2226,48.9951 76.3379,50.0291 76.3182,51.1599 C76.1808,59.0287 69.6151,65.295 61.6532,65.156 C53.6914,65.0171 47.3483,58.5254 47.4857,50.6566 C47.5054,49.5259 47.6567,48.4965 47.9249,47.5631 L47.8263,47.5614 C47.8263,47.5614 55.4704,14.7905 62.5302,14.9137 C69.59,15.0369 76.069,48.0544 76.069,48.0544 L75.9871,48.053 Z" style="stroke:none;fill-rule:evenodd;fill:#f6a623;fill-opacity:1;"/>
        </g>
        <g id="Shape5">
            <desc shapeID="5" type="0" basicInfo-basicType="0" basicInfo-roundedRectRadius="12" basicInfo-polygonSides="6" basicInfo-starPoints="5" bounding="rect(-24.2206,-14.986,48.4411,29.9721)" text="" font-familyName="" font-pixelSize="20" font-bold="0" font-underline="0" font-alignment="1" strokeStyle="0" markerStart="0" markerEnd="0" shadowEnabled="0" shadowOffsetX="0" shadowOffsetY="2" shadowBlur="4" shadowOpacity="160" blurEnabled="0" blurRadius="4" transform="matrix(1,0,0,1,39.3712,59.1066)" pers-center="0,0" pers-size="0,0" pers-start="0,0" pers-end="0,0" locked="0" mesh="" flag=""/>
            <path id="shapePath5" d="M50.957,45.4098 C51.9258,45.477 52.9448,45.6869 54.0141,46.0551 C61.4554,48.6173 65.3861,56.7981 62.7935,64.3273 C60.201,71.8566 52.067,75.8831 44.6257,73.3209 C43.5564,72.9527 42.6242,72.4908 41.8194,71.9472 L41.7873,72.0405 C41.7873,72.0405 12.9824,54.6437 15.2812,47.9675 C17.58,41.2913 50.9836,45.3325 50.9836,45.3325 L50.957,45.4098 Z" style="stroke:none;fill-rule:evenodd;fill:#f8e81c;fill-opacity:1;"/>
        </g>
        <g id="Shape6">
            <desc shapeID="6" type="0" basicInfo-basicType="0" basicInfo-roundedRectRadius="12" basicInfo-polygonSides="6" basicInfo-starPoints="5" bounding="rect(-18.4603,-21.9728,36.9205,43.9457)" text="" font-familyName="" font-pixelSize="20" font-bold="0" font-underline="0" font-alignment="1" strokeStyle="0" markerStart="0" markerEnd="0" shadowEnabled="0" shadowOffsetX="0" shadowOffsetY="2" shadowBlur="4" shadowOpacity="160" blurEnabled="0" blurRadius="4" transform="matrix(1,0,0,1,50.5294,84.9968)" pers-center="0,0" pers-size="0,0" pers-start="0,0" pers-end="0,0" locked="0" mesh="" flag=""/>
            <path id="shapePath6" d="M41.4525,71.5932 C41.7999,70.6864 42.2986,69.7732 42.9633,68.8583 C47.5892,62.4913 56.5618,61.1242 63.004,65.8048 C69.4463,70.4854 70.9188,79.4412 66.2929,85.8082 C65.6281,86.7231 64.9138,87.4796 64.1587,88.0903 L64.2385,88.1482 C64.2385,88.1482 39.1802,110.608 33.4678,106.458 C27.7554,102.308 41.3863,71.5451 41.3863,71.5451 L41.4525,71.5932 Z" style="stroke:none;fill-rule:evenodd;fill:#f6a623;fill-opacity:1;"/>
        </g>
        <g id="Shape7">
            <desc shapeID="7" type="0" basicInfo-basicType="0" basicInfo-roundedRectRadius="12" basicInfo-polygonSides="6" basicInfo-starPoints="5" bounding="rect(-17.9764,-20.9095,35.9528,41.819)" text="" font-familyName="" font-pixelSize="20" font-bold="0" font-underline="0" font-alignment="1" strokeStyle="0" markerStart="0" markerEnd="0" shadowEnabled="0" shadowOffsetX="0" shadowOffsetY="2" shadowBlur="4" shadowOpacity="160" blurEnabled="0" blurRadius="4" transform="matrix(1,0,0,1,73.3319,85.685)" pers-center="0,0" pers-size="0,0" pers-start="0,0" pers-end="0,0" locked="0" mesh="" flag=""/>
            <path id="shapePath7" d="M62.3499,64.7755 C62.0076,64.9837 61.6711,65.2075 61.3411,65.4472 C54.8989,70.1278 53.4264,79.0836 58.0523,85.4506 C58.717,86.3656 59.4314,87.122 60.1864,87.7327 L60.1202,87.7808 C60.1202,87.7808 80.3766,105.955 88.6098,106.594 L91.3083,104.634 C91.3083,104.634 79.2896,86.458 69.9317,73.8864 C68.9464,72.5628 65.5425,65.3411 63.0112,65.187 C62.684,65.1671 62.434,64.8838 62.3499,64.7755 Z" style="stroke:none;fill-rule:evenodd;fill:#f8e81c;fill-opacity:1;"/>
        </g>
        <g id="Shape8">
            <desc shapeID="8" type="0" basicInfo-basicType="0" basicInfo-roundedRectRadius="12" basicInfo-polygonSides="6" basicInfo-starPoints="5" bounding="rect(-23.6992,-12.0927,47.3984,24.1855)" text="" font-familyName="" font-pixelSize="20" font-bold="0" font-underline="0" font-alignment="1" strokeStyle="0" markerStart="0" markerEnd="0" shadowEnabled="0" shadowOffsetX="0" shadowOffsetY="2" shadowBlur="4" shadowOpacity="160" blurEnabled="0" blurRadius="4" transform="matrix(1,0,0,1,86.007,62.1227)" pers-center="0,0" pers-size="0,0" pers-start="0,0" pers-end="0,0" locked="0" mesh="" flag=""/>
            <path id="shapePath8" d="M62.3078,65.2397 C65.0918,72.0574 72.6015,75.7662 79.6999,73.596 C80.7814,73.2653 81.7292,72.8362 82.5525,72.3211 L82.5764,72.3993 C82.5764,72.3993 106.688,58.9781 109.706,51.4293 L109.251,50.03 C109.251,50.03 80.2328,59.7283 64.8772,65.2375 C64.6263,65.3275 63.4108,65.1234 62.5296,65.2108 C62.4531,65.2184 62.3791,65.2282 62.3078,65.2397 Z" style="stroke:none;fill:none;"/>
        </g>
        <g id="Shape9">
            <desc shapeID="9" type="0" basicInfo-basicType="0" basicInfo-roundedRectRadius="12" basicInfo-polygonSides="6" basicInfo-starPoints="5" bounding="rect(-23.6992,-12.0927,47.3984,24.1855)" text="" font-familyName="" font-pixelSize="20" font-bold="0" font-underline="0" font-alignment="1" strokeStyle="0" markerStart="0" markerEnd="0" shadowEnabled="0" shadowOffsetX="0" shadowOffsetY="2" shadowBlur="4" shadowOpacity="160" blurEnabled="0" blurRadius="4" transform="matrix(1,0,0,1,86.007,62.1227)" pers-center="0,0" pers-size="0,0" pers-start="0,0" pers-end="0,0" locked="0" mesh="" flag=""/>
            <path id="shapePath9" d="M62.3078,65.2397 C65.0918,72.0574 72.6015,75.7662 79.6999,73.596 C80.7814,73.2653 81.7292,72.8362 82.5525,72.3211 L82.5764,72.3993 C82.5764,72.3993 106.688,58.9781 109.706,51.4293 L109.251,50.03 C109.251,50.03 80.2328,59.7283 64.8772,65.2375 C64.6263,65.3275 63.4108,65.1234 62.5296,65.2108 C62.4531,65.2184 62.3791,65.2282 62.3078,65.2397 Z" style="stroke:none;fill-rule:evenodd;fill:#bf0000;fill-opacity:1;"/>
        </g>
    </g>
</svg>
