<?xml version="1.0" encoding="UTF-8" standalone="no"?>
<svg width="71px" height="59px" viewBox="0 0 71 59" version="1.1" xmlns="http://www.w3.org/2000/svg" xmlns:xlink="http://www.w3.org/1999/xlink">
    <defs></defs>
    <g id="Page-1" stroke="none" stroke-width="1" fill="none" fill-rule="evenodd">
        <g id="Futterung" transform="translate(-7.000000, -447.000000)" fill="#CCCCCC">
            <g id="Group" transform="translate(5.000000, 404.000000)">
                <path d="M28.0063332,90.796724 C28.0681633,83.5356083 30.1454187,77.7166707 34.9372555,73.0325814 C43.9941838,64.1762206 51.2723063,53.7485313 59.8940454,44.509503 C60.9094868,43.4212923 61.259065,42.0424935 63.0093339,44.6003865 C64.9997892,47.5062678 68.9046012,48.9077875 71.657232,51.4608972 C73.1423447,52.8385002 73.3064324,53.8573524 72.5846843,55.5303269 C71.8902841,57.1423137 71.7285745,59.0963096 69.2244533,58.896605 C68.0508694,58.8033298 66.832102,58.8093089 65.6763538,59.0173844 C62.4837776,59.5901898 60.39701,61.1280348 61.9415747,64.741851 C63.7941012,69.0791478 63.3303751,73.3159945 61.0997334,77.1653904 C58.0641107,82.4055434 59.3340069,87.9948805 59.0712288,93.4730048 C59.0224781,94.4894654 59.3803796,95.395909 59.9796564,96.2401691 C60.684758,97.2339088 62.9748517,97.407305 61.892824,99.3146633 C60.8155525,101.214847 58.7204616,100.901538 57.0569927,100.636062 C49.2081304,99.3792384 41.5447586,101.254309 33.7945867,101.688398 C26.306004,102.108136 18.7710486,102.06389 11.2729536,101.792435 C8.16717743,101.680027 5.09945061,100.482995 3.07094599,97.6536472 C1.91519775,96.0428562 1.56443053,94.3615109 2.67261712,92.6837531 C3.34323647,91.6672926 4.85569713,90.7213864 5.27780682,92.5043777 C6.40026191,97.2518463 9.97927652,96.8488496 13.5226199,97.501776 C17.7235032,98.2766777 21.740085,97.2494547 25.7649901,96.9289706 C30.0455392,96.5881574 27.2429686,92.4673068 28.0063332,90.796724" id="Fill-4"></path>
            </g>
        </g>
    </g>
</svg>