<?xml version="1.0" encoding="UTF-8" standalone="no"?>
<svg width="55px" height="71px" viewBox="0 0 55 71" version="1.1" xmlns="http://www.w3.org/2000/svg" xmlns:xlink="http://www.w3.org/1999/xlink">
    <defs></defs>
    <g id="WHYPAGE" stroke="none" stroke-width="1" fill="none" fill-rule="evenodd">
        <g transform="translate(-358.000000, -2964.000000)" id="Page-1" fill="#CCCCCC">
            <g transform="translate(358.000000, 2964.000000)">
                <g id="Group-5">
                    <path d="M53.73,17.9046 C53.189,17.1186 52.374,16.5946 51.533,16.1206 C52.773,11.4146 50.742,6.9586 49.962,2.4356 C49.606,0.3716 48.582,-0.3774 46.677,1.7826 C43.736,5.1156 40.001,5.1436 36.732,2.3616 C35.646,1.4376 34.82,-0.3754 33.058,0.5126 C31.62,1.2376 31.704,3.0786 31.326,4.4626 C31.03,5.5476 30.868,6.9516 31.315,7.8996 C32.446,10.2986 31.173,12.0376 30.215,13.9426 C27.333,19.6756 22.79,22.3986 16.285,22.3706 L14.681,22.3026 C11.417,22.1826 9.168,22.7406 7.604,23.5066 C8.339,20.8706 10.176,18.6256 12.359,16.9586 C13.126,16.3736 13.964,15.8366 14.909,15.6426 C17.271,15.1586 19.465,16.8806 21.245,18.5076 C22.423,18.4736 22.961,16.9486 22.749,15.7896 C22.562,14.7696 22.039,13.8136 21.28,13.1066 C19.887,11.8086 17.848,11.4376 15.946,11.5396 C11.523,11.7756 7.305,14.3946 5.1,18.2366 C3.747,20.5956 3.196,23.3656 3.409,26.0746 C0.361,30.7106 -0.748,36.6116 0.509,42.0246 C1.166,44.8566 2.429,47.6806 2.581,50.5166 C2.334,51.4996 2.068,52.4766 1.751,53.4356 C0.357,57.6546 2.485,60.8816 3.432,64.4646 C3.819,65.9296 5.337,66.1386 6.752,66.1016 C7.974,66.0706 9.248,65.8876 9.7,64.6626 C10.246,63.1826 8.915,62.7906 7.895,62.2096 C4.919,60.5136 4.758,57.8506 5.702,54.9746 C6.114,53.7216 6.898,52.5966 7.404,51.3676 C8.157,49.5356 8.304,47.0216 9.636,45.9666 C11.394,44.5736 13.595,47.3156 15.584,46.9806 C22.168,45.8736 24.248,50.2876 26.103,55.0816 C26.878,57.0846 27.523,59.1426 28.132,61.2036 C28.884,63.7436 29.348,66.3856 30.293,68.8466 C31.031,70.7716 32.809,71.4786 34.782,70.6706 C36.009,70.1686 36.551,68.9316 35.691,67.7956 C31.499,62.2566 32.604,55.9916 33.057,49.8036 C33.115,49.0076 32.914,47.9236 33.885,47.6906 C35.224,47.3686 35.43,48.7236 35.767,49.5376 C37.859,54.5916 38.615,60.0686 40.895,65.1006 C42.621,68.9086 43.833,69.7876 47.42,68.2266 C48.006,67.9726 48.796,67.9716 48.783,67.0816 C48.773,66.3406 48.267,65.8566 47.643,65.5976 C46.292,65.0386 44.575,64.9276 44.206,63.1206 C42.927,56.8596 40.585,50.6826 43.457,44.1786 C44.44,41.9536 45.013,39.4776 45.126,36.9546 C45.328,32.4476 45.735,27.9976 47.667,24.0246 C49.346,24.3206 51.164,24.1836 52.881,24.0186 C53.385,23.9696 53.955,23.8846 54.242,23.4676 C54.42,23.2106 54.446,22.8816 54.467,22.5686 C54.572,20.9666 54.641,19.2266 53.73,17.9046" id="Fill-3"></path>
                </g>
            </g>
        </g>
    </g>
</svg>