<?xml version="1.0" encoding="UTF-8" standalone="no"?>
<svg width="154px" height="105px" viewBox="0 0 154 105" version="1.1" xmlns="http://www.w3.org/2000/svg" xmlns:xlink="http://www.w3.org/1999/xlink">
    <defs></defs>
    <g id="Page-1" stroke="none" stroke-width="1" fill="none" fill-rule="evenodd">
        <g id="Futterung" transform="translate(-358.000000, -404.000000)" fill="#CCCCCC">
            <g id="Group" transform="translate(5.000000, 404.000000)">
                <g transform="translate(353.000000, 0.000000)">
                    <path d="M72.4124763,71.6596191 C72.4055033,70.0701275 71.9182646,68.6965995 70.0651888,68.6248996 C62.4009854,68.3285976 55.59359,64.7893873 48.3120303,63.0444019 C41.536885,61.4203562 41.5673919,61.2994166 39.4249363,67.6366505 C37.9545041,71.9878837 36.5590316,76.3658964 34.9744164,80.6756647 C34.0016823,83.3233776 33.8221274,86.0134193 34.0600812,88.739743 C34.2640415,91.0790599 34.7225166,93.3864143 37.7575167,93.7621909 C39.3639225,93.9608773 39.8546477,95.2195128 40.0786555,96.5014723 C40.2983051,97.7601078 40.144899,98.5090693 38.2578297,98.4062707 C34.940423,98.2248613 32.8807718,96.704478 31.6526514,93.8494401 C30.5186666,91.2138212 29.507581,88.5255071 28.4232788,85.8682918 C27.6074373,83.8710611 27.685012,81.9170231 28.7815169,80.0683752 C31.1854602,76.0186271 29.6888791,71.7088588 29.6853926,67.5018892 C29.684521,66.8203083 29.2295325,66.3106344 28.7658277,67.1986764 C24.5000923,75.3785112 15.853567,79.4455364 10.399806,86.4928584 C9.34688239,87.8534286 8.45085134,89.3427131 7.58184068,90.8302699 C6.08002988,93.3985083 4.4012791,95.8406239 7.28810287,98.7846388 C8.60251418,100.12534 7.82676745,101.478136 5.70087277,101.449629 C4.53986756,101.434079 3.37886235,101.395206 2.21698551,101.388295 C0.106780094,101.376201 -0.458904878,100.006992 0.357808248,98.5298018 C3.65255277,92.5674806 3.68741779,85.3266553 8.8317517,79.9595296 C13.6187191,74.964725 15.585978,68.2378929 15.6530931,61.3521117 C15.697546,56.8099667 16.9831937,52.899299 19.4542521,49.2832057 C20.7582039,47.374088 21.6446471,46.3711534 18.2017262,45.959095 C13.1863929,45.3587164 8.28088436,43.9964184 3.79898586,41.5085185 C2.91690082,41.0187132 2.04266041,40.5004007 1.23292028,39.9052053 C0.659390683,39.4836444 0.0318202976,38.8711719 0.493781831,38.1092525 C0.906932334,37.4268078 1.76374023,37.4665451 2.46539879,37.638452 C3.58718085,37.9122938 4.70721967,38.2336475 5.78280558,38.6508891 C13.7250574,41.7288013 21.6411606,43.3908567 30.12905,40.2801179 C34.7652262,38.5817807 39.8651072,39.0784969 44.7845617,39.2201689 C50.417006,39.3817097 56.0433488,39.4076253 61.6879957,39.8032705 C67.1975407,40.1885494 72.5083551,37.650546 76.5422381,33.7174181 C80.7940275,29.5709183 85.6977927,26.239033 90.0785827,22.265304 C93.1336302,19.4940599 100.744664,19.1329689 103.97055,21.9206262 C106.838198,24.3990237 109.881915,24.5536535 113.242903,24.5666114 C116.813081,24.5795692 117.548733,25.6179218 116.652702,29.0189155 C115.378385,33.8556348 112.20131,36.4376948 106.915773,36.6000994 C104.768088,36.6666161 103.098925,36.7676871 102.255191,39.2426291 C101.683405,40.9185061 99.7858762,41.3011935 98.1620379,40.9401025 C94.8908272,40.2110096 93.4334693,42.1935548 92.0048751,44.4914068 C90.0445893,47.6462021 89.7055269,51.2622955 89.0579092,54.7539939 C88.4957107,57.7861218 87.7931805,60.75778 85.6402654,62.9804767 C82.6279276,66.0912154 81.7257952,69.9474603 81.3048,73.9160061 C80.5212087,81.3123252 80.0348416,88.7406068 79.4255754,96.1550668 C79.284372,97.8801835 79.7358741,99.2329791 81.5122469,99.9940345 C82.7447254,100.521849 83.1526462,101.654362 82.7464687,102.878443 C82.2505137,104.373775 80.8454534,103.952214 79.7655093,103.924571 C76.2607031,103.835594 73.5307719,101.170604 73.3686495,97.0215125 C73.1507431,91.4375594 71.6698514,85.9253062 72.4159628,81.2967758 C72.4159628,77.4154792 72.4246791,74.5379811 72.4124763,71.6596191 Z" id="Fill-14"></path>
                    <path d="M59.5137642,36.9139942 C55.8418569,37.4718724 52.3133289,36.2151042 48.6999973,36.1181586 C42.1605052,35.9418937 35.6594808,36.682206 29.3306863,38.1249335 C26.0740542,38.8678897 25.9088184,37.7415576 25.9402918,35.246529 C25.967394,33.1692481 26.046952,31.1598292 27.0960684,29.2984727 C27.3653416,28.820795 27.744772,28.2514597 27.1939859,27.7209026 C26.6641821,27.2106159 26.1300071,27.5931106 25.61594,27.8196109 C23.8132084,28.6110399 21.2988262,30.3587056 20.2593267,28.1606833 C19.0519686,25.6066061 22.3619308,24.8222276 23.9906839,23.6253895 C27.2700468,21.2149681 31.2680545,20.7663741 35.116563,20.3380506 C38.7150322,19.9370481 42.2619198,19.3659501 45.8158015,18.712889 C50.609389,17.8333275 55.3662575,18.7322781 60.0654246,19.5289951 C67.4608208,20.7813566 74.8037611,22.3413003 82.1842948,23.6835569 C83.5157983,23.925921 84.9801899,24.081034 83.1188826,25.4558996 C78.3794994,28.9574003 75.0048417,34.1748389 68.9628057,36.111108 C65.7507611,37.1404945 62.6523707,36.7015951 59.5137642,36.9139942" id="Fill-16"></path>
                    <path d="M100.744123,104.273153 C96.3376166,104.311031 95.6358494,103.140261 95.5008942,96.8809465 C95.2692936,86.1658193 95.3398185,75.4412226 94.6006121,64.7390083 C94.5309578,63.7343844 94.400356,62.7857165 94.0285761,61.8198313 C91.8562321,56.1768925 93.3842736,51.0031225 96.1956959,46.0058289 C96.8826616,44.7851291 97.5426363,44.0241287 99.2622272,44.5217059 C101.311805,45.1148386 103.763637,44.4674717 104.732703,42.8714369 C107.597237,38.1522011 113.409889,40.6177048 116.91176,37.5323817 C117.728457,36.8127026 118.301364,38.4147635 117.829456,39.1017299 C114.419006,44.0706152 114.273603,50.3669468 110.390375,55.3211974 C106.938133,59.7270801 106.979925,65.7901186 105.944688,71.2230075 C104.747505,77.5029829 104.131064,83.8802354 102.725788,90.1395501 C102.12589,92.8099385 101.27959,95.8892356 105.554624,96.970476 C106.903306,97.3113767 108.023869,99.5108745 107.355188,100.441464 C106.335623,101.859301 105.262946,103.65936 103.339617,104.233554 C102.542945,104.471151 101.61306,104.273153 100.744123,104.273153" id="Fill-18"></path>
                    <path d="M138.91925,27.0365765 C138.530573,26.983385 138.078725,26.9842429 137.668991,26.8564118 C131.921311,25.063344 127.080836,26.8229526 122.719407,30.4785803 C122.28072,30.8457731 121.778861,31.4283057 121.243663,31.0962879 C120.646171,30.7256633 121.198917,30.0770704 121.299815,29.5563086 C121.462129,28.7198296 121.659538,27.8893561 121.820975,27.0528771 C122.430751,23.9008527 121.093632,22.0442983 117.83945,21.9876751 C115.338932,21.9439208 112.917379,21.5938865 110.489683,21.1125894 C109.396475,20.8963917 108.547176,20.3945043 108.303266,19.2946417 C108.037422,18.0969754 108.899881,17.4689727 109.801822,16.9447792 C113.299037,14.9132076 116.283865,12.0503047 120.247843,10.7822883 C121.758682,10.2984174 122.672906,9.32810177 123.141424,7.83959812 C123.663462,6.17865112 124.803171,4.84714815 125.863917,3.49591286 C126.555288,2.61482165 127.477409,1.0628314 128.100345,1.15033997 C129.439218,1.33651017 129.174251,2.91080653 129.25497,4.03125941 C129.281291,4.40102602 129.258479,4.86001706 129.754196,4.92607745 C129.858603,4.93980429 130.051626,4.49711387 130.16042,4.24659913 C130.274479,3.98578927 130.248158,3.6014379 130.435038,3.44701101 C131.439632,2.61653751 130.215695,0.411664678 131.801988,0.462282381 C133.015397,0.501747031 132.55653,2.36001728 132.795176,3.43156832 C133.35845,5.95987969 134.549925,7.88249448 137.439119,8.4830435 C139.446552,8.89999611 141.057412,9.8848965 142.213791,11.8178064 C143.536872,14.0286847 146.322536,13.6640657 148.514218,14.1882592 C151.072642,14.7999613 153.996054,14.7347588 153.783729,18.4736054 C153.486299,23.7352727 151.716635,25.9804682 147.638598,26.2387042 C146.181279,26.3313604 144.708167,26.3871256 143.255235,26.2807427 C141.737377,26.170928 140.420438,26.924188 138.91925,27.0365765" id="Fill-20"></path>
                    <path d="M50.8290812,95.2381735 C47.9310534,95.7434514 46.5512922,94.5328362 45.7846602,91.8320358 C44.9748003,88.9841833 43.8111782,86.169674 42.3687808,83.5663383 C40.5302755,80.247406 40.6740741,77.0678312 42.0273693,73.7394944 C42.884868,71.6311773 43.7900054,69.5348295 44.5072342,67.3811998 C45.158298,65.4233546 46.4921848,64.987328 48.2504098,65.621704 C50.0518627,66.2723242 49.9407055,67.7180518 49.4519666,69.190283 C48.9138244,70.8095663 48.3862687,72.4322694 47.8243071,74.0430032 C46.0590244,79.1026223 47.7166787,83.8185498 49.383155,88.523363 C49.7386817,89.5262243 50.5458949,90.0058536 51.6998128,90.1922336 C53.8259154,90.5359252 55.3935852,91.8140818 54.9127861,93.9736962 C54.4293404,96.144425 52.2123711,94.8970467 50.8290812,95.2381735" id="Fill-23"></path>
                    <path d="M14.0662757,93.2391027 C13.6571733,90.9736757 15.2178861,89.6012228 16.6629274,88.2234912 C17.442008,87.480959 18.080752,85.8973596 19.2808423,86.4744936 C20.46052,87.0428299 19.1745267,88.2437261 19.1685731,89.1859678 C19.1609183,90.6675131 18.9686998,92.1648944 20.5608819,92.9619728 C22.6472189,94.0080282 23.513053,96.1326908 22.6948483,97.9116009 C21.8689888,99.7072268 19.4858188,99.4652879 17.6912117,99.0685083 C15.7162935,98.6321387 13.8451393,97.8403389 14.0594715,95.1174276 C14.1053998,94.5394138 14.0662757,93.9543618 14.0662757,93.2391027" id="Fill-25"></path>
                </g>
            </g>
        </g>
    </g>
</svg>