<?xml version="1.0" encoding="utf-8"?><svg width="281" height="32" viewBox="0 0 281 32" xmlns="http://www.w3.org/2000/svg" xmlns:xlink="http://www.w3.org/1999/xlink"><view id="icon-logo-de" viewBox="0 0 281 32"/><svg viewBox="0 0 281 32" width="281" height="32"><path fill="#BEC10C" d="M3.9 0v17.6H6c.3.1.5.1.8 0s.5-.1.7-.2c.3-.1.5-.2.7-.4l.6-.6c.1-.1.2-.3.3-.4.1-.1.2-.3.4-.5.1-.2.2-.4.4-.6.1-.2.2-.5.4-.7l2.5-4.3h4.6c0 .1-.1.2-.1.3 0 .1-.1.2-.1.2-.1.1-.1.2-.1.2 0 .1-.1.1-.1.2s-.1.2-.1.2c0 .1-.1.1-.1.2-.1.1-.1.2-.1.2 0 .1-.1.1-.1.2l-.3.6-.3.6-.3.6c-.1.2-.2.4-.3.5-.4.6-.7 1.2-1.1 1.7-.4.5-.7 1-1.1 1.5-.4.4-.7.8-1 1-.3.3-.6.4-.9.5.8.1 1.5.3 2.1.5.6.3 1.1.6 1.5 1.1.4.5.7 1 .9 1.5.2.5.4 1.1.5 1.6V31H12v-5.6c0-.6-.1-1.1-.2-1.6-.2-.5-.4-.9-.7-1.3-.3-.4-.8-.7-1.4-.9-.6-.2-1.4-.3-2.2-.3L4 21.2V31H0V0h3.9zM36.2 19c0-.7-.1-1.3-.4-1.9-.3-.6-.6-1.2-1.1-1.8-.5-.6-1.2-1-2.2-1.3-.9-.3-2-.4-3.4-.4h-.6c-.2 0-.5.1-.7.1-.3 0-.5.1-.8.2-.3.1-.5.2-.8.4-.5.2-.9.5-1.4.9-.4.4-.9.8-1.3 1.3s-.7 1.1-.9 1.8c-.2.7-.4 1.5-.4 2.4 0 1.2.2 2.2.5 3.1.3.9.8 1.6 1.5 2.2.7.6 1.4 1 2.1 1.4.7.3 1.5.6 2.3.6H29.5c.4 0 .7 0 1-.1.3 0 .6-.1.9-.2.1-.1.3-.1.4-.2.1-.1.3-.1.4-.2.1-.1.3-.2.4-.3.1-.1.3-.2.4-.3.1-.1.3-.2.4-.3l.4-.4.4-.4.4-.4v4.9c0 .1-.1.1-.1.1-.4.2-.7.5-1.1.6-.4.2-.8.4-1.2.5-.4.1-.9.2-1.5.3-.6.1-1.3.1-2.1.1h-.1-.1-.1-.2-.1-.1c-1.4 0-2.7-.2-3.8-.7-1.2-.5-2.3-1.2-3.2-2.3-1-1-1.7-2.2-2.2-3.6-.5-1.4-.7-2.9-.7-4.6 0-1.5.2-2.9.7-4.2.5-1.3 1.2-2.5 2.2-3.5 1-1.1 2.1-1.9 3.5-2.4s3-.8 4.9-.8c1.8 0 3.3.2 4.7.7 1.4.5 2.5 1.2 3.5 2.1 1 1 1.7 2 2.1 3 .5 1.1.7 2.2.7 3.3v12.5H36V19zM47.5 9.9V12c.1 0 .1-.1.2-.1 0-.1.1-.1.2-.2s.1-.2.2-.3l.3-.3c.2-.2.5-.5.8-.7.3-.2.6-.4 1-.6.4-.2.8-.3 1.2-.4.4-.1.9-.2 1.4-.2l1.4-.1V13h-1.1c-.8.1-1.6.4-2.2.7-.6.3-1.1.7-1.5 1.1-.4.4-.7.9-1 1.4-.3.5-.5 1-.6 1.5-.1.4-.2.8-.3 1.1-.1.4-.1.7-.1 1V31.2h-3.9V9.9h4zM57 4.6h4.2v5.3h8.2v3.8h-8.2v10.9c0 .4 0 .8.1 1.1.1.3.1.6.3.9.1.3.4.5.8.6.4.1 1 .2 1.7.2l5-.1v3.9h-5.3-.1-.2-.1-.1-.1-.1-.1c-1 0-1.9-.1-2.6-.4-.7-.3-1.4-.8-1.8-1.4-.5-.6-.8-1.3-1.1-2-.3-.7-.4-1.5-.5-2.2V25v-.2-.2-20zM85.9 15.5c-.1 0-.1-.1-.2-.1s-.1-.1-.2-.2l-.2-.2c-.1-.1-.2-.2-.2-.3-.1-.1-.2-.1-.3-.2-.1-.1-.2-.2-.3-.2-.1-.1-.2-.1-.4-.2-.1-.1-.3-.1-.4-.2-.3-.1-.6-.3-1.1-.3-.4-.1-.9-.1-1.4-.1-1.2 0-2.2.2-3.1.6-.9.4-1.6 1-2.2 1.8-.6.8-1 1.7-1.3 2.5-.3.9-.4 1.8-.4 2.8v.1c0 .9.2 1.7.5 2.5s.8 1.5 1.4 2.3c.6.7 1.3 1.2 2.2 1.6.9.4 1.9.5 3 .5 1.2 0 2.2-.1 3.1-.4.8-.3 1.4-.7 1.9-1.3.4-.6.8-1.3 1.1-2.1.3-.8.6-1.7.9-2.7l3.9.2V23.5c0 .3-.1.5-.1.8 0 .1-.1.3-.1.4v.4c-.1.1-.1.3-.2.4 0 .1-.1.3-.2.4-.4.7-.8 1.5-1.4 2.2-.6.7-1.3 1.4-2.2 2-.8.6-1.8 1.1-2.9 1.4s-2.4.5-3.7.5c-1.6 0-3-.2-4.4-.7-1.3-.5-2.6-1.2-3.6-2.3-1.1-1-1.9-2.2-2.5-3.5-.5-1.3-.8-2.7-.8-4.3 0-1.7.2-3.1.7-4.4.4-1.3 1.1-2.4 2-3.3.9-.9 1.8-1.7 2.8-2.3 1-.6 2-1 3.1-1.3.1 0 .2-.1.3-.1.1 0 .2 0 .3-.1h.3c.1 0 .2 0 .3-.1.2 0 .5-.1.7-.1h.6c1.2 0 2.4.2 3.4.5 1.1.3 2 .9 2.9 1.5.9.7 1.7 1.4 2.4 2.3.7.8 1.3 1.7 1.9 2.7l-14.8 8-1.7-3.1 10.6-5.9zM95.6 18.3c0-1.2.2-2.3.6-3.4.4-1.1 1-2 1.9-3 .9-.9 1.9-1.6 3-2 1.2-.5 2.5-.7 4-.7h.8c.3 0 .6.1.9.1.3.1.7.1 1 .2.3.1.7.2 1.1.4.6.3 1.2.6 1.8 1 .6.4 1.1.9 1.7 1.5.5.6.9 1.3 1.2 2.1s.4 1.8.4 2.9v13.9h-4.3V18.7c0-.7-.1-1.3-.3-1.9-.2-.6-.5-1.2-.9-1.8-.4-.6-.9-1-1.5-1.3-.6-.3-1.4-.4-2.2-.4-.8 0-1.5.1-2.1.4-.6.3-1.1.7-1.6 1.2-.4.5-.8 1.1-1.1 1.7-.3.6-.4 1.3-.5 1.9v12.9h-3.9V18.3z"/><path fill="#47B4D0" d="M117.3 16.5c0-.9.2-1.8.5-2.6.4-.8.9-1.6 1.7-2.3.7-.7 1.6-1.2 2.6-1.5 1-.3 2.1-.5 3.3-.5.9 0 1.6.1 2.3.2.7.1 1.2.3 1.6.6.4.2.8.5 1.2.9.4.3.7.7.9 1.2.3-.4.6-.7 1-1s.9-.6 1.4-.9c.5-.3 1.1-.5 1.8-.7.7-.1 1.4-.2 2.2-.2 1 0 2 .1 2.9.4.9.3 1.7.7 2.5 1.3.8.6 1.4 1.2 1.8 1.9.4.7.6 1.5.6 2.4v15.8h-3.9V17.6v-.1-.1-.2-.1-.3c0-.1 0-.2-.1-.3 0-.1-.1-.2-.1-.3 0-.1 0-.2-.1-.3-.1-.4-.3-.7-.5-1-.2-.3-.5-.6-.9-.9-.3-.3-.7-.5-1.1-.7s-.8-.2-1.2-.2c-.5 0-1 .1-1.5.3-.5.2-.9.5-1.3.9s-.7.8-.9 1.2c-.2.4-.4.9-.5 1.4 0 .1-.1.1-.1.2v14.2h-3.9V17.9c0-.7-.1-1.3-.3-1.8-.2-.6-.4-1.1-.8-1.6s-.8-.8-1.3-1.1c-.5-.2-1.2-.4-1.8-.4-.9.1-1.6.3-2.2.6-.6.3-1 .7-1.3 1.2-.3.5-.5 1-.6 1.6-.1.6-.2 1.1-.2 1.7v13h-3.9V16.5zM166.7 19c0-.7-.1-1.3-.4-1.9-.3-.6-.6-1.2-1.1-1.8-.5-.6-1.2-1-2.2-1.3-.9-.3-2-.4-3.4-.4h-.6c-.2 0-.5.1-.7.1-.3 0-.5.1-.8.2-.3.1-.5.2-.8.4-.5.2-.9.5-1.4.9-.4.4-.9.8-1.3 1.3s-.7 1.1-.9 1.8c-.2.7-.4 1.5-.4 2.4 0 1.2.2 2.2.5 3.1.3.9.8 1.6 1.5 2.2.7.6 1.4 1 2.1 1.4.7.3 1.5.6 2.3.6H160c.4 0 .7 0 1-.1s.6-.1.9-.2c.1-.1.3-.1.4-.2.1-.1.3-.1.4-.2.1-.1.3-.2.4-.3.1-.1.3-.2.4-.3.1-.1.3-.2.4-.3l.4-.4.4-.4.4-.4v4.9c0 .1-.1.1-.1.1-.4.2-.7.5-1.1.6-.4.2-.8.4-1.2.5-.4.1-.9.2-1.5.3-.6.1-1.3.1-2.1.1h-.1-.1-.1-.2-.1-.1c-1.4 0-2.7-.2-3.8-.7-1.2-.5-2.3-1.2-3.2-2.3-1-1-1.7-2.2-2.2-3.6-.5-1.4-.7-2.9-.7-4.6 0-1.5.2-2.9.7-4.2.5-1.3 1.2-2.5 2.2-3.5 1-1.1 2.1-1.9 3.5-2.4s3-.8 4.9-.8c1.8 0 3.3.2 4.7.7 1.4.5 2.5 1.2 3.5 2.1 1 1 1.7 2 2.1 3 .5 1.1.7 2.2.7 3.3v12.5h-4.3V19zM174.1 20c0-.3.1-.6.1-.9.1-.3.1-.7.3-1 .1-.3.3-.7.4-1 .3-.8.8-1.6 1.3-2.4.6-.8 1.3-1.5 2.1-2.2.8-.7 1.7-1.2 2.8-1.6 1.1-.4 2.2-.5 3.6-.5l4.2-.1v3.8h-3.2c-.2.1-.4.1-.6.1-.2 0-.4.1-.7.1-.2 0-.5.1-.7.1-.2.1-.5.1-.7.2-.5.2-1.1.5-1.5.8-.5.3-1 .7-1.4 1.2-.4.5-.8 1.1-1 1.8-.2.7-.3 1.5-.3 2.4V22.5c0 .1.1.2.1.3 0 .1.1.2.1.3.1.6.4 1.1.7 1.6.3.5.7 1 1.2 1.5s1.1.8 1.7 1c.7.2 1.5.3 2.4.3h.7l3.2-.1v3.9h-4.6c-1.4 0-2.6-.2-3.7-.6-1.1-.4-2-.9-2.8-1.6-.7-.7-1.4-1.4-1.9-2.1-.5-.7-.9-1.5-1.2-2.3-.1-.3-.2-.7-.3-1-.1-.3-.2-.7-.2-1-.1-.3-.1-.6-.1-.9v-1-.8zM195.6 0v11.6c.4-.3.9-.6 1.3-.9.5-.3.9-.5 1.4-.8.5-.2 1-.4 1.5-.5.5-.1 1.1-.2 1.7-.2 1.1 0 2.2.2 3.2.5s1.9.8 2.8 1.5c.8.7 1.5 1.4 1.9 2.3.4.9.6 1.9.6 3.1v14.7h-3.9V18.7c0-.8-.1-1.6-.4-2.3-.2-.7-.6-1.3-1.1-1.7-.5-.5-1-.9-1.6-1.1-.6-.3-1.2-.4-1.9-.4-.8 0-1.6.1-2.2.3-.6.2-1.2.5-1.6 1-.4.4-.8.9-1 1.4-.3.5-.5 1-.6 1.5 0 .1-.1.3-.1.5s-.1.3-.1.5v13h-3.9V0h4zM229.2 15.5c-.1 0-.1-.1-.2-.1s-.1-.1-.2-.2l-.2-.2c-.1-.1-.2-.2-.2-.3-.1-.1-.2-.1-.3-.2-.1-.1-.2-.2-.3-.2-.1-.1-.2-.1-.4-.2-.1-.1-.3-.1-.4-.2-.3-.1-.6-.3-1.1-.3-.4-.1-.9-.1-1.4-.1-1.2 0-2.2.2-3.1.6-.9.4-1.6 1-2.2 1.8-.6.8-1 1.7-1.3 2.5-.3.9-.4 1.8-.4 2.8v.1c0 .9.2 1.7.5 2.5s.8 1.5 1.4 2.3c.6.7 1.3 1.2 2.2 1.6.9.4 1.9.5 3 .5 1.2 0 2.2-.1 3.1-.4.8-.3 1.4-.7 1.9-1.3.4-.6.8-1.3 1.1-2.1.3-.8.6-1.7.9-2.7l3.9.2V23.5c0 .3-.1.5-.1.8 0 .1-.1.3-.1.4 0 .1-.1.3-.1.4-.1.1-.1.3-.2.4 0 .1-.1.3-.2.4-.4.7-.8 1.5-1.4 2.2-.6.7-1.3 1.4-2.2 2-.8.6-1.8 1.1-2.9 1.4s-2.3.5-3.7.5c-1.6 0-3-.2-4.4-.7-1.3-.5-2.6-1.2-3.6-2.3-1.1-1-1.9-2.2-2.5-3.5-.5-1.3-.8-2.7-.8-4.3 0-1.7.2-3.1.7-4.4.4-1.3 1.1-2.4 2-3.3.9-.9 1.8-1.7 2.8-2.3 1-.6 2-1 3.1-1.3.1 0 .2-.1.3-.1.1 0 .2 0 .3-.1h.3c.1 0 .2 0 .3-.1.2 0 .5-.1.7-.1h.6c1.2 0 2.4.2 3.4.5 1.1.3 2 .9 2.9 1.5.9.7 1.7 1.4 2.4 2.3.7.8 1.3 1.7 1.9 2.7l-14.8 8-1.7-3.1 10.7-5.9zM242.9 9.9V12c.1 0 .1-.1.2-.1 0-.1.1-.1.2-.2s.1-.2.2-.3l.3-.3c.2-.2.5-.5.8-.7.3-.2.6-.4 1-.6.4-.2.8-.3 1.2-.4.4-.1.9-.2 1.4-.2l1.4-.1V13h-1.1c-.8.1-1.6.4-2.2.7-.6.3-1.1.7-1.5 1.1-.4.4-.7.9-1 1.4-.3.5-.5 1-.6 1.5-.1.4-.2.8-.3 1.1-.1.4-.1.7-.1 1V31.2H239V9.9h3.9zM266.6 15.5c-.1 0-.1-.1-.2-.1s-.1-.1-.2-.2l-.2-.2c-.1-.1-.2-.2-.2-.3-.1-.1-.2-.1-.3-.2-.1-.1-.2-.2-.3-.2-.1-.1-.2-.1-.4-.2-.1-.1-.3-.1-.4-.2-.3-.1-.6-.3-1.1-.3-.4-.1-.9-.1-1.4-.1-1.2 0-2.2.2-3.1.6-.9.4-1.6 1-2.2 1.8-.6.8-1 1.7-1.3 2.5-.3.9-.4 1.8-.4 2.8v.1c0 .9.2 1.7.5 2.5s.8 1.5 1.4 2.3c.6.7 1.3 1.2 2.2 1.6.9.4 1.9.5 3 .5 1.2 0 2.2-.1 3.1-.4.8-.3 1.4-.7 1.9-1.3.4-.6.8-1.3 1.1-2.1.3-.8.6-1.7.9-2.7l3.9.2V23.5c0 .3-.1.5-.1.8 0 .1-.1.3-.1.4 0 .1-.1.3-.1.4-.1.1-.1.3-.2.4 0 .1-.1.3-.2.4-.4.7-.8 1.5-1.4 2.2-.6.7-1.3 1.4-2.2 2-.8.6-1.8 1.1-2.9 1.4-1.1.3-2.4.5-3.7.5-1.6 0-3-.2-4.4-.7-1.3-.5-2.6-1.2-3.6-2.3-1.1-1-1.9-2.2-2.5-3.5-.5-1.3-.8-2.7-.8-4.3 0-1.7.2-3.1.7-4.4.4-1.3 1.1-2.4 2-3.3.9-.9 1.8-1.7 2.8-2.3 1-.6 2-1 3.1-1.3.1 0 .2-.1.3-.1.1 0 .2 0 .3-.1h.3c.1 0 .2 0 .3-.1.2 0 .5-.1.7-.1h.6c1.2 0 2.4.2 3.4.5 1.1.3 2 .9 2.9 1.5.9.7 1.7 1.4 2.4 2.3.7.8 1.3 1.7 1.9 2.7l-14.8 8-1.7-3.1 10.7-5.9zM277.1 9.9h3.9v21.4h-3.9V9.9z"/><path fill="#E40256" d="M278 4.3h2.8c.1 0 .2.1.2.2v2.8c0 .5-.4.9-.9.9h-2.8c-.1 0-.2-.1-.2-.2V5.2c0-.5.4-.9.9-.9z"/></svg></svg>