<?xml version="1.0" encoding="UTF-8" standalone="no"?>
<svg width="29px" height="18px" viewBox="0 0 29 18" version="1.1" xmlns="http://www.w3.org/2000/svg" xmlns:xlink="http://www.w3.org/1999/xlink">
    <defs></defs>
    <g id="Homepage" stroke="none" stroke-width="1" fill="none" fill-rule="evenodd">
        <g id="Large-Device-HOMEPAGE-B" transform="translate(-339.000000, -4909.000000)" fill="#FFFFFF">
            <g id="Section-Footer-Copy" transform="translate(0.000000, 4382.000000)">
                <g id="Mail" transform="translate(297.247817, 527.459612)">
                    <path d="M70.7226826,15.9105113 C70.7226826,16.7863192 69.8596243,17.5161592 68.8969825,17.5161592 L43.7687105,17.5161592 C42.8060686,17.5161592 41.9430104,16.7863192 41.9430104,15.9105113 L41.9430104,1.66403513 C41.9430104,0.817420763 42.7396796,0.116774395 43.7023214,0.0875807961 L43.735516,0 L68.8637879,0 L68.8969825,0.0875807961 L69.3285116,0.0875807961 L68.8969825,0.0875807961 C69.8928189,0.0875807961 70.7226826,0.788227165 70.7226826,1.66403513 L70.7226826,15.9105113 Z M68.4986479,13.6334106 L68.4986479,3.88274863 L61.2290422,8.75807961 L68.4986479,13.6334106 Z M68.4986479,1.95597111 L44.1670451,1.95597111 C48.2167798,4.64178219 52.2665145,7.32759327 56.3162492,10.042598 C60.3659839,7.32759327 64.4157187,4.64178219 68.4986479,1.95597111 L68.4986479,1.95597111 Z M68.4986479,15.5601881 L59.7352875,9.75066196 L57.4116693,11.3271163 L55.1876346,11.3271163 L52.8972109,9.77985556 L44.1670451,15.5601881 L68.4986479,15.5601881 Z M51.4034563,8.75807961 L44.1670451,3.88274863 L44.1670451,13.6334106 L51.4034563,8.75807961 Z" id="Icon"></path>
                </g>
            </g>
        </g>
    </g>
</svg>