<?xml version="1.0" encoding="UTF-8" standalone="no"?>
<svg width="20px" height="21px" viewBox="0 0 20 21" version="1.1" xmlns="http://www.w3.org/2000/svg" xmlns:xlink="http://www.w3.org/1999/xlink">
    <defs></defs>
    <g id="Homepage" stroke="none" stroke-width="1" fill="none" fill-rule="evenodd">
        <g id="Large-Device-HOMEPAGE-B" transform="translate(-1125.000000, -67.000000)" fill="#5B352A">
            <g id="Section-Topbar">
                <g id="CART-+-Icon" transform="translate(1125.000000, 67.000000)">
                    <path d="M19.7214781,2.51437985 C19.4549716,2.36498947 18.9219587,2.26539589 18.3889458,2.26539589 L5.99639537,2.26539589 L5.46338245,1.26946006 C5.33012922,0.970679314 4.3973566,0.721695357 3.59783722,0.721695357 L-5.32907052e-15,0.721695357 L-5.32907052e-15,1.51844402 L3.46458399,1.51844402 L5.46338245,5.103813 C5.59663568,5.40259375 6.52940829,5.65157771 7.32892767,5.65157771 L15.7238812,5.65157771 C16.5234006,5.65157771 17.4561732,5.45239054 17.7226796,5.1536098 L19.8547313,3.06214455 C20.1212378,2.86295739 19.9879846,2.66377022 19.7214781,2.51437985 L19.7214781,2.51437985 Z M15.8571344,12.2247542 L7.59543413,12.2247542 L6.52940829,7.29487183 L17.5894264,7.29487183 L15.8571344,12.2247542 L15.8571344,12.2247542 Z M8.12844706,15.6482836 C6.92916798,15.6482836 5.99639537,16.6068718 5.99639537,17.8393424 C5.99639537,19.071813 6.92916798,20.0304012 8.12844706,20.0304012 C9.32772613,20.0304012 10.2604987,19.071813 10.2604987,17.8393424 C10.2604987,16.6068718 9.32772613,15.6482836 8.12844706,15.6482836 L8.12844706,15.6482836 Z M15.590628,15.6482836 C14.3913489,15.6482836 13.4585763,16.6068718 13.4585763,17.8393424 C13.4585763,19.071813 14.3913489,20.0304012 15.590628,20.0304012 C16.789907,20.0304012 17.7226796,19.071813 17.7226796,17.8393424 C17.7226796,16.6068718 16.789907,15.6482836 15.590628,15.6482836 L15.590628,15.6482836 Z" id="Icon"></path>
                </g>
            </g>
        </g>
    </g>
</svg>