<?xml version="1.0" encoding="UTF-8" standalone="no"?>
<svg width="19px" height="19px" viewBox="0 0 19 19" version="1.1" xmlns="http://www.w3.org/2000/svg" xmlns:xlink="http://www.w3.org/1999/xlink">
    <defs></defs>
    <g id="Menu" stroke="none" stroke-width="1" fill="none" fill-rule="evenodd">
        <g id="CATMENU" transform="translate(-1119.000000, -58.000000)" fill="#5B352A">
            <g id="Section-Topbar" transform="translate(0.000000, 29.000000)">
                <g id="CART-+-Icon" transform="translate(1119.000000, 29.000000)">
                    <path d="M6,15 C4.9,15 4,15.9 4,17 C4,18.1 4.9,19 6,19 C7.1,19 8,18.1 8,17 C8,15.9 7.1,15 6,15 L6,15 Z M0,0 L0,1.86666667 L1.9,1.86666667 L5.32,8.96 L3.99,11.2 C3.895,11.48 3.8,11.8533333 3.8,12.1333333 C3.8,13.16 4.655,14 5.7,14 L17.1,14 L17.1,12.1333333 L6.08,12.1333333 C5.985,12.1333333 5.89,12.04 5.89,11.9466667 L5.89,11.8532967 L6.745,10.2666301 L13.775,10.2666301 C14.535,10.2666301 15.105,9.89329673 15.39,9.33329673 L18.81,3.26666667 C19,3.08 19,2.98666667 19,2.8 C19,2.24 18.62,1.86666667 18.05,1.86666667 L3.99,1.86666667 L3.135,0 L0,0 L0,0 Z M15,15 C13.9,15 13,15.9 13,17 C13,18.1 13.9,19 15,19 C16.1,19 17,18.1 17,17 C17,15.9 16.1,15 15,15 L15,15 Z" id="Shape"></path>
                </g>
            </g>
        </g>
    </g>
</svg>