<?xml version="1.0" encoding="UTF-8" standalone="no"?>
<svg width="61px" height="17px" viewBox="0 0 61 17" version="1.1" xmlns="http://www.w3.org/2000/svg" xmlns:xlink="http://www.w3.org/1999/xlink">
    <defs></defs>
    <g id="Homepage" stroke="none" stroke-width="1" fill="none" fill-rule="evenodd">
        <g id="Large-Device-HOMEPAGE-B" transform="translate(-788.000000, -4485.000000)" fill="#FFFFFF">
            <g id="Section-Footer-Copy" transform="translate(0.000000, 4382.000000)">
                <g id="Paying-Systems" transform="translate(788.130734, 97.000000)">
                    <path d="M60.721666,8.64806604 L60.721666,7.58660377 C60.721666,7.39436321 60.6793443,7.24075472 60.5965411,7.13497642 C60.5100577,7.02459906 60.3803327,6.97033019 60.1990856,6.97033019 C60.0969616,6.97033019 59.9985178,6.98964623 59.9083542,7.03287736 C59.8181907,7.07150943 59.7151467,7.14233491 59.6056624,7.23339623 C59.5661009,7.15061321 59.5072186,7.08806604 59.4326957,7.04023585 C59.3535726,6.99332547 59.2597289,6.97033019 59.1493246,6.97033019 C59.0554809,6.97033019 58.9643974,6.98964623 58.877914,7.0282783 C58.7951107,7.07150943 58.7086274,7.12669811 58.623064,7.19752358 L58.623064,7.01724057 L58.3470532,7.01724057 L58.3470532,8.64806604 L58.623064,8.64806604 L58.623064,7.42931604 C58.6975869,7.37044811 58.7721098,7.32353774 58.8466328,7.28766509 C58.9257558,7.24903302 58.9956786,7.23339623 59.0748017,7.23339623 C59.1493246,7.23339623 59.211887,7.24075472 59.2514486,7.26466981 C59.2946903,7.28398585 59.3259715,7.31525943 59.3498924,7.35849057 C59.3692132,7.39804245 59.3848538,7.44955189 59.389454,7.51209906 L59.4014144,7.72089623 L59.4014144,8.64806604 L59.671905,8.64806604 L59.671905,7.60224057 L59.6682249,7.5157783 L59.6645447,7.43759434 C59.7390676,7.37872642 59.8181907,7.32721698 59.8927136,7.28766509 C59.9709167,7.25271226 60.0454396,7.23339623 60.1245627,7.23339623 C60.2027657,7.23339623 60.261648,7.24075472 60.3058098,7.26466981 C60.3444513,7.28398585 60.3757325,7.31525943 60.3996534,7.35849057 C60.4189742,7.39804245 60.4355348,7.44955189 60.439215,7.5157783 L60.4511754,7.72089623 L60.4511754,8.64806604 L60.721666,8.64806604 L60.721666,8.64806604 Z M58.0167603,8.63242925 L58.0167603,8.385 L58.0047999,8.385 L57.8989957,8.41995283 C57.8483938,8.43191038 57.804232,8.43926887 57.7573102,8.43926887 C57.6827873,8.43926887 57.623905,8.43191038 57.5889436,8.41259434 C57.5493821,8.3932783 57.521781,8.36476415 57.4978601,8.32613208 C57.4748592,8.28658019 57.4628987,8.23966981 57.4582985,8.19183962 L57.4509382,7.99132075 L57.4509382,7.24903302 L58.0167603,7.24903302 L58.0167603,7.01724057 L57.4509382,7.01724057 L57.4509382,6.54537736 L57.1795276,6.54537736 L57.1795276,7.01724057 L56.9946004,7.01724057 L56.9946004,7.24903302 L57.1795276,7.24903302 L57.1795276,8.11365566 C57.1795276,8.31417453 57.2227693,8.45582547 57.3092527,8.54596698 C57.3957361,8.63610849 57.521781,8.67933962 57.6864674,8.67933962 L57.8483938,8.66738208 L58.0167603,8.63242925 L58.0167603,8.63242925 Z M55.1858098,6.56101415 L53.6879912,6.56101415 C53.3420577,6.56101415 52.9961242,6.82408019 52.8976804,7.1579717 L52.8857199,7.20120283 L52.7881961,7.6454717 L50.7355959,16.9898349 L50.6454324,17.374316 C50.5745896,17.7008491 50.7751575,17.9795519 51.0934899,18.008066 C52.6465106,18.008066 52.6501907,18.0154245 52.6501907,18.0154245 C52.9924441,18.0154245 53.3383776,17.7560377 53.4368214,17.4221462 L53.452462,17.374316 L55.6936696,7.20120283 C55.7681925,6.85167453 55.5437037,6.56101415 55.1858098,6.56101415 L55.1858098,6.56101415 Z M19.0615187,9.5871934 C18.4285339,9.2303066 17.433055,9.05278302 16.0769221,9.05278302 C15.4043758,9.05278302 14.7281494,9.10429245 14.051923,9.21007075 C13.5523434,9.28917453 13.5017415,9.30113208 13.1953695,9.36735849 C12.5577846,9.50533019 12.4602608,10.1455189 12.4602608,10.1455189 L12.2550928,10.9871462 C12.1410083,11.5252358 12.4483003,11.5059198 12.5817055,11.4626887 C12.8567963,11.3762264 13.0104423,11.2934434 13.5762644,11.16375 C14.1154054,11.0423349 14.6885878,10.9512736 15.1449257,10.9558726 C15.8137918,10.9558726 16.3207316,11.0257783 16.662985,11.1674292 C17.0006381,11.3173585 17.1662446,11.568467 17.1662446,11.9299528 C17.1699248,12.0164151 17.1699248,12.0955189 17.1386435,12.1663443 C17.1110425,12.2334906 17.0558403,12.2960377 16.8985142,12.3199528 C15.9435169,12.3788208 15.2590101,12.465283 14.4337379,12.5830189 C13.6195061,12.7007547 12.9037181,12.8975943 12.3102949,13.1689387 C11.6736301,13.4513208 11.2016516,13.8330425 10.8713587,14.3085849 C10.5530263,14.7924057 10.39202,15.3737264 10.39202,16.0617453 C10.39202,16.7102123 10.6238691,17.2409434 11.0756067,17.6502594 C11.5319445,18.0586557 12.1216876,18.2591745 12.8374755,18.2591745 C13.285533,18.2545755 13.6351467,18.2233019 13.8872365,18.1607547 C14.1347262,18.0936085 14.4061368,18.008066 14.693188,17.8820519 C14.9057163,17.7909906 15.1375654,17.6612972 15.3813749,17.5003302 L16.0097594,17.0799764 C15.9508771,17.3467217 15.9591575,17.3623585 15.9591575,17.3623585 C15.8919948,17.6934906 16.0806022,17.9675943 16.4035348,17.9997877 C16.4311359,17.9997877 16.434816,18.008066 16.434816,18.008066 L17.9602356,18.008066 C17.9758762,18.008066 17.9804764,17.9997877 17.9841566,17.9997877 C18.3144495,17.9565566 18.6245016,17.6888915 18.6990245,17.3706368 L19.9226723,12.0798821 C19.9502734,11.9575472 19.9695941,11.812217 19.9852347,11.6475708 C20.0008753,11.4820047 20.016516,11.3449528 20.0128358,11.2428538 C20.016516,10.495967 19.6945034,9.94132075 19.0615187,9.5871934 L19.0615187,9.5871934 Z M16.1045231,15.8888208 C15.896595,16.0185142 15.6757864,16.1279717 15.4476175,16.2273113 C15.1375654,16.3524057 14.846834,16.4158726 14.5754234,16.4158726 C14.1623273,16.4158726 13.8393947,16.3560849 13.6231862,16.2309906 C13.4069778,16.1123349 13.2928933,15.9044575 13.2974935,15.6055189 C13.2974935,15.2633491 13.3793767,14.9966038 13.541303,14.7878066 C13.7059895,14.5872877 13.949799,14.4226415 14.2524908,14.3049057 C14.5551826,14.1982075 14.9287172,14.1163443 15.357454,14.0565566 C15.7392689,14.005967 16.4936983,13.9195047 16.588462,13.9195047 C16.6823057,13.9195047 16.7494683,13.864316 16.7062266,14.1237028 C16.6859859,14.2340802 16.4706974,15.1299764 16.3676534,15.5392925 C16.3400523,15.6607075 16.1753659,15.8409906 16.1045231,15.8888208 L16.1045231,15.8888208 Z M37.7492886,11.5132783 C37.2451089,11.8830425 36.5458816,12.0642453 35.6378062,12.0642453 L35.22471,12.0642453 C34.8631359,12.0679245 34.6312868,11.7772642 34.7177702,11.4277358 L35.2164297,9.24962264 C35.2909526,8.90377358 35.6571269,8.60851415 36.0113408,8.61311321 L36.5615222,8.60851415 C37.2027873,8.61311321 37.682126,8.71889151 38.0160991,8.93504717 C38.3427118,9.15120283 38.500038,9.48601415 38.500038,9.93396226 C38.5037181,10.6173821 38.2516283,11.1407547 37.7492886,11.5132783 L37.7492886,11.5132783 Z M41.3585896,8.15688679 C41.1497415,7.75216981 40.8350892,7.42195755 40.4339535,7.16992925 C40.0291377,6.9142217 39.5415187,6.73761792 38.9830568,6.63183962 C38.4291952,6.53341981 37.7686094,6.47823113 37.0178601,6.47823113 L33.5180434,6.47823113 C33.1564692,6.48650943 32.8022554,6.76889151 32.7203722,7.11933962 L30.3687603,17.3862736 C30.282277,17.7367217 30.5187262,18.0273821 30.87202,18.0237028 L32.5510856,18.0237028 C32.9043794,18.0237028 33.2668735,17.7367217 33.3533569,17.3862736 L33.919179,14.8945047 C33.9983021,14.5440566 34.3598762,14.2533962 34.7214504,14.2570755 L35.2007891,14.2570755 C37.2451089,14.2570755 38.834011,13.8367217 39.9702554,12.9960142 C41.1028196,12.1507075 41.6769221,11.0460142 41.6769221,9.66629717 C41.6732419,9.06474057 41.5701979,8.55792453 41.3585896,8.15688679 L41.3585896,8.15688679 Z M7.3917828,11.4746462 C6.88852314,11.8444104 6.19297597,12.0283726 5.28398047,12.0283726 L4.87548451,12.0283726 C4.51391039,12.0283726 4.28574147,11.7423113 4.36394453,11.388184 L4.86720419,9.21466981 C4.94632728,8.86054245 5.30422126,8.56988208 5.66579538,8.57356132 L6.21229673,8.56988208 C6.85356178,8.56988208 7.33658065,8.67933962 7.66687355,8.90009434 C7.98888613,9.11165094 8.1544926,9.44646226 8.14621227,9.89808962 C8.15817274,10.5778302 7.8987226,11.1048821 7.3917828,11.4746462 L7.3917828,11.4746462 Z M11.0047639,8.12193396 C10.7968358,7.71261792 10.4858637,7.38240566 10.084728,7.13497642 C9.67623204,6.87926887 9.19689331,6.70266509 8.63383132,6.59688679 C8.07168936,6.49386792 7.41570374,6.44695755 6.66035423,6.43867925 L3.17249799,6.4432783 C2.81092386,6.44695755 2.45302988,6.73025943 2.37114668,7.07978774 L0.0158546802,17.3467217 C-0.0632684106,17.6971698 0.161220358,17.9878302 0.522794482,17.9878302 L2.19817993,17.9878302 C2.55515387,17.9878302 2.91764803,17.7045283 2.99585109,17.3467217 L3.57363366,14.8549528 C3.6490766,14.5054245 4.00697058,14.2184434 4.36854471,14.2184434 L4.84788343,14.2184434 C6.89220329,14.2138443 8.47742521,13.7971698 9.61734974,12.9564623 C10.7572743,12.119434 11.3230964,11.0064623 11.3230964,9.63042453 C11.3230964,9.02978774 11.2209724,8.52205189 11.0047639,8.12193396 L11.0047639,8.12193396 Z M28.4192042,9.17511792 C28.0613102,9.17511792 27.5893318,9.4657783 27.3694432,9.81898585 L24.7344603,14.351816 C24.6093354,14.5716509 24.4796103,14.4345991 24.4556894,14.351816 L23.7123003,9.84658019 C23.6340973,9.49337264 23.2642428,9.18615566 22.8005447,9.18615566 L21.3100865,9.19075472 C20.9485124,9.19075472 20.7240236,9.48141509 20.8031467,9.8309434 C20.8031467,9.8309434 21.9467514,16.3248113 22.16756,17.8498585 C22.2816444,18.6951651 22.1555995,18.8450943 22.1555995,18.8450943 L20.6771018,21.435283 C20.4608933,21.7884906 20.5786579,22.0754717 20.9365519,22.0754717 L22.6662195,22.0754717 C23.0241134,22.0754717 23.5006921,21.7884906 23.7123003,21.435283 L30.3733605,10.1335613 C30.3733605,10.1335613 31.0100254,9.16683962 30.4239625,9.17511792 C30.0228268,9.18339623 28.4192042,9.17511792 28.4192042,9.17511792 L28.4192042,9.17511792 Z M49.4217846,9.5954717 C48.7851197,9.23766509 47.794241,9.06106132 46.4344279,9.06106132 C45.7618816,9.06106132 45.0893354,9.11165094 44.4094288,9.21834906 C43.9135294,9.29653302 43.8629275,9.30849057 43.5519553,9.37563679 C42.9152904,9.51268868 42.8205267,10.1537972 42.8205267,10.1537972 L42.6162788,10.9954245 C42.4985142,11.5335142 42.8048861,11.5095991 42.9428915,11.470967 C43.2179823,11.3845047 43.3670281,11.3017217 43.9337702,11.1757075 C44.4765914,11.0496934 45.0497738,10.9595519 45.5061116,10.9632311 C46.1749778,10.9632311 46.6819176,11.0340566 47.0195708,11.1757075 C47.358144,11.324717 47.5274306,11.5767453 47.5274306,11.9382311 C47.5274306,12.0246934 47.5311107,12.1028774 47.4998295,12.1746226 C47.4722284,12.2408491 47.4170263,12.3079953 47.2597001,12.3273113 C46.3047028,12.3861792 45.616516,12.4726415 44.7903237,12.5912972 C43.9770119,12.709033 43.2649041,12.9049528 42.6714809,13.1762972 C42.034816,13.4595991 41.5591575,13.8367217 41.2325447,14.3159434 C40.9142123,14.7997642 40.753206,15.3820047 40.753206,16.0691038 C40.753206,16.7184906 40.985055,17.2483019 41.4331125,17.6576179 C41.8894504,18.066934 42.4828735,18.266533 43.1986615,18.266533 C43.646719,18.2628538 43.9963327,18.2315802 44.2484225,18.1681132 C44.4959122,18.105566 44.7673228,18.0154245 45.054374,17.8894104 C45.2669023,17.7992689 45.4987514,17.6695755 45.7425609,17.5086085 L46.3709454,17.0873349 C46.308383,17.355 46.3157433,17.3706368 46.3157433,17.3706368 C46.2495007,17.6971698 46.4417882,17.9758726 46.7601206,18.008066 C46.7877217,18.008066 46.7923219,18.0154245 46.7923219,18.0154245 L48.3214216,18.0154245 C48.3370622,18.0154245 48.3370622,18.0108255 48.3444225,18.008066 C48.6710353,17.9639151 48.9856876,17.6971698 49.0602105,17.374316 L50.2792581,12.0872406 C50.3068592,11.9658255 50.3307801,11.8204953 50.3427406,11.6549292 C50.3583812,11.490283 50.3777019,11.3523113 50.3740218,11.2502123 C50.3740218,10.5033255 50.0547693,9.94959906 49.4217846,9.5954717 L49.4217846,9.5954717 Z M46.462029,15.8961792 C46.256861,16.0267925 46.0369724,16.1399292 45.8051233,16.2346698 C45.4987514,16.360684 45.2071,16.4232311 44.9356894,16.4232311 C44.5198331,16.4232311 44.2005806,16.3643632 43.9843722,16.2383491 C43.7681638,16.1206132 43.6540793,15.9127358 43.6577594,15.6137972 C43.6577594,15.2716274 43.7368825,15.0039623 43.901569,14.7960849 C44.0671754,14.595566 44.310985,14.4309198 44.6136768,14.3122642 C44.9163686,14.2101651 45.2862231,14.1237028 45.7149598,14.0648349 C46.0958547,14.0133255 46.8512042,13.9268632 46.9450479,13.9268632 C47.0434917,13.9268632 47.1060541,13.8725943 47.0628125,14.1319811 C47.0471718,14.2414387 46.8272833,15.1373349 46.7288394,15.5466509 C46.6975582,15.6689858 46.5365519,15.8455896 46.462029,15.8961792 L46.462029,15.8961792 Z" id="PayPal"></path>
                </g>
            </g>
        </g>
    </g>
</svg>