<?xml version="1.0" encoding="UTF-8" standalone="no"?>
<svg width="21px" height="18px" viewBox="0 0 21 18" version="1.1" xmlns="http://www.w3.org/2000/svg" xmlns:xlink="http://www.w3.org/1999/xlink">
    <defs></defs>
    <g id="Page-1" stroke="none" stroke-width="1" fill="none" fill-rule="evenodd">
        <g id="Homepage" fill="#A6A6A6">
            <g id="Large-Device-HOMEPAGE-B-Review-Copy-4">
                <g id="Footer-Copy">
                    <g id="ocial">
                        <g id="twitter">
                            <path d="M18.526149,2.8457316 C19.4160944,2.2841254 20.0989611,1.3936155 20.41944,0.3328037 C19.5861948,0.8541095 18.6654341,1.2311137 17.6830428,1.4352159 C16.899102,0.5512061 15.7786582,0 14.5386512,0 C12.1597112,0 10.231907,2.0345226 10.231907,4.5435505 C10.231907,4.8997544 10.2676528,5.2468583 10.3416094,5.578362 C6.762106,5.3885599 3.5881317,3.5815398 1.4618771,0.8307092 C1.0908611,1.5041167 0.8788519,2.2841254 0.8788519,3.1161346 C0.8788519,4.6917521 1.6393731,6.0827676 2.7955626,6.8991767 C2.0892763,6.8757764 1.4248987,6.6690741 0.8431062,6.3310703 L0.8431062,6.386971 C0.8431062,8.5891954 2.3271703,10.4261158 4.3005811,10.8421205 C3.9381933,10.9487217 3.558549,11.0020222 3.1641134,11.0020222 C2.8867758,11.0020222 2.6156013,10.9747219 2.3542877,10.9214213 C2.9015672,12.7258414 4.4928685,14.041456 6.3787639,14.0765564 C4.9033281,15.29597 3.0457827,16.021378 1.0279979,16.021378 C0.6804015,16.021378 0.3365029,16.0018778 0,15.9589773 C1.9068498,17.2472916 4.1711569,18 6.6043317,18 C14.5300229,18 18.8614193,11.0761231 18.8614193,5.0713563 C18.8614193,4.8737542 18.858954,4.677452 18.8503258,4.4837498 C19.6921993,3.8428427 20.4243705,3.0420338 21,2.1307237 C20.2271527,2.4921277 19.3963726,2.7365304 18.526149,2.8457316 L18.526149,2.8457316 Z" id="Shape"></path>
                        </g>
                    </g>
                </g>
            </g>
        </g>
    </g>
</svg>