<?xml version="1.0" encoding="UTF-8" standalone="no"?>
<svg width="44px" height="44px" viewBox="0 0 44 44" version="1.1" xmlns="http://www.w3.org/2000/svg" xmlns:xlink="http://www.w3.org/1999/xlink">
    <defs></defs>
    <g id="Homepage" stroke="none" stroke-width="1" fill="none" fill-rule="evenodd">
        <g id="Large-Device-HOMEPAGE-B-Review-Copy-4" transform="translate(-296.000000, -3472.000000)" fill="#FFFFFF">
            <g id="Footer-Copy" transform="translate(-7.000000, 3423.000000)">
                <g id="Section-Footer-Copy" transform="translate(7.000000, 0.000000)">
                    <g id="Call" transform="translate(259.000000, 49.000000)">
                        <g id="Icon-+-Oval-Copy-3" transform="translate(37.000000, 0.000000)">
                            <path d="M9.70188503,16.0066144 C9.60638884,15.3353076 9.3826923,14.2369218 11.0152846,12.6462444 C12.9212838,10.7832082 13.9220315,10.5914062 14.9737977,11.6194647 C16.0190231,12.6462444 17.6071377,15.1920955 18.0205184,15.8864186 C18.4286665,16.5807416 18.2939253,17.1714916 17.9420284,17.6676193 C17.5835907,18.171419 17.1322731,18.7442675 16.7345904,19.2800343 C16.3382158,19.815801 16.1694623,20.4819931 16.6390942,21.1980537 C17.1034934,21.9141143 17.9694999,23.1275813 19.373163,24.4983258 C20.7768261,25.870349 22.0169684,26.716835 22.7495418,27.1758809 C23.4821153,27.6298122 24.1636703,27.4661412 24.7117922,27.0774226 C25.2599141,26.6899827 25.8472811,26.2475595 26.3613907,25.8972013 C26.8702676,25.5532365 27.4733326,25.4215325 28.1836672,25.8204805 C28.8940018,26.225822 31.4985622,27.7768604 32.5503284,28.7998041 C33.5955537,29.8265838 33.4045614,30.8098884 31.4985622,32.6729246 C29.8725107,34.2584874 28.7487953,34.0500626 28.0606995,33.9516043 C27.3791446,33.8544246 22.4538961,32.2420096 16.9530542,26.8651618 C11.457445,21.4870353 9.80261388,16.6740852 9.70188503,16.0066144 Z" id="Icon"></path>
                            <path d="M2,22 L2,22 C2,33.045695 10.954305,42 22,42 C33.045695,42 42,33.045695 42,22 C42,10.954305 33.045695,2 22,2 C10.954305,2 2,10.954305 2,22 L2,22 Z M0,22 C0,9.8497355 9.8497355,0 22,0 C34.1502645,0 44,9.8497355 44,22 C44,34.1502645 34.1502645,44 22,44 C9.8497355,44 0,34.1502645 0,22 L0,22 Z" id="Shape"></path>
                        </g>
                    </g>
                </g>
            </g>
        </g>
    </g>
</svg>