<?xml version="1.0" encoding="UTF-8" standalone="no"?>
<svg width="20px" height="20px" viewBox="0 0 20 20" version="1.1" xmlns="http://www.w3.org/2000/svg" xmlns:xlink="http://www.w3.org/1999/xlink">
    <defs></defs>
    <g id="Homepage" stroke="none" stroke-width="1" fill="none" fill-rule="evenodd">
        <g id="Medium-Device-Desktops-MENU" transform="translate(-1119.000000, -173.000000)" stroke="#FFFFFF" stroke-width="2" fill="#FFFFFF">
            <g id="Section-Menu-Copy" transform="translate(-53.000000, 60.000000)">
                <g id="CLOSE" transform="translate(1173.000000, 114.000000)">
                    <path d="M9.77135322,8.73824815 L17.5950348,16.4300275 C17.8386921,16.6708245 17.8386921,17.0588445 17.5950348,17.2983939 C17.3513776,17.5391908 16.9554346,17.5391908 16.7117774,17.2983939 L8.88936478,9.60661448 L1.06568315,17.2983939 C0.822025916,17.5391908 0.426082905,17.5391908 0.183694715,17.2983939 C-0.0612315715,17.0588445 -0.0612315715,16.6708245 0.183694715,16.4300275 L8.00737634,8.73824815 L0.183694715,1.04896407 C-0.0612315715,0.80941474 -0.0612315715,0.420147073 0.183694715,0.18059774 C0.426082905,-0.0601992465 0.822025916,-0.0601992465 1.06568315,0.18059774 L8.88936478,7.87112946 L16.7117774,0.18059774 C16.9554346,-0.0601992465 17.3513776,-0.0601992465 17.5950348,0.18059774 C17.8386921,0.420147073 17.8386921,0.80941474 17.5950348,1.04896407 L9.77135322,8.73824815" id="Imported-Layers-Copy-2"></path>
                </g>
            </g>
        </g>
    </g>
</svg>