<?xml version="1.0" encoding="UTF-8" standalone="no"?>
<svg width="44px" height="44px" viewBox="0 0 44 44" version="1.1" xmlns="http://www.w3.org/2000/svg" xmlns:xlink="http://www.w3.org/1999/xlink">
    <defs></defs>
    <g id="Homepage" stroke="none" stroke-width="1" fill="none" fill-rule="evenodd">
        <g id="Large-Device-HOMEPAGE-B-Review-Copy-4" transform="translate(-534.000000, -3472.000000)" fill="#FFFFFF">
            <g id="Footer-Copy" transform="translate(-7.000000, 3423.000000)">
                <g id="Section-Footer-Copy" transform="translate(7.000000, 0.000000)">
                    <g id="Mail" transform="translate(499.000000, 49.000000)">
                        <g id="Icon-+-Oval-Copy-2" transform="translate(35.000000, 0.000000)">
                            <path d="M34.2221935,28.251455 C34.2221935,29.0359387 33.44913,29.6896752 32.5868669,29.6896752 L10.0788261,29.6896752 C9.216563,29.6896752 8.44349951,29.0359387 8.44349951,28.251455 L8.44349951,15.4905191 C8.44349951,14.7321848 9.15709657,14.1045978 10.0193597,14.0784484 L10.0490929,14 L32.5571337,14 L32.5868669,14.0784484 L32.9733986,14.0784484 L32.5868669,14.0784484 C33.4788632,14.0784484 34.2221935,14.7060354 34.2221935,15.4905191 L34.2221935,28.251455 Z M32.2300683,26.2117972 L32.2300683,17.477878 L25.7184951,21.8448376 L32.2300683,26.2117972 Z M32.2300683,15.7520137 L10.4356246,15.7520137 C14.0630764,18.1577639 17.6905281,20.5635141 21.3179799,22.9954138 C24.9454316,20.5635141 28.5728834,18.1577639 32.2300683,15.7520137 L32.2300683,15.7520137 Z M32.2300683,27.9376615 L24.3805006,22.7339192 L22.2991759,24.14599 L20.3070507,24.14599 L18.2554592,22.7600687 L10.4356246,27.9376615 L32.2300683,27.9376615 Z M16.9174647,21.8448376 L10.4356246,17.477878 L10.4356246,26.2117972 L16.9174647,21.8448376 Z" id="Icon"></path>
                            <path d="M22,42 L22,42 C33.045695,42 42,33.045695 42,22 C42,10.954305 33.045695,2 22,2 C10.954305,2 2,10.954305 2,22 C2,33.045695 10.954305,42 22,42 L22,42 Z M22,44 L22,44 C9.8497355,44 0,34.1502645 0,22 C0,9.8497355 9.8497355,0 22,0 C34.1502645,0 44,9.8497355 44,22 C44,34.1502645 34.1502645,44 22,44 L22,44 Z" id="Shape"></path>
                        </g>
                    </g>
                </g>
            </g>
        </g>
    </g>
</svg>