<?xml version="1.0" encoding="UTF-8" standalone="no"?>
<svg width="20px" height="20px" viewBox="0 0 20 20" version="1.1" xmlns="http://www.w3.org/2000/svg" xmlns:xlink="http://www.w3.org/1999/xlink">
    <defs></defs>
    <g id="Page-1" stroke="none" stroke-width="1" fill="none" fill-rule="evenodd">
        <g id="Homepage" fill="#A6A6A6">
            <g id="Large-Device-HOMEPAGE-B-Review-Copy-4">
                <g id="Footer-Copy">
                    <g id="ocial">
                        <g id="instagram">
                            <path d="M16.1347601,0 L3.8652399,0 C1.7344779,0 0,1.733302 0,3.8652399 L0,16.1347601 C0,18.266698 1.7344779,20 3.8652399,20 L16.1347601,20 C18.2655221,20 20,18.266698 20,16.1347601 L20,3.8652399 C20,1.733302 18.2655221,0 16.1347601,0 L16.1347601,0 L16.1347601,0 Z M17.24365,2.3059737 L17.6857949,2.3036218 L17.6857949,5.6937912 L14.3062088,5.7043744 L14.2944497,2.3142051 L17.24365,2.3059737 L17.24365,2.3059737 L17.24365,2.3059737 Z M7.1460489,7.9468485 C7.7857479,7.060207 8.8252587,6.4793039 10,6.4793039 C11.1747413,6.4793039 12.2142521,7.060207 12.8539511,7.9468485 C13.2714017,8.5253998 13.5206961,9.233302 13.5206961,10 C13.5206961,11.9402634 11.9414393,13.5195202 10,13.5195202 C8.0597366,13.5195202 6.4804798,11.9402634 6.4804798,10 C6.4804798,9.233302 6.7297742,8.5253998 7.1460489,7.9468485 L7.1460489,7.9468485 L7.1460489,7.9468485 Z M18.0515052,16.1347601 C18.0515052,17.1919097 17.1919097,18.0515052 16.1347601,18.0515052 L3.8652399,18.0515052 C2.8080903,18.0515052 1.9484948,17.1919097 1.9484948,16.1347601 L1.9484948,7.9468485 L4.9353246,7.9468485 C4.6766228,8.5818438 4.5319849,9.2744591 4.5319849,10 C4.5319849,13.0150517 6.9849483,15.469191 10,15.469191 C13.0162277,15.469191 15.469191,13.0150517 15.469191,10 C15.469191,9.2744591 15.3222013,8.5818438 15.0658514,7.9468485 L18.0515052,7.9468485 L18.0515052,16.1347601 L18.0515052,16.1347601 L18.0515052,16.1347601 Z" id="Shape"></path>
                        </g>
                    </g>
                </g>
            </g>
        </g>
    </g>
</svg>