<?xml version="1.0" encoding="UTF-8" standalone="no"?>
<svg width="48px" height="28px" viewBox="0 0 48 28" version="1.1" xmlns="http://www.w3.org/2000/svg" xmlns:xlink="http://www.w3.org/1999/xlink">
    <defs></defs>
    <g id="Homepage" stroke="none" stroke-width="1" fill="none" fill-rule="evenodd">
        <g id="Large-Device-HOMEPAGE-B" transform="translate(-940.000000, -4479.000000)" fill="#FFFFFF">
            <g id="Section-Footer-Copy" transform="translate(0.000000, 4382.000000)">
                <g id="Paying-Systems" transform="translate(788.130734, 97.000000)">
                    <g id="MasterCard" transform="translate(151.805930, 0.000000)">
                        <path d="M23.3504137,13.9405139 L21.5823113,13.9405139 L21.5963824,13.8714059 L21.6158262,13.7744594 L21.644736,13.6823969 L21.6785067,13.5900902 L21.7219993,13.5070629 L21.7654919,13.4286755 L21.8187064,13.3549278 L21.8767818,13.2858198 L21.9394624,13.2211074 L22.0023987,13.1659188 L22.0748011,13.1151256 L22.1472035,13.073612 L22.2293278,13.0367382 L22.3114521,13.0088996 L22.3938322,12.9905848 L22.4805616,12.9766656 L22.5724077,12.9720258 L22.6593929,12.9813053 L22.7415172,12.9952246 L22.8187806,13.0135394 L22.8962997,13.0413779 L22.9687021,13.0782518 L23.0411045,13.1197654 L23.1040409,13.1659188 L23.1618605,13.2211074 L23.210214,13.2858198 L23.2585676,13.3549278 L23.2923383,13.4333152 L23.3263649,13.5209822 L23.3455528,13.6130447 L23.3552747,13.714631 L23.3601356,13.8252525 L23.3504137,13.9405139" id="Fill-1"></path>
                        <path d="M42.7939121,15.7395183 L42.9292508,15.7302388 L43.0548677,15.7026444 L43.1707627,15.6701661 L43.2820526,15.6196172 L43.3833648,15.5641843 L43.4800719,15.4950764 L43.5719181,15.4166889 L43.6540423,15.3336617 L43.7264447,15.241355 L43.7939862,15.1397687 L43.8569226,15.0337869 L43.9101371,14.9231654 L43.9584906,14.8079041 L43.9971223,14.688003 L44.030893,14.5634622 L44.0549419,14.4389214 L44.0792466,14.3097408 L44.0935735,14.1759204 L44.0935735,14.0513796 L44.0887126,13.9224432 L44.0743856,13.802298 L44.0549419,13.6872808 L44.0211711,13.5764151 L43.9825395,13.4704333 L43.9341859,13.3781266 L43.8763663,13.2904596 L43.81343,13.2167119 L43.7410276,13.1522437 L43.6589033,13.0968108 L43.5719181,13.059937 L43.4800719,13.0369824 L43.3785039,13.0277029 L43.2480261,13.0369824 L43.127526,13.0552972 L43.016236,13.0921711 L42.9049461,13.1383244 L42.8084949,13.1983971 L42.7117878,13.2721448 L42.6296635,13.3505322 L42.5475392,13.4381992 L42.474881,13.5395412 L42.4073395,13.645523 L42.344659,13.7563888 L42.2914445,13.8762899 L42.243091,14.0008307 L42.2044593,14.1253715 L42.1658276,14.2589477 L42.1369178,14.392768 L42.1126132,14.5956963 L42.122335,14.8171836 L42.1561058,15.0430665 L42.2190421,15.259914 L42.3157492,15.448923 L42.4411103,15.6010582 L42.6007537,15.7026444 L42.7939121,15.7395183" id="Fill-2"></path>
                        <path d="M11.7013024,14.6279304 L11.6964415,14.6049758 L11.6772536,14.581777 L11.6480879,14.5681019 L11.5999902,14.5588224 L11.5467758,14.5495429 L11.4838394,14.5449032 L11.3390346,14.5449032 L11.2617712,14.5495429 L11.1793911,14.5588224 L11.1021278,14.5681019 L11.0248645,14.5773814 L10.9524621,14.5864168 L10.8846648,14.600336 L10.8268452,14.6142553 L10.7736307,14.6279304 L10.73986,14.6372099 L10.7012283,14.6511292 L10.6480138,14.669444 L10.5947993,14.6926428 L10.5321188,14.7202371 L10.4691824,14.7524712 L10.401641,14.7847053 L10.3387046,14.8218233 L10.2711631,14.8677325 L10.2082268,14.9138859 L10.1504072,14.9693188 L10.0971927,15.0245074 L10.0488392,15.0845801 L10.0150684,15.1490483 L9.98615864,15.222796 L9.97157582,15.2967879 L9.96671489,15.4535628 L9.99076374,15.5781036 L10.0391173,15.6701661 L10.1020536,15.7395183 L10.174456,15.7856716 L10.2568362,15.813266 L10.3338437,15.8271853 L10.4113628,15.8315808 L10.5561676,15.8271853 L10.6866455,15.813266 L10.8125182,15.794707 L10.9232964,15.7671126 L11.0200035,15.7348785 L11.1118497,15.6933649 L11.1939739,15.6518513 L11.2663763,15.6010582 L11.3293127,15.555149 L11.3871323,15.4997161 L11.4357417,15.448923 L11.4743734,15.3934901 L11.5081441,15.3383015 L11.5370539,15.2828686 L11.5611027,15.2320755 L11.5756855,15.1815265 L11.6143172,15.0477062 L11.6480879,14.895571 L11.6772536,14.7478314 L11.7013024,14.6279304" id="Fill-3"></path>
                        <path d="M35.6769864,14.6279304 L35.6672645,14.600336 L35.6478207,14.5773814 L35.61405,14.5634622 L35.5656965,14.5495429 L35.512482,14.5449032 L35.4498014,14.5405076 L35.377399,14.5405076 L35.3047408,14.5449032 L35.2274775,14.5541827 L35.1502141,14.5634622 L35.0729508,14.5724975 L35.0002925,14.581777 L34.9278901,14.5956963 L34.8652096,14.6049758 L34.8022733,14.6186509 L34.7539197,14.6279304 L34.720149,14.6325701 L34.6815173,14.6464894 L34.6331638,14.6601645 L34.5802051,14.6787235 L34.5172688,14.7063178 L34.4591933,14.7341564 L34.3916519,14.7663905 L34.266035,14.8494177 L34.2030986,14.9002108 L34.15014,14.9507597 L34.0969255,15.0108324 L34.0534329,15.0753006 L34.0194063,15.1446527 L33.9904965,15.2184004 L33.9761695,15.2967879 L33.9713086,15.4535628 L33.9953575,15.5781036 L34.0339891,15.6701661 L34.0920646,15.7395183 L34.164467,15.7856716 L34.2465912,15.813266 L34.3287155,15.8271853 L34.4108398,15.8315808 L34.5559004,15.8271853 L34.6912392,15.813266 L34.8168561,15.7900672 L34.9278901,15.7578331 L35.0343191,15.7209593 L35.1261653,15.6794457 L35.2128946,15.6332923 L35.2904138,15.5781036 L35.3579553,15.5273105 L35.4160307,15.4674821 L35.4689894,15.4120492 L35.512482,15.3519765 L35.5465085,15.2967879 L35.5705574,15.241355 L35.5900011,15.1859221 L35.6043281,15.1353732 L35.6237719,15.0061926 L35.6478207,14.8723723 L35.6672645,14.7431917 L35.6769864,14.6279304" id="Fill-4"></path>
                        <path d="M24.6470051,16.9785774 L25.6115177,11.9835135 L26.8270081,11.9835135 L26.9544159,12.4736183 C27.1736698,12.228688 27.5881288,11.9835135 28.29757,11.9835135 L27.9347905,13.3016927 C27.5881288,13.3016927 26.9185985,13.1971761 26.5000461,14.6919102 L26.0658875,16.9785774 L24.6470051,16.9785774 L24.6470051,16.9785774 Z M33.4708878,12.0721573 C34.3954895,11.895114 34.8856767,11.911231 35.3200911,11.895114 C37.6993926,11.895114 37.4642767,13.546623 37.3207511,14.2337953 L36.7548355,16.9785774 L35.4316369,16.9785774 L35.2484563,16.6972616 C34.9931291,16.8701536 34.7938306,16.9585532 34.0687832,16.9946944 C33.3432242,17.0305915 32.4145291,16.5045897 32.5780101,15.4638191 C32.9804447,13.353951 35.5193896,13.7436905 35.8860067,13.7075493 C36.0494878,12.9520016 35.5032718,13.0206211 35.0130845,13.0045041 C34.5228972,12.9842357 33.5982955,13.1248936 33.2516339,13.1607906 L33.4708878,12.0721573 L33.4708878,12.0721573 Z M44.5305463,12.5100038 L44.9091878,10.5769348 L46.3997051,10.5769348 L45.1640034,16.9785774 L43.6379245,16.9785774 L43.4583256,16.5727208 C43.1674368,16.765637 42.6931115,16.9585532 42.2228797,16.9785774 C41.2066877,16.9785774 40.2738992,15.5883599 40.7323624,14.0572404 C41.4218482,11.7705731 42.6414321,11.911231 43.4225082,11.911231 C44.0920385,11.911231 44.2555195,12.3173318 44.5305463,12.5100038 L44.5305463,12.5100038 Z M9.49801808,12.0721573 C10.4226198,11.895114 10.912807,11.911231 11.3513149,11.895114 C13.7306164,11.895114 13.4955004,13.546623 13.3478814,14.2337953 L12.7860592,16.9785774 L11.4587672,16.9785774 L11.27968,16.6972616 C11.0243528,16.8701536 10.8250543,16.9585532 10.0959135,16.9946944 C9.37035448,17.0305915 8.4457528,16.5045897 8.60923384,15.4638191 C9.0078308,13.353951 11.5506133,13.7436905 11.913137,13.7075493 C12.0768739,12.9520016 11.5304021,13.0206211 11.0404706,13.0045041 C10.5502834,12.9842357 9.62568167,13.1248936 9.27902,13.1607906 L9.49801808,12.0721573 L9.49801808,12.0721573 Z M24.6070943,14.7282956 L21.5183516,14.7282956 C21.3548705,15.8694315 22.2636102,15.8335344 22.8254324,15.8335344 C23.3916038,15.8335344 24.2084973,15.7649148 24.4277512,15.7126565 L24.2084973,16.74952 C23.8618356,16.9263191 22.992751,16.9946944 22.391018,16.9785774 C19.9400816,16.9785774 19.975899,14.7444127 20.0316719,14.4269557 C20.0833514,14.1092545 20.374496,11.911231 22.6660448,11.911231 C25.1530544,11.911231 24.7705753,13.9165825 24.6070943,14.7282956 L24.6070943,14.7282956 Z M32.4506024,12.3012147 C32.0878228,12.0882743 31.8365891,12.0518889 31.3622638,12.0518889 C30.892032,12.0518889 29.8359291,12.4899795 29.6366306,13.7236663 C29.4015147,15.1822591 30.4376621,15.9055727 31.8885244,15.431585 L32.3070768,16.6608762 C31.8365891,16.8701536 31.3622638,16.9785774 30.5811877,16.9785774 C29.1106259,16.9785774 27.5124005,15.7126565 28.2377037,13.1449178 C28.7757328,11.2521414 30.45378,10.5571548 31.4341545,10.593296 C32.5979656,10.6335887 33.0165179,11.0152697 33.3790416,11.401102 L32.4506024,12.3012147 L32.4506024,12.3012147 Z M7.93561009,16.9785774 L6.46504826,16.9785774 L7.30215305,12.6868029 L5.32119267,16.9785774 L3.9780386,16.9785774 L3.59555949,12.5822863 L2.72263726,16.9785774 L1.30784831,16.9785774 L2.52333878,10.8907288 L4.79518795,10.8907288 L5.06612132,14.5876378 L6.79201034,10.8907288 L9.11528312,10.8907288 L7.93561009,16.9785774 L7.93561009,16.9785774 Z M17.1261098,13.1087765 C16.7236753,13.0045041 16.054145,13.0045041 15.7274387,13.0367382 C15.201434,13.1769077 15.4165945,13.655291 15.7074833,13.7756804 C15.9983721,13.9004654 16.4527419,14.1456399 16.7236753,14.3221949 C16.9987021,14.4789698 17.3295017,14.8166952 17.2138626,15.5519745 C16.9787467,17.066977 15.2927685,16.9785774 14.9461068,16.9785774 C14.4561754,16.9785774 13.9299148,16.9785774 13.2762465,16.8015341 L13.475545,15.7649148 C14.1849862,15.9939723 15.1295433,15.8853043 15.3447038,15.8853043 C15.8190291,15.8853043 15.8868264,15.3068 15.5281403,15.130245 C15.2372515,14.9895872 14.9261514,14.7803097 14.3842847,14.5512523 C14.045554,14.4108386 13.6947989,14.0250063 13.8938416,13.0929037 C14.1530063,11.8748456 15.8551023,11.895114 16.054145,11.895114 C16.2534435,11.895114 16.7794482,11.8430998 17.4530719,12.0882743 L17.1261098,13.1087765 L17.1261098,13.1087765 Z M18.4695198,10.6455543 L19.8843087,10.6455543 L19.5931641,11.9835135 L20.3583781,11.9835135 L20.1033068,13.0726352 L19.3780036,13.0726352 L18.975569,15.114128 C18.9036783,15.4997161 18.9397516,15.8533144 19.7607385,15.7285294 L19.6691482,16.74952 C19.358304,16.9421919 18.9397516,16.9946944 18.6127895,16.9946944 C18.2860833,16.9946944 17.2138626,16.8015341 17.4888894,15.431585 L18.4695198,10.6455543 L18.4695198,10.6455543 Z M37.3048891,16.9746702 L38.2773326,11.9273481 L39.5086851,11.9273481 L39.6363487,12.4255114 C39.8553468,12.1766739 40.2779926,11.9273481 40.9915272,11.9273481 L40.6087923,13.2413759 C40.2580372,13.2413759 39.6005313,13.1529763 39.1778855,14.6638274 L38.7355401,16.9746702 L37.3048891,16.9746702 L37.3048891,16.9746702 Z M47.6553623,13.7798318 C47.6553623,6.24950743 41.3502133,0.145297629 33.5742467,0.145297629 C30.2025462,0.145297629 27.1299214,1.28643346 24.7066156,3.20338537 C26.5558189,4.93499123 27.9667703,7.10126899 28.7240534,9.5486183 L27.5564048,9.5486183 C26.8229147,7.37037485 25.5355335,5.44975998 23.8618356,3.9105819 C22.1958129,5.44560862 20.9204561,7.37452621 20.1910595,9.54031558 L19.0193175,9.54031558 C19.7766005,7.10542035 21.1635031,4.93914259 22.9968444,3.21535106 C20.577632,1.31866756 17.5249626,0.145297629 14.1691242,0.145297629 C6.39341338,0.145297629 0.0882644104,6.24950743 0.0882644104,13.7798318 C0.0882644104,21.3104003 6.39341338,27.4143659 14.1691242,27.4143659 C17.5249626,27.4143659 20.577632,26.240996 22.9968444,24.3443125 C21.1635031,22.620521 19.7766005,20.4505802 19.0193175,18.0195922 L20.1910595,18.0195922 C20.9204561,20.1853815 22.1958129,22.1101478 23.8618356,23.6490816 C25.5355335,22.1059964 26.8229147,20.1895329 27.5564048,18.0112894 L28.7240534,18.0112894 C27.9667703,20.4586388 26.5558189,22.6244281 24.7066156,24.352371 C27.1299214,26.2693229 30.2025462,27.4143659 33.5742467,27.4143659 C41.3502133,27.4143659 47.6553623,21.3104003 47.6553623,13.7798318 L47.6553623,13.7798318 Z" id="Fill-5"></path>
                    </g>
                </g>
            </g>
        </g>
    </g>
</svg>