<?xml version="1.0" encoding="UTF-8" standalone="no"?>
<svg width="46px" height="15px" viewBox="0 0 46 15" version="1.1" xmlns="http://www.w3.org/2000/svg" xmlns:xlink="http://www.w3.org/1999/xlink">
    <defs></defs>
    <g id="Homepage" stroke="none" stroke-width="1" fill="none" fill-rule="evenodd">
        <g id="Large-Device-HOMEPAGE-B" transform="translate(-871.000000, -4485.000000)" fill="#FFFFFF">
            <g id="Section-Footer-Copy" transform="translate(0.000000, 4382.000000)">
                <g id="Paying-Systems" transform="translate(788.130734, 97.000000)">
                    <path d="M96.5448913,6.67875 L92.9714717,15.795 L92.5896568,13.9425 L91.3117269,7.79908019 C91.0918383,6.95377358 90.4505732,6.70266509 89.6565822,6.67139151 L83.7711123,6.67139151 L83.7232704,6.95009434 C85.1585265,7.2959434 86.4364564,7.79540094 87.5570602,8.41627358 L90.8047871,20.0279717 L94.6652579,20.0196934 L100.409962,6.67875 L96.5448913,6.67875 L96.5448913,6.67875 Z M125.852636,6.68242925 L123.033646,6.68242925 C122.160532,6.68242925 121.503626,6.9225 121.122731,7.7917217 L115.70096,20.0436085 L119.533829,20.0436085 L120.301139,18.0347406 L124.975842,18.0384198 C125.085326,18.5066038 125.420219,20.0436085 125.420219,20.0436085 L128.805031,20.0436085 L125.852636,6.68242925 L125.852636,6.68242925 Z M121.3509,15.2992217 L122.805477,11.5611085 C122.785236,11.5960613 123.104489,10.7903066 123.288496,10.2871698 L123.536906,11.4387736 L124.381499,15.2992217 L121.3509,15.2992217 L121.3509,15.2992217 Z M116.494951,7.00160377 C115.770882,6.73025943 114.635558,6.43867925 113.223303,6.43867925 C109.614002,6.43867925 107.074703,8.25070755 107.054462,10.8491745 C107.035141,12.7715802 108.866933,13.8404009 110.250667,14.4815094 C111.670282,15.1382547 112.150541,15.5549292 112.142261,16.1399292 C112.13398,17.0367453 111.009696,17.4451415 109.959935,17.4451415 C108.497998,17.4451415 107.723328,17.2409434 106.523601,16.7414858 L106.052543,16.5290094 L105.541003,19.5202358 C106.393876,19.8936792 107.970818,20.2202123 109.606642,20.2367689 C113.444111,20.2367689 115.932809,18.4431368 115.96409,15.6689858 C115.97605,14.1476179 115.004492,12.9914151 112.89761,12.0366509 C111.62336,11.4194575 110.84133,11.0064623 110.84869,10.3819104 C110.84869,9.82358491 111.509276,9.2303066 112.940852,9.2303066 C114.131378,9.21007075 114.997132,9.47313679 115.673358,9.74080189 L115.999051,9.89808962 L116.494951,7.00160377 L116.494951,7.00160377 Z M99.6076909,20.0353302 L103.256553,20.0353302 L105.537323,6.67139151 L101.88846,6.67139151 L99.6076909,20.0353302 L99.6076909,20.0353302 Z" id="Visa"></path>
                </g>
            </g>
        </g>
    </g>
</svg>