<?xml version="1.0" encoding="UTF-8" standalone="no"?>
<svg width="20px" height="20px" viewBox="0 0 20 20" version="1.1" xmlns="http://www.w3.org/2000/svg" xmlns:xlink="http://www.w3.org/1999/xlink">
    <defs></defs>
    <g id="Page-1" stroke="none" stroke-width="1" fill="none" fill-rule="evenodd">
        <path d="M10.0702831,10.4513405 L17.8939648,18.1431199 C17.7393571,17.9903318 17.7393571,17.7373026 17.8939648,17.5853015 C18.0380051,17.4429472 18.2688071,17.4429472 18.4146971,17.5871247 L10.5904927,9.89357897 L9.88942165,9.2042157 L9.18829469,9.89352211 L1.36461306,17.5853015 C1.50896335,17.442641 1.74118082,17.442641 1.88846906,17.5889623 C2.03872076,17.7358729 2.03872076,17.9917595 1.88476481,18.1431199 L9.70844643,10.4513405 L10.4338849,9.73813245 L9.70833075,9.02504207 L1.88464913,1.33575799 C2.0390298,1.48674535 2.0390298,1.74281647 1.88291061,1.89550832 C1.74118082,2.03635063 1.50896335,2.03635063 1.36276343,1.89186693 L9.18835252,9.58427869 L9.88942164,10.2734164 L10.5904349,9.58422183 L18.4128475,1.89369011 C18.2688071,2.03604436 18.0380051,2.03604436 17.8921151,1.89186693 C17.7390488,1.74138592 17.7390488,1.48817589 17.8939648,1.3358717 L10.0703988,9.02504207 L11.4723076,10.4514542 L19.2959893,2.76217015 C19.9383354,2.13065359 19.9383354,1.09890823 19.2961049,0.46750537 C18.6647501,-0.156442849 17.6420621,-0.156442849 17.0088576,0.469328547 L9.18829469,8.15803709 L10.590377,8.15798024 L2.76669541,0.467448517 C2.13508849,-0.156749123 1.11098499,-0.156749123 0.478920367,0.471166193 C-0.16149294,1.09747768 -0.16149294,2.13208413 0.48447882,2.76387465 L8.30642193,10.4514542 L8.30630625,9.02515578 L0.482624624,16.7169352 C-0.161183907,17.3498895 -0.161183907,18.3818162 0.48447882,19.0133044 C1.11098499,19.6357407 2.13508849,19.6357407 2.76860288,19.009663 L10.5904349,11.3197068 L9.18823686,11.31965 L17.0106494,19.0114294 C17.6420621,19.6354344 18.6647501,19.6354344 19.2979546,19.009663 C19.9380271,18.3803864 19.9380271,17.3513172 19.2979546,16.7187583 L11.4724233,9.02515578 L10.0702831,10.4513405 L10.0702831,10.4513405 Z" id="Shape" fill="#57362B"></path>
    </g>
</svg>