<?xml version="1.0" encoding="UTF-8" standalone="no"?>
<svg width="51px" height="52px" viewBox="0 0 51 52" version="1.1" xmlns="http://www.w3.org/2000/svg" xmlns:xlink="http://www.w3.org/1999/xlink">
    <defs></defs>
    <g id="Page-1" stroke="none" stroke-width="1" fill="none" fill-rule="evenodd">
        <g id="Background-+-Google+-Icon" transform="translate(0.333333, 0.689024)" fill="#FFFFFF">
            <path d="M25.3333333,50.6542968 C39.3245469,50.6542968 50.6666666,39.3149462 50.6666666,25.3271484 C50.6666666,11.3393506 39.3245469,0 25.3333333,0 C11.3421197,0 0,11.3393506 0,25.3271484 C0,39.3149462 11.3421197,50.6542968 25.3333333,50.6542968 Z M24.3078231,14.6630859 C25.3418367,14.6630859 26.3758503,14.6934247 27.377551,14.6934247 C27.6360544,14.6934247 27.9591837,14.6934247 27.9591837,15.0271507 C27.9591837,15.9979899 26.3112245,15.9979899 25.6003401,16.0890061 C26.6666667,16.7867968 27.0221088,18.1520395 27.0221088,19.3352499 C27.0221088,23.0669133 23.8877551,23.5523329 23.8877551,24.6445271 C23.8877551,25.6457051 27.9591837,27.1323027 27.9591837,30.5605788 C27.9591837,34.3832584 24.1785714,35.9912109 20.6241497,35.9912109 C17.5544218,35.9912109 14,34.7473231 14,31.3797245 C14,27.7997547 18.2006803,26.7985767 21.3027211,26.7985767 C20.914966,25.7973987 20.5595238,26.8592541 20.5595238,24.7962207 C17.457483,24.7962207 15.2602041,23.097252 15.2602041,20.093718 C15.2602041,17.6362812 16.9404762,15.8462963 19.3639456,15.1181668 C20.7534014,14.6934247 22.8537415,14.6630859 24.3078231,14.6630859 Z M36.1020408,20.1543955 L36.1020408,23.1882682 L33.9370748,23.1882682 L33.9370748,20.1543955 L30.7057823,20.1543955 L30.7057823,18.1520395 L33.9370748,18.1520395 L33.9370748,15.1181668 L36.1020408,15.1181668 L36.1020408,18.1520395 L39.3333333,18.1520395 L39.3333333,20.1543955 L36.1020408,20.1543955 Z M21.0765306,33.6247902 C22.8537415,33.6247902 25.3741497,32.5932735 25.3741497,30.651595 C25.3741497,28.7402552 23.079932,27.9211096 21.3673469,27.9211096 C19.4931973,27.9211096 17.0697279,28.7402552 17.0697279,30.8336274 C17.0697279,32.7753059 19.3316327,33.6247902 21.0765306,33.6247902 L21.0765306,33.6247902 L21.0765306,33.6247902 L21.0765306,33.6247902 Z M21.5289116,22.763526 C23.079932,22.763526 23.5969388,21.428622 23.5969388,20.1847342 C23.5969388,18.6071204 22.5952381,16.0283286 20.5595238,16.0283286 C19.0408163,16.0283286 18.4914966,17.3935714 18.4914966,18.6071204 C18.4914966,20.1847342 19.4931973,22.763526 21.5289116,22.763526 L21.5289116,22.763526 L21.5289116,22.763526 L21.5289116,22.763526 Z" id="Background"></path>
        </g>
    </g>
</svg>