<?xml version="1.0" encoding="UTF-8" standalone="no"?>
<svg width="19px" height="24px" viewBox="0 0 19 24" version="1.1" xmlns="http://www.w3.org/2000/svg" xmlns:xlink="http://www.w3.org/1999/xlink">
    <defs></defs>
    <g id="Homepage" stroke="none" stroke-width="1" fill="none" fill-rule="evenodd">
        <g id="Large-Device-HOMEPAGE-B" transform="translate(-929.000000, -4905.000000)" fill="#FFFFFF">
            <g id="Section-Footer-Copy" transform="translate(0.000000, 4382.000000)">
                <g id="Find-Us" transform="translate(878.130734, 523.712565)">
                    <path d="M60.7226826,0 C55.6692338,0 51.5655142,3.98308702 51.5655142,8.89065942 C51.5655142,15.6714975 58.9788961,23.0162332 60.7566949,23.0162332 C62.5279529,23.0162332 69.879851,15.6714975 69.879851,8.89065942 C69.879851,3.98308702 65.7826722,0 60.7226826,0 L60.7226826,0 Z M60.7226826,13.0156799 C58.3967618,13.0156799 56.5130014,11.1858893 56.5130014,8.92390509 C56.5130014,6.66703555 58.3967618,4.83596633 60.7226826,4.83596633 C63.0486033,4.83596633 64.9323637,6.66703555 64.9323637,8.92390509 C64.9323637,11.1858893 63.0486033,13.0156799 60.7226826,13.0156799 L60.7226826,13.0156799 Z" id="Icon"></path>
                </g>
            </g>
        </g>
    </g>
</svg>