<?xml version="1.0" encoding="UTF-8" standalone="no"?>
<svg width="20px" height="21px" viewBox="0 0 20 21" version="1.1" xmlns="http://www.w3.org/2000/svg" xmlns:xlink="http://www.w3.org/1999/xlink">
    <defs></defs>
    <g id="Homepage" stroke="none" stroke-width="1" fill="none" fill-rule="evenodd">
        <g id="Large-Device-HOMEPAGE-B" transform="translate(-989.000000, -66.000000)" fill="#5B352A">
            <g id="Section-Topbar">
                <g id="LOGIN-+-Icon" transform="translate(989.000000, 66.000000)">
                    <path d="M20,17.8835201 C20,16.5309849 17.9635584,15.7795765 16.9346195,15.3716691 C16.3129689,15.1140434 15.6698821,14.8564176 15.0482315,14.5773231 C14.2122186,14.1908845 13.3547696,13.7400394 12.733119,13.0315687 C12.5187567,12.7739429 12.3901393,12.6021924 12.3901393,12.2586914 C12.3901393,11.7649088 12.5187567,11.2711261 12.6259378,10.7988122 C12.7974277,10.0688726 13.1618435,9.46774592 13.4619507,8.78074395 C13.8049303,7.92199149 13.9335477,7.0203014 14.1050375,6.14008012 C14.1693462,5.75364151 14.2765273,5.38867172 14.2765273,5.00223311 C14.2765273,2.34010047 12.8831726,0 9.98928189,0 C7.09539121,0 5.70203644,2.34010047 5.70203644,5.00223311 C5.70203644,5.38867172 5.8306538,5.75364151 5.89496249,6.14008012 C6.08788853,7.0203014 6.19506967,7.92199149 6.55948553,8.78074395 C6.85959271,9.46774592 7.2454448,10.0688726 7.39549839,10.7988122 C7.52411576,11.2711261 7.63129689,11.7649088 7.63129689,12.2586914 C7.63129689,12.6021924 7.50267953,12.7739429 7.28831726,13.0315687 C6.66666667,13.7400394 5.80921758,14.1908845 4.97320472,14.5773231 C4.35155413,14.8778865 3.70846731,15.1140434 3.08681672,15.3716691 C2.05787781,15.8010454 0,16.5309849 0,17.8835201 L0,20.0304012 L20,20.0304012 L20,18.7852102 L20,17.8835201 Z" id="Icon"></path>
                </g>
            </g>
        </g>
    </g>
</svg>