<?xml version="1.0" encoding="UTF-8" standalone="no"?>
<svg width="52px" height="52px" viewBox="0 0 52 52" version="1.1" xmlns="http://www.w3.org/2000/svg" xmlns:xlink="http://www.w3.org/1999/xlink">
    <defs></defs>
    <g id="Page-1" stroke="none" stroke-width="1" fill="none" fill-rule="evenodd">
        <path d="M26.0000003,51.3433208 C39.9912139,51.3433208 51.3333336,40.0039702 51.3333336,26.0161724 C51.3333336,12.0283746 39.9912139,0.689024 26.0000003,0.689024 C12.0087867,0.689024 0.666667,12.0283746 0.666667,26.0161724 C0.666667,40.0039702 12.0087867,51.3433208 26.0000003,51.3433208 Z M32.491667,21.9005108 C32.491667,21.9005108 32.491667,21.7422161 32.491667,21.9005108 C31.7000003,21.1090374 30.7500003,20.7924481 29.8000003,20.9507427 C30.7500003,20.7924481 31.2250003,20.4758587 31.3833337,20.317564 C31.3833337,20.1592694 31.3833337,20.0009747 31.2250003,20.0009747 C30.7500003,20.0009747 30.2750003,20.1592694 29.9583337,20.317564 C30.4333337,20.0009747 30.591667,19.84268 30.591667,19.6843853 C30.116667,19.6843853 29.641667,20.0009747 29.0083337,20.4758587 C29.166667,20.1592694 29.3250003,20.0009747 29.166667,19.84268 C28.8500003,20.0009747 28.691667,20.1592694 28.5333337,20.4758587 C28.0583337,20.9507427 27.741667,21.2673321 27.5833337,21.7422161 C26.9500003,22.8502789 26.4750003,23.8000469 26.1583337,24.9081097 L26.0000003,24.9081097 C25.6833337,24.4332257 25.2083337,23.9583416 24.5750003,23.6417523 C23.941667,23.1668682 23.1500003,22.8502789 22.2000003,22.3753948 C21.2500003,21.9005108 20.3000003,21.4256268 19.191667,21.1090374 C19.191667,22.2171002 19.666667,23.1668682 20.7750003,23.8000469 C20.4583337,23.8000469 19.9833337,23.8000469 19.666667,23.9583416 C19.666667,24.9081097 20.4583337,25.6995831 21.8833337,26.0161724 C21.4083337,26.0161724 20.9333337,26.1744671 20.4583337,26.4910565 C20.9333337,27.4408245 21.7250003,27.7574139 22.991667,27.7574139 C22.8333337,27.9157086 22.516667,28.0740032 22.516667,28.0740032 C22.3583337,28.2322979 22.2000003,28.5488873 22.3583337,28.8654766 C22.6750003,29.3403607 22.991667,29.4986553 23.7833337,29.4986553 C22.6750003,30.6067181 21.2500003,31.2398968 19.666667,31.0816021 C18.716667,31.0816021 17.6083337,30.6067181 16.5000003,29.65695 C17.6083337,31.2398968 19.191667,32.5062542 21.091667,33.2977276 C23.3083337,33.9309063 25.5250003,34.089201 27.5833337,33.4560223 C29.641667,32.8228436 31.541667,31.5564862 32.966667,29.8152447 C33.6000003,28.8654766 34.0750003,27.9157086 34.2333337,26.9659405 C35.341667,26.9659405 36.1333337,26.6493511 36.6083337,26.0161724 C36.291667,26.1744671 35.5000003,26.1744671 34.391667,25.8578778 C35.5000003,25.6995831 36.291667,25.3829937 36.4500003,24.749815 C35.6583337,25.0664044 34.866667,25.0664044 34.0750003,24.749815 C33.916667,23.6417523 33.441667,22.6919842 32.491667,21.9005108 Z" id="Background" fill="#FFFFFF"></path>
    </g>
</svg>