<?xml version="1.0" encoding="UTF-8" standalone="no"?>
<svg width="24px" height="24px" viewBox="0 0 24 24" version="1.1" xmlns="http://www.w3.org/2000/svg" xmlns:xlink="http://www.w3.org/1999/xlink">
    <defs></defs>
    <g id="Homepage" stroke="none" stroke-width="1" fill="none" fill-rule="evenodd">
        <g id="Large-Device-HOMEPAGE-B" transform="translate(-633.000000, -4904.000000)" fill="#FFFFFF">
            <g id="Section-Footer-Copy" transform="translate(0.000000, 4382.000000)">
                <g id="Call" transform="translate(586.585373, 522.213747)">
                    <path d="M53.9530542,15.8651618 C59.4538961,21.2420096 64.3791446,22.8544246 65.0606995,22.9516043 C65.7487953,23.0500626 66.8725107,23.2584874 68.4985622,21.6729246 C70.4045614,19.8098884 70.5955537,18.8265838 69.5503284,17.7998041 C68.4985622,16.7768604 65.8940018,15.225822 65.1836672,14.8204805 C64.4733326,14.4215325 63.8702676,14.5532365 63.3613907,14.8972013 C62.8472811,15.2475595 62.2599141,15.6899827 61.7117922,16.0774226 C61.1636703,16.4661412 60.4821153,16.6298122 59.7495418,16.1758809 C59.0169684,15.716835 57.7768261,14.870349 56.373163,13.4983258 C54.9694999,12.1275813 54.1034934,10.9141143 53.6390942,10.1980537 C53.1694623,9.48199312 53.3382158,8.81580103 53.7345904,8.28003427 C54.1322731,7.74426751 54.5835907,7.17141904 54.9420284,6.66761927 C55.2939253,6.17149157 55.4286665,5.58074159 55.0205184,4.88641855 C54.6071377,4.19209552 53.0190231,1.64624439 51.9737977,0.619464652 C50.9220315,-0.408593765 49.9212838,-0.216791821 48.0152846,1.64624439 C46.3826923,3.23692184 46.6063888,4.33530764 46.701885,5.00661444 C46.8026139,5.6740852 48.457445,10.4870353 53.9530542,15.8651618" id="Icon"></path>
                </g>
            </g>
        </g>
    </g>
</svg>