<?xml version="1.0" encoding="UTF-8" standalone="no"?>
<svg width="44px" height="44px" viewBox="0 0 44 44" version="1.1" xmlns="http://www.w3.org/2000/svg" xmlns:xlink="http://www.w3.org/1999/xlink">
    <defs></defs>
    <g id="Homepage" stroke="none" stroke-width="1" fill="none" fill-rule="evenodd">
        <g id="Large-Device-HOMEPAGE-B-Review-Copy-4" transform="translate(-962.000000, -3472.000000)" fill="#FFFFFF">
            <g id="Footer-Copy" transform="translate(-7.000000, 3423.000000)">
                <g id="Section-Footer-Copy" transform="translate(7.000000, 0.000000)">
                    <g id="Find-Us" transform="translate(935.000000, 49.000000)">
                        <g id="Icon-+-Oval-Copy-4" transform="translate(27.000000, 0.000000)">
                            <path d="M21.7622832,10.7354513 C17.0147886,10.7354513 13.1595231,14.4773877 13.1595231,19.0878378 C13.1595231,25.4581392 20.1240718,32.3581979 21.7942363,32.3581979 C23.4582559,32.3581979 30.3650432,25.4581392 30.3650432,19.0878378 C30.3650432,14.4773877 26.5159226,10.7354513 21.7622832,10.7354513 L21.7622832,10.7354513 Z M21.7622832,22.9631145 C19.5771821,22.9631145 17.8074715,21.2441061 17.8074715,19.1190706 C17.8074715,16.9988402 19.5771821,15.2786306 21.7622832,15.2786306 C23.9473842,15.2786306 25.7170949,16.9988402 25.7170949,19.1190706 C25.7170949,21.2441061 23.9473842,22.9631145 21.7622832,22.9631145 L21.7622832,22.9631145 Z" id="Icon"></path>
                            <path d="M22,42 L22,42 C33.045695,42 42,33.045695 42,22 C42,10.954305 33.045695,2 22,2 C10.954305,2 2,10.954305 2,22 C2,33.045695 10.954305,42 22,42 L22,42 Z M22,44 L22,44 C9.8497355,44 0,34.1502645 0,22 C0,9.8497355 9.8497355,0 22,0 C34.1502645,0 44,9.8497355 44,22 C44,34.1502645 34.1502645,44 22,44 L22,44 Z" id="Shape"></path>
                        </g>
                    </g>
                </g>
            </g>
        </g>
    </g>
</svg>