<?xml version="1.0" encoding="UTF-8" standalone="no"?>
<svg width="39px" height="42px" viewBox="0 0 39 42" version="1.1" xmlns="http://www.w3.org/2000/svg" xmlns:xlink="http://www.w3.org/1999/xlink">
    <defs></defs>
    <g id="Homepage" stroke="none" stroke-width="1" fill="none" fill-rule="evenodd">
        <g id="Large-Device-HOMEPAGE-B-Review-Copy-4" transform="translate(-530.000000, -1571.000000)">
            <g id="Section-Plus" transform="translate(7.000000, 1094.000000)">
                <g id="Section-Press-Copy" transform="translate(78.000000, 476.000000)">
                    <g id="Page-1" transform="translate(445.000000, 1.000000)">
                        <path d="M0.0209945495,41.9599496 L38.9501379,41.9599496 L38.9501379,0.0284228983 L0.0209945495,0.0284228983 L0.0209945495,41.9599496 Z" id="Fill-1" fill="#62BC46"></path>
                        <path d="M20,36 L20,5 L24,5 L24,5.12688835 L24,35.8639548 C24,36 23.9986334,36 23.8592415,36 L20.1270926,36 L20,36" id="Fill-9" fill="#FFFFFF"></path>
                        <path d="M15,10 L19,10 L19,36 L18.8644764,36 L15.1478439,36 C15,36 15,35.998672 15,35.8579017 L15,26.0478088 L15,10.1699867 L15,10 Z" id="Fill-10" fill="#FFFFFF"></path>
                        <path d="M19,9 L18.8729508,9 L15.1420765,9 C15.0027322,9 15.0027322,9 15.0027322,8.85699694 C15.0027322,7.61763704 15.0040984,6.37827715 15,5.13891726 C15,5.02996255 15.0273224,5 15.1379781,5 C16.3811475,5.0040858 17.6243169,5.00272387 18.8688525,5.00272387 L19,5.00272387 L19,9 Z" id="Fill-11" fill="#FFFFFF"></path>
                        <path d="M11.5369403,19.1041556 C11.7464022,19.1930995 11.9711907,19.2584995 12.1627718,19.3775274 C12.7043076,19.7136832 12.9763528,20.2224949 12.9967881,20.8712625 C13.0031741,21.0360704 12.9980653,21.2021863 12.9980653,21.3683022 L12.9980653,34.2599425 C12.9980653,35.00681 12.6034083,35.6320337 11.954587,35.8779375 C11.7719464,35.9472615 11.5688704,35.9943494 11.3747349,35.9943494 C8.94804128,36.0021974 6.5213476,35.9995814 4.09465393,35.9995814 C4.06910979,35.9995814 4.04228844,35.9956574 4.0001406,35.9930414 L4.0001406,35.8700895 C4.0001406,29.9016891 4.00141781,23.9345967 4.00141781,17.9661962 C4.00141781,13.7099668 4.00269501,9.45504533 4.00269501,5.19881588 C4.00269501,5.1674239 4.00524943,5.13603192 4.00141781,5.10594794 C3.99247736,5.02354399 4.02568474,5 4.10487159,5 C6.53156526,5.002616 8.95825893,4.998692 11.3849526,5.003924 C12.2802749,5.005232 12.9827388,5.74425155 12.9980653,6.674239 C13.0006197,6.81288691 12.9980653,6.95022683 12.9980653,7.08887475 L12.9980653,17.4743885 C12.9980653,18.2775001 12.5178354,18.9105717 11.775778,19.0871516 C11.6940367,19.1067716 11.6097411,19.1159275 11.5267226,19.1290075 C11.5305542,19.1211595 11.5331086,19.1120036 11.5369403,19.1041556 Z M7.75002093,17.6588164 L7.86241516,17.6588164 L9.13706794,17.6588164 C9.26989749,17.6588164 9.26989749,17.6588164 9.26989749,17.5254005 L9.26989749,8.97239362 L9.26989749,8.8442097 L7.75002093,8.8442097 L7.75002093,17.6588164 Z M7.75002093,32.1501397 C7.78705994,32.1514477 7.82282174,32.1553717 7.85986075,32.1553717 C8.29027957,32.1553717 8.7219756,32.1527557 9.15367164,32.1579877 C9.24690776,32.1579877 9.2711747,32.1305198 9.2711747,32.0363438 C9.26862028,28.5505259 9.26989749,25.064708 9.26989749,21.5801981 C9.26989749,21.5422661 9.26606587,21.5056421 9.26478866,21.4664021 L7.75002093,21.4664021 L7.75002093,32.1501397 Z" id="Path" fill="#FFFFFF"></path>
                        <path d="M31.2584437,10.3972164 L31.2584437,5 L31.3888293,5 L34.8696144,5 C35,5 35,5.00130747 35,5.13728385 L35,35.8601012 L35,35.9934627 C34.9552598,35.9960776 34.9194677,36 34.8849539,36 C32.483046,35.9973851 30.0811381,35.9960776 27.6792302,35.9908477 C26.9122559,35.9895403 26.2807804,35.5240827 26.0749757,34.7984395 C26.0264006,34.628469 26.0021131,34.4454239 26.0021131,34.2689161 C25.9982782,31.8958667 26.0008348,29.5215099 26.0008348,27.1471531 L26.0008348,15.4819485 C26.0021131,14.3575285 26.0008348,13.2318009 26.0033914,12.1073809 C26.0046697,11.3085196 26.4904201,10.6456348 27.2216022,10.4534374 C27.3660491,10.4155209 27.5207222,10.3998313 27.6715605,10.3998313 C28.822022,10.3946014 29.9712051,10.3972164 31.1216666,10.3972164 L31.2584437,10.3972164 Z M29.7359997,32.1403627 L31.2507739,32.1403627 L31.2507739,14.1980177 L29.7359997,14.1980177 L29.7359997,32.1403627 Z" id="Path" fill="#FFFFFF"></path>
                    </g>
                </g>
            </g>
        </g>
    </g>
</svg>