<?xml version="1.0" encoding="UTF-8" standalone="no"?>
<svg width="65px" height="28px" viewBox="0 0 65 28" version="1.1" xmlns="http://www.w3.org/2000/svg" xmlns:xlink="http://www.w3.org/1999/xlink">
    <defs></defs>
    <g id="Page-1" stroke="none" stroke-width="1" fill="none" fill-rule="evenodd">
        <g>
            <path d="M-0.0005,0.5485 L64.6145,0.5485 L64.6145,28.0005 L-0.0005,28.0005 L-0.0005,0.5485 Z" id="Fill-1" fill="#A8A8A8"></path>
            <path d="M28.8117,3.5049 C29.4707,3.5049 30.1387,3.5039 30.8077,3.5049 C31.3797,3.5059 31.9517,3.5229 32.5237,3.5059 C32.8467,3.4959 32.9847,3.6259 33.0907,3.9289 C34.0047,6.5479 34.9367,9.1599 35.8657,11.7729 C35.9147,11.9119 35.9817,12.0439 36.1117,12.1669 L36.1117,3.5459 L40.1647,3.5459 L40.1647,4.4619 C40.1647,10.9559 40.1657,17.4499 40.1647,23.9439 C40.1647,24.6819 40.1637,24.6829 39.4217,24.6859 C38.4127,24.6889 37.4027,24.6699 36.3947,24.7039 C36.0557,24.7149 35.9257,24.6029 35.8247,24.3029 C34.9927,21.8179 34.1467,19.3389 33.3047,16.8579 C33.2247,16.6229 33.1437,16.3879 32.9507,16.1559 C32.9417,16.3389 32.9247,16.5219 32.9247,16.7049 C32.9197,19.1609 32.9047,21.6169 32.9237,24.0729 C32.9277,24.5679 32.7657,24.7069 32.2897,24.6949 C31.1467,24.6659 30.0037,24.6849 28.8117,24.6849 L28.8117,3.5049 Z" id="Fill-4" fill="#FFFFFF"></path>
            <path d="M3.2661,3.5205 C3.6291,3.5205 3.9611,3.5195 4.2921,3.5205 C6.8661,3.5315 9.4401,3.5455 12.0141,3.5545 C13.6171,3.5595 14.4721,4.3215 14.5101,5.9305 C14.5571,7.9315 14.5351,9.9345 14.5141,11.9355 C14.5041,12.9085 13.9981,13.5445 12.9931,13.8115 C13.0741,13.8825 13.1101,13.9405 13.1581,13.9525 C14.1401,14.2075 14.4951,14.9445 14.5081,15.8485 C14.5411,18.0685 14.5451,20.2905 14.5121,22.5105 C14.4951,23.7155 13.4941,24.6405 12.2171,24.6735 C10.9221,24.7065 9.6261,24.6835 8.3311,24.6875 C6.7331,24.6915 5.1351,24.6995 3.5371,24.7035 C3.4571,24.7045 3.3771,24.6845 3.2661,24.6695 L3.2661,3.5205 Z" id="Fill-6" fill="#FFFFFF"></path>
            <path d="M20.194,3.5541 L20.194,4.3561 C20.187,9.3031 20.186,14.2491 20.167,19.1961 C20.165,19.7661 20.256,20.2241 20.857,20.4491 C21.507,20.6911 22.448,20.5801 22.782,20.1201 C22.942,19.8991 23.008,19.5641 23.009,19.2801 C23.033,14.2661 23.04,9.2521 23.052,4.2381 C23.053,3.5061 23.055,3.5051 23.787,3.5051 C24.662,3.5051 25.537,3.5031 26.412,3.5081 C26.643,3.5091 26.874,3.5331 27.134,3.5481 L27.134,4.5441 C27.134,10.3661 27.13,16.1871 27.138,22.0091 C27.139,22.8511 26.876,23.5601 26.243,24.1181 C25.825,24.4851 25.343,24.6891 24.773,24.6871 C22.737,24.6811 20.701,24.6971 18.665,24.6811 C17.415,24.6721 16.213,23.5391 16.21,22.3261 C16.195,16.1511 16.203,9.9761 16.204,3.8011 C16.204,3.7351 16.219,3.6691 16.233,3.5541 L20.194,3.5541 Z" id="Fill-8" fill="#FFFFFF"></path>
            <path d="M55.9138,11.8517 C57.1498,11.8517 58.2918,11.8677 59.4338,11.8437 C59.8728,11.8337 60.0038,11.9597 59.9868,12.4147 C59.9458,13.5067 59.9498,14.6017 59.9808,15.6947 C59.9948,16.1717 59.8238,16.2937 59.3728,16.2807 C58.3648,16.2517 57.3538,16.2617 56.3448,16.2857 C56.2008,16.2887 55.9388,16.4547 55.9368,16.5497 C55.9098,17.8907 55.9178,19.2327 55.9178,20.6337 L60.8368,20.6337 C60.8368,21.9167 60.8378,23.1397 60.8358,24.3627 C60.8358,24.6847 60.6038,24.6827 60.3768,24.6827 C59.4178,24.6837 58.4588,24.6847 57.4998,24.6857 L51.6138,24.6857 L51.6138,3.5547 L60.8028,3.5547 C60.8028,4.8117 60.8008,6.0197 60.8048,7.2277 C60.8058,7.5747 60.5788,7.5807 60.3258,7.5797 C59.0308,7.5777 57.7348,7.5957 56.4398,7.5717 C56.0138,7.5627 55.8968,7.7027 55.9048,8.1167 C55.9298,9.3407 55.9138,10.5657 55.9138,11.8517" id="Fill-10" fill="#FFFFFF"></path>
            <path d="M43.8185,24.6855 L43.8185,7.6205 L41.0095,7.6205 L41.0095,3.5525 L50.7565,3.5525 L50.7565,6.2275 C50.7565,7.5795 50.7565,7.5715 49.4105,7.5845 C48.9145,7.5885 48.2575,7.4645 47.9715,7.7255 C47.7195,7.9545 47.8655,8.6395 47.8655,9.1235 C47.8605,14.0845 47.8625,19.0465 47.8615,24.0085 C47.8615,24.6795 47.8575,24.6825 47.2005,24.6845 C46.0935,24.6875 44.9875,24.6855 43.8185,24.6855" id="Fill-12" fill="#FFFFFF"></path>
            <path d="M7.3091,20.6207 L7.3091,19.6707 C7.3091,18.5097 7.3181,17.3487 7.3051,16.1877 C7.3011,15.8447 7.4151,15.6997 7.7691,15.7137 C8.3401,15.7357 8.9141,15.7047 9.4841,15.7397 C10.1821,15.7827 10.5351,16.1267 10.5581,16.8267 C10.5901,17.7847 10.5841,18.7447 10.5581,19.7027 C10.5441,20.2277 10.2271,20.5827 9.7171,20.6097 C8.9501,20.6517 8.1791,20.6207 7.3091,20.6207" id="Fill-14" fill="#A8A8A8"></path>
            <path d="M7.3571,7.3175 C8.1561,7.3175 8.9121,7.2795 9.6631,7.3295 C10.2641,7.3695 10.5581,7.7365 10.5671,8.3395 C10.5801,9.1625 10.5831,9.9875 10.5661,10.8105 C10.5531,11.4725 10.1951,11.8855 9.5661,11.9165 C8.8481,11.9525 8.1261,11.9255 7.3571,11.9255 L7.3571,7.3175 Z" id="Fill-16" fill="#A8A8A8"></path>
        </g>
    </g>
</svg>