<?xml version="1.0" encoding="UTF-8" standalone="no"?>
<svg width="24px" height="35px" viewBox="0 0 24 35" version="1.1" xmlns="http://www.w3.org/2000/svg" xmlns:xlink="http://www.w3.org/1999/xlink">
    <defs></defs>
    <g id="Page-1" stroke="none" stroke-width="1" fill="none" fill-rule="evenodd">
        <g id="Group" fill="#838C8E">
            <path d="M21.6541783,2.16228143 L17.3295474,2.16228143 C17.3295474,0.968747255 16.3608682,0 15.167266,0 L8.68035368,0 C7.48675147,0 6.51807225,0.968747255 6.51807225,2.16228143 L2.19344136,2.16228143 C0.99983915,2.16228143 0.03115993,3.13102868 0.03115993,4.32456286 L23.8165958,4.32456286 C23.8164597,3.13102868 22.8477805,2.16228143 21.6541783,2.16228143 Z M0.0310238604,32.4346977 C0.0310238604,33.6282999 0.999771115,34.5969791 2.19330529,34.5969791 L21.6541103,34.5969791 C22.8477125,34.5969791 23.8163917,33.6282318 23.8163917,32.4346977 L23.8163917,6.48691232 L0.0310238604,6.48691232 L0.0310238604,32.4346977 Z M17.3295474,11.892752 C17.3295474,11.2959509 17.8160641,10.8116112 18.4106881,10.8116112 C19.0053121,10.8116112 19.4918289,11.2959509 19.4918289,11.892752 L19.4918289,29.1912755 C19.4918289,29.7858995 19.0053121,30.2724162 18.4106881,30.2724162 C17.8160641,30.2724162 17.3295474,29.7858995 17.3295474,29.1912755 L17.3295474,11.892752 L17.3295474,11.892752 Z M10.8426351,11.892752 C10.8426351,11.2959509 11.3269747,10.8116112 11.9237758,10.8116112 C12.5183998,10.8116112 13.0049165,11.2959509 13.0049165,11.892752 L13.0049165,29.1912755 C13.0049165,29.7858995 12.5183998,30.2724162 11.9237758,30.2724162 C11.3269747,30.2724162 10.8426351,29.7858995 10.8426351,29.1912755 L10.8426351,11.892752 L10.8426351,11.892752 Z M4.35565475,11.892752 C4.35565475,11.2959509 4.83999436,10.8116112 5.43679547,10.8116112 C6.03359657,10.8116112 6.51793618,11.2959509 6.51793618,11.892752 L6.51793618,29.1912755 C6.51793618,29.7858995 6.03359657,30.2724162 5.43679547,30.2724162 C4.83999436,30.2724162 4.35565475,29.7858995 4.35565475,29.1912755 L4.35565475,11.892752 L4.35565475,11.892752 Z" id="Shape"></path>
        </g>
    </g>
</svg>