<?xml version="1.0" encoding="UTF-8" standalone="no"?>
<svg width="2px" height="12px" viewBox="0 0 2 12" version="1.1" xmlns="http://www.w3.org/2000/svg" xmlns:xlink="http://www.w3.org/1999/xlink">
    <defs></defs>
    <g id="Styleguide" stroke="none" stroke-width="1" fill="none" fill-rule="evenodd">
        <g id="Forms" transform="translate(-338.000000, -421.000000)" fill="#FFFFFF">
            <g id="EMAIL-ERROR" transform="translate(105.000000, 402.000000)">
                <path d="M234,19 C234.6,19 235,19.4 235,20 L235,26 C235,26.6 234.6,27 234,27 C233.4,27 233,26.6 233,26 L233,20 C233,19.4 233.4,19 234,19 Z M234,28 C234.6,28 235,28.4 235,29 L235,30 C235,30.6 234.6,31 234,31 C233.4,31 233,30.6 233,30 L233,29 C233,28.4 233.4,28 234,28 Z" id="Shape"></path>
            </g>
        </g>
    </g>
</svg>