<?xml version="1.0" encoding="UTF-8" standalone="no"?>
<svg width="202px" height="28px" viewBox="0 0 202 28" version="1.1" xmlns="http://www.w3.org/2000/svg" xmlns:xlink="http://www.w3.org/1999/xlink">
    <defs></defs>
    <g id="Page-1" stroke="none" stroke-width="1" fill="none" fill-rule="evenodd">
        <g id="newyorktimes" fill="#A8A8A8">
            <path d="M195.795,8.9295 C195.615,9.0865 195.459,9.3315 195.252,9.3865 C193.031,9.9725 193.068,11.6685 193.254,13.4255 C193.281,13.6805 193.412,13.9715 193.59,14.1545 C194.125,14.7055 194.706,15.2125 195.227,15.6965 C195.917,15.0435 196.566,14.4295 197.353,13.6845 C195.892,13.1935 195.971,12.0815 195.989,10.9555 C195.999,10.2815 195.864,9.6045 195.795,8.9295 C196.141,9.2295 196.501,9.5155 196.831,9.8345 C197.788,10.7605 198.575,10.9625 199.615,10.5235 C200.975,9.9495 201.429,9.2695 201.418,7.8205 C199.924,8.8595 199.533,8.8445 198.083,7.7065 C197.316,8.1175 196.556,8.5235 195.795,8.9295" id="Path"></path>
            <path d="M147.1897,15.6675 C147.1897,13.0665 147.1797,10.6635 147.2077,8.2615 C147.2107,8.0515 147.4197,7.7495 147.6137,7.6535 C148.4747,7.2285 149.3647,6.8635 150.3167,6.4455 C150.3807,6.6415 150.4607,6.7745 150.4617,6.9085 C150.4717,9.0945 150.4847,11.2805 150.4567,13.4665 C150.4537,13.7295 150.2867,14.1115 150.0787,14.2275 C149.1927,14.7255 148.2617,15.1435 147.1897,15.6675" id="Fill-59"></path>
            <path d="M153.196,12.4675 C152.599,11.9705 152.079,11.5375 151.497,11.0535 C152.079,10.5685 152.598,10.1365 153.187,9.6445 C153.733,10.0845 154.278,10.5235 154.915,11.0365 C154.327,11.5255 153.795,11.9695 153.196,12.4675" id="Fill-73"></path>
            <path d="M96.3298,20.8638 C96.3138,16.2318 96.2978,11.5998 96.2818,6.9678 C96.2798,6.1548 96.2818,5.3408 96.3318,4.5278 L96.3318,20.8658 L96.3298,20.8638" id="Fill-75"></path>
            <path d="M96.332,20.8645 L96.332,4.5275 C96.282,5.3405 96.28,6.1545 96.282,6.9675 C96.297,11.5995 96.314,16.2315 96.33,20.8635 C97.184,21.0185 98.034,21.2135 98.894,21.3205 C100.998,21.5815 102.217,20.5575 102.229,18.4585 C102.257,13.7635 102.243,9.0695 102.229,4.3745 C102.228,4.1275 102.139,3.8125 101.973,3.6485 C101.396,3.0765 100.789,2.5285 100.145,2.0355 C99.969,1.9005 99.538,1.8715 99.368,1.9945 C98.617,2.5355 97.919,3.1505 97.155,3.7765 C97.395,3.9955 97.559,4.1855 97.76,4.3195 C98.65,4.9125 98.953,5.7015 98.872,6.7845 C98.729,8.7145 98.674,10.6545 98.676,12.5905 C98.677,14.6425 98.813,16.6945 98.839,18.7465 C98.854,19.9745 98.19,20.6415 96.979,20.7635 C96.762,20.7855 96.548,20.8315 96.332,20.8645" id="Path"></path>
            <path d="M90.572,20.5125 C91.707,20.3895 92.842,20.2665 94.087,20.1325 L94.087,19.3335 C94.087,14.6345 94.088,9.9355 94.085,5.2365 C94.085,4.9555 94.082,4.6715 94.046,4.3935 C93.845,2.8115 93.084,1.9515 91.725,1.7515 C90.261,1.5365 89.002,2.2765 88.394,3.7105 C89.601,3.2375 90.465,3.4945 90.538,4.5295 C90.661,6.2595 90.572,8.0045 90.572,9.7295 C88.641,10.1675 87.741,10.8995 87.618,12.0975 C87.532,12.9365 88.019,13.7475 88.807,14.0795 C88.827,13.8315 88.753,13.4605 88.885,13.3595 C89.275,13.0625 89.735,12.8415 90.197,12.6765 C90.266,12.6515 90.633,13.0845 90.635,13.3065 C90.649,15.7175 90.617,18.1275 90.596,20.5385 C88.821,21.2305 88.035,22.4415 88.322,24.0405 C88.623,25.7145 89.821,26.7145 91.642,26.7395 C92.388,26.7495 93.142,26.6775 93.882,26.5725 C95.643,26.3225 97.393,25.9665 99.16,25.7795 C100.124,25.6775 100.547,26.3795 100.25,27.3235 C100.184,27.5335 100.089,27.7345 99.984,27.9995 C101.705,27.3245 102.631,25.9665 102.353,24.6245 C102.061,23.2205 100.643,22.2855 98.881,22.3985 C97.977,22.4565 97.079,22.6015 96.18,22.7235 C94.571,22.9435 92.967,23.2105 91.354,23.3885 C90.534,23.4785 89.84,23.0365 89.836,22.2155 C89.833,21.6485 90.31,21.0805 90.572,20.5125" id="Path"></path>
            <path d="M48.671,18.4415 C47.65,17.8845 46.772,17.2505 45.791,16.9215 C45.081,16.6835 44.97,16.3675 44.975,15.7345 C44.997,12.6945 44.983,9.6535 44.987,6.6135 C44.988,6.3215 45.024,6.0305 45.044,5.7385 C45.11,5.7235 45.176,5.7085 45.242,5.6945 C48.098,10.8805 50.955,16.0675 53.812,21.2535 C53.938,21.2115 54.064,21.1685 54.19,21.1265 L54.19,5.3715 C56.744,4.7145 57.851,3.2155 57.421,1.4805 C56.81,1.7835 56.169,2.3355 55.504,2.3675 C54.794,2.4005 54.061,1.9425 53.248,1.6685 C52.601,2.4055 51.883,3.2235 51.039,4.1835 C52.092,4.6465 53.048,5.0655 54.03,5.4975 L54.03,14.2435 C53.196,13.0665 52.52,11.8455 51.843,10.6245 C50.401,8.0265 49.007,5.4005 47.497,2.8425 C46.673,1.4465 45.353,0.9845 44.076,1.3945 C42.841,1.7905 42.081,3.0635 42.133,4.4055 C42.577,4.2455 43.189,3.7955 43.564,3.9435 C44.094,4.1525 44.727,4.7545 44.82,5.2765 C45.012,6.3605 44.878,7.5025 44.878,8.5985 C42.673,8.9825 41.852,9.6155 41.714,10.9735 C41.622,11.8805 42.233,12.8665 43.133,13.2615 C43.054,11.9375 43.581,11.5005 44.852,11.8625 L44.852,16.3325 C43.739,16.8415 42.647,17.1685 41.762,17.7895 C40.768,18.4875 40.544,19.6475 40.752,20.8375 C40.962,22.0345 42.254,23.0815 43.405,23.0265 C42.363,22.1615 42.137,21.4205 42.76,20.6535 C42.978,20.3845 43.396,20.0515 43.669,20.0935 C44.576,20.2355 45.459,20.5345 46.516,20.8185 C47.05,20.2295 47.764,19.4425 48.671,18.4415" id="Path"></path>
            <path d="M14.869,14.3265 C14.364,15.0195 13.967,15.6605 13.477,16.2205 C11.072,18.9695 6.861,19.4735 4.372,16.1535 C2.054,13.0615 2.632,9.0675 4.762,6.5215 C4.979,6.2615 5.262,6.0575 5.514,5.8265 C1.39,7.4315 -0.709,11.2385 0.216,15.2185 C1.118,19.0975 4.459,21.6465 8.438,21.2505 C11.79,20.9155 14.497,18.6105 14.869,14.3265" id="Path"></path>
            <path d="M146.856,5.8305 C146.427,5.9805 146.191,6.0315 145.986,6.1405 C143.119,7.6705 141,10.8125 141.518,14.5135 C142.277,19.9315 147.949,22.9175 152.74,20.3155 C154.945,19.1195 155.99,17.1665 156.173,14.7045 C155.91,14.9215 155.72,15.1885 155.528,15.4535 C154.528,16.8345 153.274,17.8945 151.592,18.3015 C147.76,19.2295 144.837,16.2805 144.366,12.5955 C144.04,10.0445 144.886,7.8265 146.856,5.8305" id="Path"></path>
            <path d="M16.662,3.7785 C16.8,4.4875 16.995,5.0345 16.999,5.5825 C17.026,9.4005 17.035,13.2185 16.991,17.0365 C16.984,17.6315 16.677,18.2235 16.47,18.9575 C16.836,19.3055 17.398,19.8985 18.029,20.4045 C18.224,20.5605 18.703,20.6115 18.891,20.4805 C19.644,19.9565 20.335,19.3415 21.128,18.6945 C20.126,18.1615 20.08,17.3325 20.086,16.4085 C20.118,11.7005 20.102,6.9915 20.098,2.2825 C20.098,1.9645 20.062,1.6455 20.033,1.1765 C18.746,2.1705 17.617,3.0415 16.662,3.7785" id="Path"></path>
            <path d="M125.501,3.2785 C125.721,4.3415 126.039,5.1935 126.052,6.0495 C126.108,9.8105 126.091,13.5735 126.059,17.3345 C126.055,17.8385 125.817,18.3405 125.647,18.9995 C126.24,19.5485 126.989,20.2415 127.769,20.9635 C128.621,20.2135 129.39,19.5375 130.284,18.7515 C128.77,17.9715 128.968,16.6495 128.973,15.3655 C128.99,10.9135 128.981,6.4625 128.977,2.0105 C128.977,1.6935 128.938,1.3755 128.907,0.9075 C127.594,1.8215 126.445,2.6215 125.501,3.2785" id="Path"></path>
            <path d="M143.219,6.2445 C143.12,4.3215 143.925,3.6625 145.751,4.0735 C145.994,4.1285 146.236,4.1935 146.479,4.2535 C148.6,4.7815 150.708,5.3725 152.847,5.8165 C154.624,6.1855 156.312,4.8745 156.557,3.0925 C156.777,1.4985 155.763,0.3275 153.886,0.0905 C154.074,0.2425 154.268,0.3255 154.334,0.4685 C154.497,0.8145 154.777,1.2465 154.681,1.5355 C154.571,1.8705 154.145,2.2305 153.79,2.3225 C153.334,2.4405 152.79,2.3835 152.322,2.2595 C150.965,1.8995 149.634,1.4385 148.277,1.0755 C147.467,0.8585 146.624,0.6105 145.801,0.6265 C144.257,0.6565 143.031,1.3785 142.383,2.8435 C141.827,4.0985 142.095,5.1555 143.219,6.2445" id="Path"></path>
            <path d="M1.777,6.1565 C1.705,4.3445 2.509,3.6785 4.221,4.0475 C4.497,4.1075 4.766,4.1905 5.04,4.2585 C7.196,4.7865 9.337,5.3905 11.513,5.8165 C13.245,6.1555 14.887,4.8475 15.098,3.1615 C15.309,1.4765 14.287,0.2785 12.397,0.0955 C12.585,0.2315 12.77,0.2945 12.821,0.4145 C12.994,0.8155 13.295,1.2795 13.208,1.6385 C13.134,1.9455 12.621,2.2865 12.256,2.3495 C11.757,2.4355 11.198,2.3385 10.695,2.2055 C8.943,1.7425 7.202,1.2365 5.46,0.7345 C4.29,0.3985 3.209,0.6555 2.232,1.2895 C0.344,2.5145 0.197,5.1845 1.777,6.1565" id="Path"></path>
            <path d="M36.676,12.0305 C35.846,10.5855 35.043,9.1885 34.24,7.7905 C32.487,8.7765 30.792,9.7075 29.13,10.6925 C28.907,10.8245 28.736,11.2315 28.731,11.5145 C28.697,13.5495 28.704,15.5855 28.725,17.6205 C28.727,17.8635 28.826,18.1765 28.995,18.3345 C29.95,19.2345 30.94,20.0965 31.942,20.9935 C32.722,20.3755 33.476,19.7775 34.291,19.1305 C33.544,18.4305 32.817,17.7945 32.149,17.1015 C31.915,16.8585 31.699,16.4795 31.69,16.1575 C31.645,14.5355 31.67,12.9115 31.67,11.2875 L31.67,9.5685 C31.762,9.5465 31.854,9.5255 31.946,9.5045 C32.767,10.8805 33.589,12.2565 34.435,13.6735 C35.17,13.1345 35.895,12.6035 36.676,12.0305" id="Path"></path>
            <path d="M188.895,19.1655 C188.43,18.6925 188.084,18.2215 187.632,17.9045 C186.625,17.2005 186.23,16.3195 186.299,15.0715 C186.4,13.2195 186.325,11.3585 186.325,9.5015 C186.41,9.4775 186.496,9.4535 186.581,9.4295 C187.41,10.8285 188.24,12.2285 189.095,13.6715 C189.825,13.1355 190.55,12.6025 191.335,12.0255 C190.508,10.5905 189.704,9.1945 188.895,7.7895 C187.122,8.7865 185.404,9.7335 183.714,10.7295 C183.515,10.8465 183.376,11.2285 183.372,11.4905 C183.345,13.5245 183.351,15.5585 183.365,17.5935 C183.366,17.8175 183.406,18.1185 183.55,18.2535 C184.546,19.1845 185.575,20.0815 186.594,20.9895 C187.388,20.3605 188.121,19.7795 188.895,19.1655" id="Path"></path>
            <path d="M117.135,18.7195 C117.76,19.2925 118.483,19.9825 119.242,20.6305 C119.383,20.7515 119.748,20.8095 119.872,20.7155 C120.531,20.2115 121.146,19.6515 121.906,18.9985 C120.329,18.3335 120.333,17.0995 120.417,15.8075 C120.465,15.0595 120.425,14.3055 120.425,13.5545 L120.425,10.0635 C121.463,10.7405 122.294,11.5705 123.442,10.8225 C124.425,10.1825 124.924,9.2755 124.969,8.3025 C124.251,8.2625 123.56,8.3565 122.975,8.1505 C122.482,7.9775 122.241,8.0325 121.947,8.3915 C121.48,8.9625 120.99,9.5155 120.457,10.1365 C119.667,9.2185 119.068,8.5215 118.43,7.7795 C117.637,8.5035 116.904,9.1725 116.133,9.8765 C117.185,10.7275 117.478,11.7905 117.394,13.0675 C117.302,14.4705 117.39,15.8845 117.363,17.2925 C117.355,17.7305 117.228,18.1655 117.135,18.7195" id="Path"></path>
            <path d="M72.519,19.2595 C72.126,18.9315 71.803,18.5885 71.415,18.3535 C70.66,17.8965 70.414,17.2835 70.451,16.4045 C70.52,14.7465 70.392,13.0795 70.494,11.4255 C70.586,9.9335 70.061,8.9175 68.772,8.1785 C68.284,7.8985 67.768,7.4295 67.58,6.9285 C67.391,6.4265 67.595,5.7775 67.625,5.2305 C65.056,6.0855 64.501,8.3435 66.523,10.2415 C67.217,10.8925 67.53,11.6375 67.522,12.5695 C67.507,14.4185 67.509,16.2665 67.528,18.1145 C67.53,18.4045 67.56,18.7985 67.741,18.9625 C68.546,19.6925 69.411,20.3565 70.261,21.0495 C71.025,20.4445 71.733,19.8825 72.519,19.2595" id="Path"></path>
            <path d="M20.328,23.8055 C23.248,24.1695 25.69,22.0605 25.781,19.1155 C25.865,16.3645 25.831,13.6085 25.839,10.8555 C25.84,10.6495 25.834,10.3825 25.714,10.2465 C24.942,9.3615 24.137,8.5055 23.334,7.6305 C22.577,8.2885 21.895,8.8805 21.216,9.4685 C21.584,9.9245 21.942,10.3185 22.24,10.7535 C22.478,11.0995 22.806,11.4935 22.812,11.8705 C22.853,14.4665 22.864,17.0655 22.794,19.6615 C22.746,21.4195 22.211,22.9815 20.328,23.8055" id="Path"></path>
            <path d="M72.193,9.8865 C73.076,11.0215 73.076,11.0215 73.076,12.5285 C73.076,14.4045 73.067,16.2805 73.087,18.1565 C73.09,18.3945 73.174,18.7135 73.34,18.8545 C74.125,19.5195 74.939,20.1535 75.773,20.7565 C75.952,20.8865 76.316,20.9525 76.495,20.8585 C77.15,20.5145 77.762,20.0905 78.479,19.6405 C77.867,19.1175 77.354,18.6155 76.777,18.2055 C76.231,17.8185 76.052,17.3615 76.075,16.7025 C76.123,15.2965 76.092,13.8885 76.089,12.4815 C76.086,11.4875 75.912,10.4435 77.048,9.7775 C76.216,9.0495 75.473,8.3995 74.676,7.7015 C73.82,8.4555 73.005,9.1715 72.193,9.8865" id="Path"></path>
            <path d="M178.613,20.9065 C179.451,20.1415 180.21,19.4495 181.089,18.6475 C179.787,17.8535 179.584,16.6705 179.667,15.3125 C179.755,13.8455 179.692,12.3695 179.681,10.8975 C179.679,10.6625 179.675,10.3605 179.54,10.2045 C178.831,9.3855 178.079,8.6045 177.314,7.7795 C176.484,8.4385 175.704,9.0575 174.909,9.6895 C175.088,9.8835 175.219,10.0635 175.385,10.2005 C176.452,11.0765 176.922,12.1495 176.76,13.5665 C176.64,14.6175 176.764,15.6945 176.725,16.7575 C176.705,17.3185 176.568,17.8755 176.463,18.5735 C177.084,19.2475 177.822,20.0485 178.613,20.9065" id="Path"></path>
            <path d="M159.3,7.8425 C158.582,8.4735 157.888,9.0835 157.18,9.7065 C157.39,9.9785 157.512,10.2115 157.698,10.3665 C158.495,11.0285 158.682,11.8695 158.641,12.8725 C158.575,14.4645 158.617,16.0625 158.629,17.6575 C158.631,17.9235 158.622,18.2645 158.77,18.4435 C159.462,19.2795 160.208,20.0705 160.955,20.8985 C161.705,20.2275 162.394,19.6105 163.154,18.9295 C161.809,18.0805 161.551,16.8905 161.64,15.4825 C161.735,13.9865 161.669,12.4805 161.654,10.9795 C161.652,10.7615 161.603,10.4925 161.472,10.3345 C160.775,9.4985 160.045,8.6905 159.3,7.8425" id="Path"></path>
            <path d="M169.443,9.6835 C169.763,10.0785 169.978,10.4415 170.283,10.6995 C171.103,11.3945 171.31,12.2575 171.245,13.2945 C171.172,14.4485 171.264,15.6115 171.213,16.7675 C171.187,17.3575 171.004,17.9395 170.85,18.7415 C171.365,19.3115 172.042,20.0595 172.698,20.7845 C173.529,19.9815 174.243,19.2895 174.72,18.8285 C174.527,17.9005 174.279,17.1895 174.25,16.4695 C174.176,14.5935 174.198,12.7145 174.179,10.8365 C174.177,10.6525 174.223,10.3995 174.124,10.2945 C173.359,9.4875 172.563,8.7095 171.748,7.8945 C170.964,8.5035 170.227,9.0745 169.443,9.6835" id="Path"></path>
            <path d="M165.413,18.3575 C165.32,18.3815 165.228,18.4055 165.135,18.4295 C165.859,19.2425 166.584,20.0545 167.216,20.7635 C168.022,20.0055 168.782,19.2905 169.604,18.5165 C168.637,17.9615 168.702,17.0465 168.717,16.1215 C168.743,14.3975 168.726,12.6735 168.723,10.9495 C168.722,10.7325 168.783,10.4345 168.669,10.3115 C167.908,9.5015 167.107,8.7295 166.284,7.9095 C165.557,8.5405 164.879,9.1285 164.16,9.7525 C164.417,10.0575 164.608,10.3515 164.861,10.5735 C165.598,11.2185 165.888,11.9825 165.818,12.9805 C165.731,14.2285 165.835,15.4885 165.78,16.7395 C165.756,17.2835 165.541,17.8185 165.413,18.3575" id="Path"></path>
            <path d="M193.946,21.6485 C194.017,21.1895 193.944,20.6335 194.187,20.3305 C194.63,19.7765 195.416,19.7495 195.88,20.2025 C196.816,21.1185 197.503,20.6195 198.254,20.0255 C198.45,19.8715 198.67,19.7475 198.88,19.6105 C199.814,19.0035 201.118,18.5965 201.579,17.7365 C202.05,16.8565 201.693,15.5345 201.698,14.4055 C201.698,14.3115 201.725,14.2075 201.693,14.1255 C201.584,13.8535 201.521,13.5165 201.322,13.3345 C200.726,12.7935 200.073,12.3145 199.442,11.8105 C198.764,12.4555 198.138,13.0505 197.578,13.5835 C198.046,14.1155 198.768,14.5615 198.839,15.0925 C199.015,16.4285 198.897,17.8025 198.897,19.1615 C198.535,19.0055 198.421,18.7535 198.23,18.5885 C197.719,18.1475 197.227,17.6335 196.632,17.3475 C195.628,16.8665 193.647,17.5225 193.015,18.4235 C192.311,19.4265 192.844,21.0205 193.946,21.6485" id="Path"></path>
            <path d="M57.636,10.5315 C57.125,10.7605 56.965,11.0855 56.974,11.6235 C57.001,13.1895 57.084,14.7645 56.953,16.3205 C56.841,17.6365 57.203,18.5715 58.309,19.2905 C59.022,19.7535 59.674,20.7615 60.33,20.7415 C61.037,20.7195 61.717,19.7855 62.405,19.2445 C62.446,19.2125 62.459,19.1455 62.369,19.3205 C61.675,18.5285 61.02,17.8105 60.402,17.0605 C60.198,16.8125 59.975,16.4915 59.959,16.1925 C59.903,15.1845 59.936,14.1715 59.936,13.1605 C59.935,11.9415 59.935,10.7225 59.935,9.3295 C59.067,9.7895 58.371,10.2035 57.636,10.5315 L57.636,10.5315 Z" id="Path"></path>
            <path d="M77.949,10.0745 C78.996,10.5855 78.966,11.4155 78.954,12.2835 C78.924,14.5815 78.944,16.8815 78.944,19.3475 C79.846,18.8035 80.641,18.3825 81.362,17.8595 C81.629,17.6655 81.856,17.2365 81.87,16.9045 C81.927,15.5635 81.911,14.2175 81.889,12.8745 C81.869,11.6555 81.683,10.3905 83.165,9.7985 C82.257,9.0685 81.435,8.4075 80.555,7.7005 C79.71,8.4705 78.908,9.2005 77.949,10.0745" id="Path"></path>
            <path d="M136.651,18.7565 C134.805,15.9775 133,13.2605 131.143,10.4645 C130.656,11.1595 130.275,11.7715 129.824,12.3255 C129.388,12.8595 129.371,13.2865 129.768,13.8895 C131.122,15.9515 132.405,18.0605 133.72,20.1485 C133.876,20.3965 134.057,20.6275 134.242,20.8885 C135.091,20.1375 135.859,19.4575 136.651,18.7565" id="Path"></path>
            <path d="M8.974,14.0935 L8.974,6.4035 C7.933,6.8625 6.989,7.2645 6.062,7.7025 C5.908,7.7765 5.732,8.0105 5.731,8.1725 C5.71,10.6345 5.716,13.0965 5.716,15.7185 C6.911,15.1225 7.965,14.5965 8.974,14.0935" id="Path"></path>
            <path d="M147.19,15.6675 C148.262,15.1435 149.192,14.7255 150.078,14.2275 C150.287,14.1115 150.453,13.7295 150.457,13.4665 C150.484,11.2805 150.471,9.0945 150.461,6.9085 C150.461,6.7745 150.38,6.6415 150.317,6.4455 C149.365,6.8635 148.474,7.2285 147.613,7.6535 C147.419,7.7495 147.21,8.0515 147.208,8.2615 C147.179,10.6635 147.19,13.0665 147.19,15.6675" id="Path"></path>
            <path d="M62.747,13.6695 C63.535,13.0775 64.229,12.5585 64.954,12.0145 C64.112,10.5595 63.308,9.1685 62.484,7.7445 C61.623,8.2665 60.858,8.7305 60.099,9.1905 C60.987,10.6925 61.838,12.1325 62.747,13.6695" id="Path"></path>
            <path d="M136.508,7.8595 C135.247,8.6565 134.156,8.5265 133.094,7.6075 C132.54,8.4165 132.023,9.1715 131.484,9.9595 C132.577,10.6365 133.585,11.2615 134.797,10.6225 C135.832,10.0765 136.321,9.1445 136.508,7.8595" id="Path"></path>
            <path d="M160.294,2.9025 C159.506,3.6385 158.811,4.2895 158.087,4.9665 C158.7,5.6505 159.258,6.2725 159.853,6.9375 C160.618,6.2405 161.337,5.5855 162.076,4.9115 C161.447,4.2025 160.892,3.5775 160.294,2.9025" id="Path"></path>
            <path d="M10.039,11.0495 C10.631,11.5325 11.173,11.9745 11.757,12.4505 C12.333,11.9825 12.874,11.5425 13.481,11.0495 C12.848,10.5405 12.302,10.1015 11.746,9.6535 C11.161,10.1315 10.636,10.5605 10.039,11.0495" id="Path"></path>
            <path d="M110.926206,19.5330355 C111.765565,19.0651626 112.596536,18.59617 113.4202,18.115 C113.6552,17.979 113.8772,17.599 113.8822,17.328 C113.9212,15.265 113.9092,13.2 113.8942,11.136 C113.8932,10.95 113.8102,10.706 113.6782,10.588 C112.7462,9.755 111.7752,8.966 110.8492,8.126 C110.4572,7.77 110.1432,7.768 109.6922,8.023 C108.3082,8.805 106.8842,9.517 105.5092,10.315 C105.2662,10.456 105.0572,10.878 105.0522,11.174 C105.0132,13.331 105.0202,15.49 105.0442,17.648 C105.0472,17.92 105.1532,18.277 105.3432,18.448 C106.3162,19.324 107.3312,20.152 108.3142,20.982 C109.175037,20.503042 110.026306,20.0343876 110.869101,19.5648579 C109.857948,18.6594859 109.05153,17.9522688 108.2692,17.22 C108.1282,17.088 108.0242,16.843 108.0222,16.649 C108.0062,14.208 108.0122,11.767 108.0122,9.008 C109.0332,9.93 109.9392,10.626 110.6742,11.471 C110.9582,11.798 110.9102,12.463 110.9162,12.976 C110.939923,15.0705704 110.926518,17.1651407 110.926206,19.5330355 Z" id="Path"></path>
            <path d="M153.196,12.4675 C153.795,11.9695 154.327,11.5255 154.915,11.0365 C154.278,10.5235 153.733,10.0845 153.187,9.6445 C152.598,10.1365 152.079,10.5685 151.497,11.0535 C152.079,11.5375 152.599,11.9705 153.196,12.4675" id="Path"></path>
        </g>
    </g>
</svg>