<?xml version="1.0" encoding="UTF-8" standalone="no"?>
<svg width="44px" height="44px" viewBox="0 0 44 44" version="1.1" xmlns="http://www.w3.org/2000/svg" xmlns:xlink="http://www.w3.org/1999/xlink">
    <defs></defs>
    <g id="Homepage" stroke="none" stroke-width="1" fill="none" fill-rule="evenodd">
        <g id="Large-Device-HOMEPAGE-B-Review-Copy-4" transform="translate(-740.000000, -3472.000000)" fill="#FFFFFF">
            <g id="Footer-Copy" transform="translate(-7.000000, 3423.000000)">
                <g id="Section-Footer-Copy" transform="translate(7.000000, 0.000000)">
                    <g id="Mail-Copy" transform="translate(715.000000, 49.000000)">
                        <g id="Page-1-+-Oval-Copy" transform="translate(25.000000, 0.000000)">
                            <path d="M29.2043595,28.2405688 C29.2043595,29.2475162 29.8550986,30.1285817 30.8530706,30.612275 L30.8530706,31 C29.0050089,30.9582793 27.3085927,30.6741901 25.7073,29.0899208 C25.3284549,29.137581 24.9404343,29.162671 24.5449587,29.162671 C22.8340985,29.162671 21.2581457,28.6990641 20,27.9200144 C22.592634,27.9108711 25.0403606,27.0766739 26.8965225,25.5681066 C27.832166,24.8075954 28.5702151,23.9153348 29.0902759,22.9160187 C29.6415905,21.8565155 29.9211904,20.7277178 29.9211904,19.5609791 C29.9211904,19.3729302 29.9131261,19.1859611 29.8986461,19 C31.1991565,20.0787257 32,21.5489921 32,23.1698704 C32,25.050504 30.921958,26.7285457 29.2359359,27.8272858 C29.2154346,27.962131 29.2043595,28.100072 29.2043595,28.2405688 M19.5,13 L19.5,13 C24.1944437,13 28,16.1056071 28,19.9365714 C28,23.7675357 24.1944437,26.8731429 19.5,26.8731429 C19.0491813,26.8731429 18.6066854,26.8442143 18.1748146,26.7890357 C16.3489792,28.6228571 14.2405187,28.9516786 12.1333333,29 L12.1333333,28.5511786 C13.2711292,27.9912857 14.1875,26.9715 14.1875,25.8059643 C14.1875,25.6433571 14.1748917,25.4837143 14.1515521,25.3275357 C12.2291708,24.0557857 11,22.1133929 11,19.9365714 C11,16.1056071 14.8055917,13 19.5,13" id="Page-1"></path>
                            <path d="M22,42 L22,42 C33.045695,42 42,33.045695 42,22 C42,10.954305 33.045695,2 22,2 C10.954305,2 2,10.954305 2,22 C2,33.045695 10.954305,42 22,42 L22,42 Z M22,44 L22,44 C9.8497355,44 0,34.1502645 0,22 C0,9.8497355 9.8497355,0 22,0 C34.1502645,0 44,9.8497355 44,22 C44,34.1502645 34.1502645,44 22,44 L22,44 Z" id="Shape"></path>
                        </g>
                    </g>
                </g>
            </g>
        </g>
    </g>
</svg>