<?xml version="1.0" encoding="UTF-8" standalone="no"?>
<svg width="117px" height="16px" viewBox="0 0 117 16" version="1.1" xmlns="http://www.w3.org/2000/svg" xmlns:xlink="http://www.w3.org/1999/xlink">
    <defs></defs>
    <g id="Homepage" stroke="none" stroke-width="1" fill="none" fill-rule="evenodd">
        <g id="Large-Device-HOMEPAGE-B-Review-Copy-4" transform="translate(-278.000000, -1584.000000)">
            <g id="Section-Plus" transform="translate(7.000000, 1094.000000)">
                <g id="Section-Press-Copy" transform="translate(78.000000, 476.000000)">
                    <g id="spiegel" transform="translate(193.000000, 14.000000)">
                        <path d="M34.999,13.475 L36.163,13.475 L36.163,15.944 L30.876,15.944 L30.876,13.467 L31.897,13.467 C31.911,13.335 31.93,13.243 31.93,13.15 C31.932,11.925 31.933,10.7 31.93,9.476 C31.93,9.329 31.985,9.135 31.729,9.135 C30.64,9.134 29.552,9.135 28.436,9.135 L28.436,13.461 L29.528,13.461 L29.528,15.948 L24.198,15.948 L24.198,13.46 L25.517,13.46 L25.517,3.096 C25.081,3.07 24.641,3.044 24.187,3.018 L24.187,0.486 C24.34,0.477 24.493,0.461 24.646,0.461 C27.47,0.469 30.295,0.478 33.12,0.491 C33.313,0.492 33.512,0.495 33.696,0.544 C34.523,0.765 35.013,1.425 35.01,2.285 C35.006,3.509 34.992,4.734 35.002,5.958 C35.011,7.028 34.652,7.576 33.626,7.95 C33.799,8.027 33.961,8.08 34.102,8.167 C34.664,8.515 34.998,9.004 34.999,9.687 L34.999,13.475 L34.999,13.475 Z" id="Path" fill="#A8A8A8"></path>
                        <path d="M106.722,13.4694 C106.414,13.4694 106.125,13.4514 105.84,13.4794 C105.746,13.4884 105.591,13.6144 105.589,13.6904 C105.57,14.4374 105.578,15.1854 105.578,15.9424 L116.115,15.9424 C116.115,14.2104 116.113,12.5144 116.118,10.8174 C116.119,10.6024 116.02,10.5504 115.83,10.5524 C115.26,10.5574 114.69,10.5504 114.12,10.5494 C113.243,10.5494 113.243,10.5494 113.243,11.4274 L113.243,13.4424 L109.76,13.4424 L109.76,3.0204 L110.952,3.0204 L110.952,0.5054 L105.595,0.5054 L105.595,3.0304 C105.989,3.0534 106.356,3.0744 106.722,3.0954 L106.722,13.4694 Z" id="Path" fill="#A8A8A8"></path>
                        <path d="M56.748,9.1154 C56.923,9.1154 57.056,9.1154 57.188,9.1164 C58.582,9.1204 59.976,9.1284 61.371,9.1284 C62.427,9.1284 63.18,8.3734 63.18,7.3234 C63.18,5.6264 63.193,3.9284 63.168,2.2314 C63.164,1.9214 63.06,1.5834 62.907,1.3104 C62.568,0.7054 61.995,0.4824 61.316,0.4834 C59.17,0.4864 57.024,0.4854 54.878,0.4814 C54.188,0.4794 53.497,0.4564 52.806,0.4664 C52.705,0.4684 52.52,0.5974 52.518,0.6724 C52.496,1.4444 52.504,2.2174 52.504,3.0144 C52.781,3.0354 53.001,3.0864 53.211,3.0604 C53.601,3.0124 53.671,3.1854 53.67,3.5344 C53.667,6.6984 53.68,9.8624 53.687,13.0274 C53.687,13.1574 53.676,13.2874 53.669,13.4624 L52.487,13.4624 C52.487,14.1944 52.501,14.8814 52.481,15.5684 C52.473,15.8774 52.552,15.9894 52.884,15.9854 C54.411,15.9654 55.939,15.9734 57.467,15.9704 C57.572,15.9704 57.677,15.9544 57.794,15.9454 L57.794,13.4714 L56.748,13.4714 L56.748,9.1154 Z" id="Path" fill="#A8A8A8"></path>
                        <path d="M88.737,5.1554 C89.045,5.1554 89.285,5.1544 89.525,5.1564 C90.216,5.1604 90.907,5.1634 91.598,5.1724 C91.842,5.1754 91.823,5.0104 91.823,4.8494 C91.823,4.0134 91.825,3.1764 91.823,2.3404 C91.821,1.2254 91.094,0.4884 89.985,0.4884 C88.082,0.4874 86.178,0.4924 84.275,0.5004 C83.184,0.5044 82.493,1.2064 82.487,2.3084 C82.482,3.1934 82.481,4.0784 82.479,4.9634 C82.472,8.0784 82.46,11.1934 82.465,14.3084 C82.466,15.0504 83.044,15.7664 83.751,15.9264 C84.043,15.9924 84.353,15.9954 84.654,15.9954 C86.897,15.9924 89.14,15.9804 91.383,15.9714 L91.787,15.9714 L91.787,6.6454 L86.423,6.6454 L86.423,9.1364 C87.077,9.1364 87.706,9.1494 88.334,9.1314 C88.614,9.1234 88.752,9.1744 88.747,9.4994 C88.732,10.6994 88.742,11.8994 88.739,13.0994 C88.739,13.2134 88.713,13.3274 88.698,13.4484 L85.355,13.4484 L85.355,3.0684 C85.428,3.0544 85.473,3.0374 85.519,3.0384 C86.5,3.0444 87.482,3.0564 88.464,3.0554 C88.706,3.0554 88.74,3.1824 88.738,3.3774 C88.733,3.9454 88.737,4.5134 88.737,5.1554 L88.737,5.1554 Z" id="Path" fill="#A8A8A8"></path>
                        <path d="M16.269,13.4514 L16.269,9.1264 L20.907,9.1264 L20.907,6.6104 L16.28,6.6104 L16.28,3.0824 L19.863,3.0824 C19.863,3.6874 19.879,4.2444 19.856,4.8004 C19.843,5.1124 19.959,5.1934 20.252,5.1844 C20.943,5.1644 21.635,5.1594 22.325,5.1764 C22.635,5.1844 22.745,5.1074 22.738,4.7744 C22.712,3.5864 22.72,2.3984 22.716,1.2094 C22.715,0.9834 22.716,0.7564 22.716,0.4994 C22.019,0.4994 21.367,0.5014 20.714,0.4994 C18.035,0.4874 15.355,0.4734 12.676,0.4614 C12.164,0.4584 12.16,0.4604 12.168,0.9844 C12.177,1.5654 12.209,2.1474 12.201,2.7284 C12.197,2.9984 12.324,3.0644 12.548,3.0654 L13.29,3.0654 L13.29,13.4654 L12.168,13.4654 C12.168,14.1904 12.187,14.8674 12.16,15.5434 C12.146,15.9014 12.27,15.9864 12.613,15.9844 C15.85,15.9704 19.087,15.9734 22.325,15.9704 C22.452,15.9704 22.58,15.9594 22.706,15.9534 L22.706,10.5654 C21.811,10.5654 20.941,10.5594 20.071,10.5774 C20,10.5784 19.876,10.7414 19.873,10.8324 C19.853,11.3294 19.863,11.8264 19.863,12.3234 L19.863,13.4514 L16.269,13.4514 Z" id="Path" fill="#A8A8A8"></path>
                        <path d="M80.952,15.9514 L80.952,10.6054 L78.113,10.6054 L78.113,13.4444 L74.548,13.4444 L74.548,9.1134 L79.165,9.1134 L79.165,6.6044 L74.547,6.6044 L74.547,3.0604 C75.675,3.0604 76.776,3.0544 77.877,3.0724 C77.956,3.0734 78.093,3.2474 78.097,3.3454 C78.121,3.8414 78.097,4.3394 78.12,4.8354 C78.124,4.9384 78.251,5.1194 78.325,5.1214 C79.194,5.1414 80.065,5.1344 80.955,5.1344 L80.955,0.4994 L70.475,0.4994 L70.475,3.0304 C70.68,3.0434 70.874,3.0824 71.06,3.0604 C71.431,3.0174 71.495,3.1874 71.495,3.5184 C71.493,6.6834 71.506,9.8474 71.513,13.0114 C71.513,13.1524 71.498,13.2924 71.488,13.4684 L70.477,13.4684 L70.477,15.9514 L80.952,15.9514 Z" id="Path" fill="#A8A8A8"></path>
                        <path d="M94.427,3.0954 L94.427,13.4334 C94.073,13.4504 93.74,13.4664 93.403,13.4824 L93.403,15.9504 L103.899,15.9504 L103.899,10.6134 C103.788,10.5994 103.694,10.5774 103.6,10.5764 C102.861,10.5694 102.121,10.5754 101.382,10.5574 C101.108,10.5504 101.023,10.6544 101.027,10.9174 C101.037,11.6324 101.029,12.3484 101.025,13.0634 C101.024,13.1904 101.005,13.3164 100.993,13.4484 L97.534,13.4484 L97.534,9.1134 L102.09,9.1134 L102.09,6.6414 L97.538,6.6414 L97.538,3.0604 C98.645,3.0604 99.722,3.0614 100.8,3.0584 C101.012,3.0584 101.026,3.1894 101.025,3.3484 C101.024,3.8454 101.014,4.3424 101.036,4.8394 C101.041,4.9404 101.17,5.1194 101.245,5.1214 C102.116,5.1414 102.987,5.1344 103.887,5.1344 L103.887,0.4944 L93.388,0.4944 L93.388,3.0174 C93.746,3.0444 94.079,3.0694 94.427,3.0954 L94.427,3.0954 Z" id="Path" fill="#A8A8A8"></path>
                        <path d="M80.9515,15.9512 L70.4775,15.9512 L70.4775,13.4682 L71.4875,13.4682 C71.4975,13.2922 71.5135,13.1522 71.5125,13.0112 C71.5055,9.8472 71.4925,6.6832 71.4955,3.5192 C71.4955,3.1872 71.4315,3.0172 71.0605,3.0602 C70.8735,3.0822 70.6805,3.0432 70.4755,3.0312 L70.4755,0.4992 L80.9555,0.4992 L80.9555,5.1342 C80.0645,5.1342 79.1945,5.1412 78.3245,5.1212 C78.2505,5.1202 78.1245,4.9382 78.1195,4.8362 C78.0975,4.3402 78.1205,3.8412 78.0975,3.3452 C78.0925,3.2472 77.9555,3.0732 77.8775,3.0722 C76.7765,3.0542 75.6745,3.0602 74.5475,3.0602 L74.5475,6.6042 L79.1645,6.6042 L79.1645,9.1132 L74.5475,9.1132 L74.5475,13.4452 L78.1125,13.4452 L78.1125,10.6052 L80.9515,10.6052 L80.9515,15.9512 Z" id="Fill-8" fill="#A8A8A8"></path>
                        <path d="M41.6148,10.5714 L44.4908,10.5714 L44.4908,13.4554 L47.8868,13.4554 L47.8868,9.1394 L41.6148,9.1394 L41.6148,8.7034 C41.6148,6.5444 41.6148,4.3854 41.6158,2.2274 C41.6158,1.3504 42.2858,0.5714 43.1638,0.5094 C43.9118,0.4564 44.6658,0.4754 45.4168,0.4744 C46.6178,0.4744 47.8198,0.5194 49.0188,0.4794 C50.2568,0.4394 51.0288,1.4064 50.9638,2.4234 C50.9068,3.3024 50.9518,4.1894 50.9518,5.1364 L49.5938,5.1364 C49.1328,5.1364 48.6718,5.1264 48.2108,5.1394 C47.9738,5.1474 47.8898,5.0634 47.8948,4.8254 C47.9078,4.2584 47.8988,3.6904 47.8988,3.0774 L44.5458,3.0774 C44.5348,3.1364 44.5068,3.2154 44.5078,3.2944 C44.5158,4.2884 44.5348,5.2824 44.5348,6.2774 C44.5348,6.5504 44.6388,6.6214 44.9028,6.6204 C46.7578,6.6104 48.6128,6.6154 50.4688,6.6154 L50.9478,6.6154 L50.9478,7.0314 C50.9478,9.4204 50.9478,11.8104 50.9458,14.1994 C50.9458,15.1044 50.2538,15.8754 49.3438,15.9634 C49.0318,15.9944 48.7148,15.9804 48.3998,15.9804 C46.7748,15.9804 45.1498,15.9804 43.5248,15.9764 C42.3168,15.9734 41.6118,15.2624 41.6118,14.0544 C41.6118,13.0354 41.6138,12.0174 41.6148,10.9984 L41.6148,10.5714" id="Fill-11" fill="#A8A8A8"></path>
                        <path d="M1.193,3.0664 L1.193,13.4664 L0.02,13.4664 L0.02,15.9644 C0.304,15.9774 0.568,16.0004 0.831,16.0004 C3.425,15.9934 6.019,15.9564 8.613,15.9874 C9.688,16.0004 10.525,15.0814 10.515,14.0984 C10.477,10.1954 10.499,6.2914 10.498,2.3884 C10.498,1.1854 9.805,0.4844 8.613,0.4854 C5.886,0.4884 3.158,0.4934 0.431,0.4994 C0.301,0.4994 0.172,0.5114 0.001,0.5194 C0.001,1.3214 -0.006,2.0944 0.013,2.8664 C0.015,2.9354 0.181,3.0494 0.279,3.0574 C0.576,3.0824 0.876,3.0664 1.193,3.0664 L1.193,3.0664 Z" id="Path" fill="#A8A8A8"></path>
                        <path d="M63.906,15.9474 L63.906,13.4684 L64.978,13.4684 L64.978,3.0444 L63.926,3.0444 L63.926,0.4934 L69.056,0.4934 L69.056,3.0124 L68,3.0124 L68,13.4654 L69.06,13.4654 L69.06,15.9474 L63.906,15.9474 Z" id="Fill-14" fill="#A8A8A8"></path>
                        <path d="M28.417,3.047 L31.927,3.047 L31.927,6.605 L28.417,6.605 L28.417,3.047 Z" id="Fill-15" fill="#FFFFFF"></path>
                        <path d="M4.1593,13.4541 L4.1593,3.0491 C4.7153,3.0491 5.2673,3.0471 5.8203,3.0491 C6.2803,3.0501 6.7423,3.0761 7.2013,3.0511 C7.5323,3.0331 7.6103,3.1601 7.6083,3.4691 C7.5943,5.0081 7.5983,6.5481 7.5983,8.0871 C7.5983,9.7361 7.5933,11.3851 7.6083,13.0331 C7.6113,13.3601 7.5263,13.4701 7.1833,13.4621 C6.2993,13.4411 5.4143,13.4651 4.5293,13.4701 C4.4113,13.4701 4.2933,13.4601 4.1593,13.4541" id="Fill-16" fill="#FFFFFF"></path>
                        <path d="M56.7518,6.598 L56.7518,3.032 C57.2558,3.032 57.7378,3.029 58.2198,3.033 C58.7888,3.038 59.3568,3.05 59.9258,3.057 C60.0908,3.059 60.2408,3.053 60.2398,3.293 C60.2338,4.381 60.2368,5.469 60.2368,6.598 L56.7518,6.598 Z" id="Fill-17" fill="#FFFFFF"></path>
                    </g>
                </g>
            </g>
        </g>
    </g>
</svg>