<?xml version="1.0" encoding="UTF-8" standalone="no"?>
<svg width="20px" height="19px" viewBox="0 0 20 19" version="1.1" xmlns="http://www.w3.org/2000/svg" xmlns:xlink="http://www.w3.org/1999/xlink">
    <defs></defs>
    <g id="Page-1" stroke="none" stroke-width="1" fill="none" fill-rule="evenodd">
        <g id="PAW" fill="#62BC46">
            <path d="M12.2676471,8.48505882 C11.0147059,8.48505882 10.4958824,9.38035294 9.58176471,9.38035294 C8.66764706,9.38035294 8.14882353,8.48505882 6.89588235,8.48505882 C5.06294118,8.48505882 3.82882353,10.0403529 3.82882353,11.9603529 C3.82882353,12.4756471 3.91588235,12.9721176 4.06764706,13.4462353 C4.06764706,13.4462353 4.20647059,13.8732941 4.32882353,14.1085882 C5.72764706,17.118 8.75352941,18.6509412 8.75352941,18.6509412 C9.20882353,18.8815294 9.95470588,18.8815294 10.4111765,18.6509412 C10.4111765,18.6509412 13.4358824,17.118 14.8347059,14.1085882 C14.8347059,14.1085882 15.0158824,13.7085882 15.0958824,13.4462353 C15.2417647,12.9697647 15.3347059,12.4756471 15.3347059,11.9603529 C15.3347059,10.0403529 14.1005882,8.48505882 12.2676471,8.48505882" id="Fill-1"></path>
            <path d="M14.402,3.47729412 C14.1031765,5.17376471 13.2137647,6.43494118 11.7961176,6.18435294 C10.3772941,5.93494118 9.97376471,4.44552941 10.2725882,2.74905882 C10.5714118,1.05258824 11.9255294,-0.126235294 12.8784706,0.042 C13.8314118,0.210235294 14.7008235,1.78082353 14.402,3.47729412" id="Fill-4"></path>
            <path d="M4.76129412,3.47729412 C5.06011765,5.17376471 5.94952941,6.43494118 7.36717647,6.18435294 C8.786,5.93494118 9.18952941,4.44552941 8.89070588,2.74905882 C8.59188235,1.05258824 7.23776471,-0.126235294 6.28482353,0.042 C5.33188235,0.210235294 4.46247059,1.78082353 4.76129412,3.47729412" id="Fill-6"></path>
            <path d="M18.5045882,7.35823529 C17.5798824,8.67941176 16.3257647,9.39705882 15.2222353,8.62411765 C14.1175294,7.85117647 14.3645882,6.42764706 15.2892941,5.10647059 C16.214,3.78529412 17.8292941,3.32058824 18.5716471,3.84058824 C19.314,4.36058824 19.4292941,6.03705882 18.5045882,7.35823529" id="Fill-8"></path>
            <path d="M0.658823529,7.35823529 C1.58352941,8.67941176 2.83764706,9.39705882 3.94117647,8.62411765 C5.04588235,7.85117647 4.79882353,6.42764706 3.87411765,5.10647059 C2.94941176,3.78529412 1.33411765,3.32058824 0.591764706,3.84058824 C-0.150588235,4.36058824 -0.265882353,6.03705882 0.658823529,7.35823529" id="Fill-10"></path>
        </g>
    </g>
</svg>