<?xml version="1.0" encoding="UTF-8" standalone="no"?>
<svg width="111px" height="36px" viewBox="0 0 111 36" version="1.1" xmlns="http://www.w3.org/2000/svg" xmlns:xlink="http://www.w3.org/1999/xlink">
    <defs></defs>
    <g id="Page-1" stroke="none" stroke-width="1" fill="none" fill-rule="evenodd">
        <g id="Sofort" fill="#A6A6A6">
            <g>
                <path d="M0,14.5486511 C0.31437991,13.862713 0.295273949,13.0986245 0.478951714,12.3791934 C2.15159179,5.81767798 7.28545047,1.03084863 13.7567264,0.0215908296 C14.2456654,-0.0547733667 14.4571336,0.0541907496 14.4393303,0.628485231 C14.3989473,1.92131768 14.404158,3.21682957 14.4384619,4.50966201 C14.4510545,4.97409923 14.2474023,5.11655641 13.8713622,5.20765756 C9.25770676,6.32587947 6.34100805,9.2455819 5.21245365,13.9792689 C4.13383529,18.5039592 6.22984609,23.6212535 10.0953295,26.0756255 C14.8635696,29.1033989 20.8328798,28.1946203 24.5033955,23.8333763 C25.7617836,22.3377991 26.6119988,20.6006253 26.9198654,18.6214082 C26.9806571,18.2315489 27.1478343,18.0614041 27.5547044,18.0681027 C28.858252,18.0895383 30.1626681,18.0966835 31.4662158,18.0663164 C31.9725237,18.0547055 32.0493818,18.292283 31.9764317,18.7102765 C30.9351569,24.6814207 27.8868876,29.1310865 22.4091216,31.5416943 C16.7637442,34.0255403 11.3437303,33.3092352 6.40787892,29.6008826 C2.81291859,26.9004482 0.77943638,23.1376136 0.137649768,18.5964001 C0.11810958,18.4588552 0.139820899,18.3096994 0,18.2203845 L0,14.5486511 L0,14.5486511 Z" id="Fill-3"></path>
                <path d="M62.489509,13.5342651 C62.489509,12.4465967 62.5070573,11.3580471 62.4841095,10.2708191 C62.4652112,9.40693987 62.2289833,9.22456047 61.2755226,9.23337107 C60.3868557,9.24130061 60.1501779,9.43160955 60.1438785,10.2747839 C60.1267801,12.4272133 60.1267801,14.5796428 60.1429786,16.7320722 C60.149278,17.5567443 60.4134032,17.7730445 61.2764225,17.7787714 C62.2033357,17.7853793 62.4625115,17.582295 62.4832095,16.7281074 C62.5088571,15.6642275 62.489509,14.5990261 62.489509,13.5342651 L62.489509,13.5342651 Z M54.7866798,6.05318523 C57.4175836,6.05318523 60.0484874,6.05230417 62.6793912,6.05494735 C62.8683735,6.05538788 63.0578058,6.07741438 63.2463381,6.09723823 C65.6558626,6.35230508 66.890997,7.58490793 66.9544411,9.96200763 C67.0169853,12.3043055 67.0120357,14.6505681 66.9584907,16.9933065 C66.9035959,19.3924327 65.7224564,20.5902336 63.2850345,20.8792213 C61.9846562,21.0334068 60.6851778,21.03605 59.3847995,20.8836266 C56.8731346,20.5889121 55.703694,19.4069701 55.6600481,16.8977115 C55.618652,14.4862504 55.5547579,12.0708246 55.714043,9.66024461 C55.7383408,9.29240208 55.6132525,9.22852524 55.2919825,9.2294063 C52.9917978,9.23601425 50.692063,9.22852524 48.3923282,9.23469266 C47.8955747,9.23601425 47.5171601,9.39901034 47.4591156,9.97081823 C47.3650744,10.8994554 47.5054612,11.2338177 48.2010961,11.3858005 C49.1478075,11.5928496 50.115217,11.7122332 51.0587787,11.9311766 C52.743871,12.3228077 53.3684126,13.0562901 53.4660534,14.7474847 C53.5362468,15.9743606 53.5740433,17.2029987 53.3486144,18.4259099 C53.1056371,19.7448566 52.3398088,20.5360485 50.9903851,20.7778994 C50.2664029,20.9074152 49.5370211,20.9858296 48.80044,20.9858296 C45.1017862,20.9867106 41.4026824,20.9734947 37.7040285,20.9999265 C37.1334819,21.0038913 36.9624979,20.8483842 37.0065938,20.3008055 C37.0565391,19.6778961 37.0529394,19.0457356 37.0061438,18.4223857 C36.9665475,17.8959524 37.1465307,17.7629123 37.6788309,17.7668771 C41.0926614,17.7911062 44.5073918,17.780093 47.9216723,17.7787714 C49.0096705,17.7783309 49.1982028,17.5629117 49.2085518,16.5325121 C49.2144013,15.9386777 48.8976309,15.6827298 48.3851289,15.5818484 C47.5032114,15.4082796 46.6073453,15.2968255 45.7312773,15.0990276 C43.9129974,14.6880131 43.3492002,13.9937379 43.2025139,12.1593711 C43.1044231,10.9272088 43.116572,9.70473813 43.3474004,8.48667277 C43.585878,7.22675706 44.3373077,6.47080764 45.626887,6.22543245 C46.514654,6.05626894 47.4123199,6.00340534 48.3135856,6.00164322 C50.4711337,5.99855951 52.6286818,6.00076216 54.7866798,6.00076216 L54.7866798,6.05318523 L54.7866798,6.05318523 Z M74.5305231,30.831885 C74.5300737,29.963835 73.9310332,29.352735 73.0677498,29.340135 C72.2228915,29.327985 71.5285798,30.023685 71.5434097,30.868785 C71.5582397,31.689585 72.2255879,32.321385 73.0704462,32.313735 C73.9440656,32.306085 74.5309725,31.710285 74.5305231,30.831885 L74.5305231,30.831885 L74.5305231,30.831885 Z M71.6274462,36.000135 C71.5506,35.747235 71.2984907,35.759385 71.1182842,35.670735 C70.2770211,35.255835 70.2698308,35.200935 70.811349,34.473735 C71.0149239,34.200585 71.1681668,34.069185 71.4710575,34.349985 C71.6962032,34.558785 71.9883085,34.671285 72.2934462,34.744635 C73.7207174,35.089335 74.5179401,34.417935 74.4348024,32.933835 C72.9751749,33.789735 71.6310413,33.639885 70.7789927,32.526135 C69.9593004,31.454685 70.0864785,29.732985 71.0531223,28.816785 C71.9631425,27.953685 73.3333409,27.951885 74.4563733,28.860885 C74.5255798,28.097235 75.0787822,28.321335 75.519187,28.309635 C75.8139887,28.301535 75.7717457,28.533735 75.7712964,28.715535 C75.7681506,30.301335 75.7870251,31.888035 75.7470291,33.473385 C75.7142235,34.786485 74.9327296,35.560485 73.7589158,36.000135 L71.6274462,36.000135 L71.6274462,36.000135 Z M32.1134121,0.13797 C32.1300397,0.34992 32.1614972,0.56187 32.1614972,0.77382 C32.1641935,5.79627 32.1538575,10.81917 32.1758777,15.84162 C32.1781247,16.40322 32.0271287,16.56522 31.4685336,16.54767 C30.1684405,16.50627 28.865651,16.51212 27.5651085,16.54497 C27.0829101,16.55757 26.9795498,16.38837 26.9817968,15.93972 C26.9984243,12.69387 26.9750559,9.44802 27.0047158,6.20217 C27.0105579,5.57892 26.8842785,5.36292 26.2061449,5.37147 C22.9889425,5.41152 19.7708413,5.37462 16.5531895,5.40387 C15.9761692,5.40927 15.8386551,5.22837 15.855732,4.68342 C15.9029182,3.16917 15.8970761,1.65312 15.9119061,0.13797 L32.1134121,0.13797 L32.1134121,0.13797 Z" id="Fill-14"></path>
                <path d="M110.992521,6.75558773 C110.992521,7.78179056 110.992077,8.80754289 110.992077,9.83329523 C110.35948,10.0851159 109.701544,9.91708528 109.056944,9.93690658 C107.980685,9.9702424 106.902203,9.96213369 105.825054,9.93825803 C105.422291,9.92924835 105.309375,10.0684479 105.312042,10.4666759 C105.327601,12.8637019 105.312486,15.2611784 105.324489,17.6582044 C105.32849,18.4118643 105.603668,18.675848 106.358516,18.6826053 C107.717066,18.6943178 109.075615,18.7006246 110.43372,18.6776499 C110.84493,18.6704422 111.021862,18.7555837 110.997856,19.2191318 C110.958736,19.9763956 110.987631,20.7372633 110.986298,21.4967795 C110.985853,21.7319322 111.030753,21.9760946 110.65244,21.9684364 C108.335881,21.9202346 106.009543,22.1220515 103.703654,21.8715823 C101.869879,21.6720179 101.104362,20.7967272 101.059462,18.8979367 C100.987444,15.8859998 101.02123,12.8709096 101.014562,9.85717089 C101.010117,7.79260217 101.032344,5.72713249 101.000336,3.66301426 C100.991445,3.11612654 101.157263,2.98053082 101.675166,3.00215406 C102.704303,3.04449957 103.736551,3.03368795 104.766133,3.00575793 C105.190235,2.99449583 105.344939,3.11432461 105.328046,3.56030388 C105.296927,4.38964514 105.342716,5.22213979 105.309819,6.05148106 C105.291593,6.51322728 105.433404,6.65873365 105.896183,6.65107542 C107.465005,6.62494734 109.034272,6.64116477 110.603539,6.64341719 C110.74135,6.64386767 110.888052,6.62945218 110.992521,6.75558773" id="Fill-16"></path>
                <path d="M14.8781376,13.6075316 C14.8776976,14.8791194 14.9159754,16.1520239 14.8618586,17.420978 C14.8345802,18.0640143 15.0638067,18.1798925 15.6516124,18.1733085 C18.2232619,18.1430222 20.7957913,18.1798925 23.3674409,18.1487283 C24.0045236,18.1412664 24.1074776,18.2966486 23.9090492,18.8874518 C22.1698309,24.0778298 15.3343909,25.7330446 11.4159802,21.9007241 C8.32516106,18.8777953 8.17600979,14.2084304 11.1066783,11.0678676 C11.9342699,10.1812238 12.9620497,9.54389367 14.119182,9.14007568 C14.8306204,8.89207877 14.8750578,8.92192618 14.8772577,9.65450469 C14.8812174,10.9721803 14.8785776,12.289856 14.8781376,13.6075316" id="Fill-18"></path>
                <path d="M73.7969814,15.8454606 C73.7969814,17.6619263 73.7787089,19.478392 73.8082261,21.2939385 C73.8166596,21.812863 73.7117096,22.025213 73.1251144,21.9976351 C72.0662445,21.9470756 71.0017523,21.9553489 69.9419454,21.9948773 C69.4157901,22.0141818 69.28226,21.8496336 69.2850712,21.3449576 C69.3056864,17.7368463 69.281323,14.1282754 69.308966,10.5206237 C69.3136513,9.91253055 69.2040161,9.59538446 68.513408,9.71534842 C68.1259366,9.78291432 67.9970918,9.58619182 68.0073994,9.21388989 C68.0280146,8.46377044 68.043476,7.7108932 68.0027141,6.96261228 C67.9769452,6.48367573 68.1310904,6.27270463 68.6188265,6.35038244 C69.1923029,6.44138958 69.3464482,6.19089013 69.3052178,5.66001516 C69.2611763,5.08225771 69.2939732,4.49852506 69.2986585,3.91755019 C69.3155254,1.75682009 70.5500928,0.344830546 72.7212446,0.0672128096 C73.6517382,-0.0513722501 74.593945,0.0134358639 75.5314666,0.0612375934 C75.8669315,0.0782439779 76.0093636,0.202344622 75.9995245,0.549826424 C75.9784409,1.29994587 75.9821891,2.05144421 75.998119,2.80202329 C76.0051469,3.13066018 75.8903579,3.1697289 75.5637949,3.16697111 C74.1094886,3.15502068 73.798387,3.48319794 73.7969814,4.91541129 C73.7951073,6.32372378 73.7955759,6.35176134 75.2733085,6.33475495 C75.8406941,6.3283201 75.9976504,6.50206101 75.9629795,7.03799193 C75.9165954,7.76145272 75.9353364,8.49088873 75.9592313,9.21664768 C75.971413,9.5930863 75.8411626,9.76131162 75.4541597,9.71856584 C75.4054329,9.71305026 75.3557691,9.71810621 75.3061053,9.71902547 C73.7960444,9.75165935 73.7965129,9.75165935 73.7969814,11.268445 C73.79745,12.7939636 73.79745,14.3199419 73.7969814,15.8454606" id="Fill-20"></path>
                <path d="M94.3547812,7.48170811 C95.0002636,6.31830005 96.0538422,6.02073522 97.2795495,6.01237171 C98.0016386,6.00708949 98.7246735,6.02865854 99.4458169,6.00444839 C99.8733012,5.98992229 100.010437,6.1360636 99.9953045,6.52738776 C99.9674045,7.24488876 99.9560554,7.96591123 99.9976689,8.68209167 C100.026042,9.17421813 99.794803,9.25961395 99.3370543,9.24816915 C98.3667027,9.22307862 97.3949325,9.2380449 96.4236351,9.24200656 C94.8773145,9.24860933 94.5202895,9.57478617 94.5188708,10.9965826 C94.5150878,14.1025256 94.5013742,17.2084685 94.5316386,20.3144115 C94.5368403,20.8694844 94.3689676,21.0217883 93.7868512,20.9975781 C92.743203,20.9539998 91.695299,20.9676455 90.6502322,20.9927361 C90.1953208,21.0037407 89.9976565,20.9223065 90.0000209,20.4332614 C90.0198819,15.7976767 90.0165718,11.1616519 90.003804,6.52606721 C90.0028582,6.13914489 90.1097293,5.99520451 90.543834,6.00488857 C91.6139635,6.02865854 92.6859845,6.03350057 93.7556411,6.00092691 C94.2649338,5.98552045 94.4138913,6.16115413 94.3614015,6.60397989 C94.3268812,6.89318122 94.3547812,7.18898531 94.3547812,7.48170811" id="Fill-22"></path>
                <path d="M18.9627421,16.9916067 C17.8134607,16.9916067 17.6641792,16.9778478 16.5148978,16.9991979 C16.1253189,17.006789 15.9971991,16.8858052 16.0000463,16.4910656 C16.0147563,14.1677008 16.0133327,11.8448105 16.0005208,9.52144569 C15.9986227,9.14093956 16.1096598,8.99765669 16.508729,9.00002893 C18.8324414,9.01521122 21.1561537,9.01473677 23.4793916,9.00097782 C23.8680214,8.99860559 24.0004118,9.11816612 23.9980392,9.51290566 C23.9833292,11.835796 23.9790585,14.1591608 23.9999373,16.4825256 C24.0042079,16.9527021 23.7902005,17.0048913 23.4105865,16.9996723 C22.2613051,16.9844901 21.1120236,16.9944534 19.9627421,16.9944534 L18.9627421,16.9916067 Z" id="Fill-24"></path>
                <path d="M41.5829229,30.4186287 C41.6003917,29.5745244 40.8885357,28.8980189 39.9888894,28.9041292 C39.1057415,28.9102396 38.4098985,29.5404809 38.3914592,30.3514146 C38.3720493,31.2029386 39.0610988,31.8510745 39.9903451,31.8558755 C40.8788308,31.8602401 41.565454,31.2404737 41.5829229,30.4186287 M38.4307641,28.3402292 C40.1994862,27.4943791 41.5237228,27.6327354 42.411238,28.6981224 C43.2579925,29.7146265 43.1813236,31.3775207 42.2462543,32.2774912 C41.279644,33.2080136 39.8408893,33.2468581 38.4065018,32.3525615 C38.4428953,33.0849333 37.8649671,32.8658328 37.4345538,32.8894013 C36.8556552,32.9208261 37.0225799,32.5288894 37.0216094,32.2683256 C37.0119045,30.040222 37.0356815,27.811682 37.0021995,25.5840148 C36.9944356,25.0550312 37.2326915,24.998292 37.7198786,25.0000378 C38.197846,25.0017836 38.4734658,25.0384459 38.444351,25.5765951 C38.3948559,26.4809302 38.4307641,27.3887569 38.4307641,28.3402292" id="Fill-26"></path>
                <path d="M60.8442284,27.9788097 C60.243459,28.6130211 59.7207985,29.2003848 59.1575214,29.7462044 C58.815181,30.0781157 58.7424281,30.313238 59.1102097,30.702604 C59.7600762,31.3902924 60.3425458,32.1402971 61,32.9199131 C59.9685155,33.0807862 59.1347582,33.0869736 58.5933516,32.0837263 C58.3010009,31.5427683 57.8327935,31.0950637 57.298082,30.4219599 C57.298082,31.2559368 57.2663921,31.8888224 57.3070087,32.5172883 C57.3467327,33.1267499 56.9303004,32.9610153 56.6102769,32.9795775 C56.2715072,32.9994657 55.992993,33.0304028 56.0001343,32.5075652 C56.0318243,30.1598781 56.0336096,27.8113072 56.0072757,25.4636202 C56.0014734,24.9257559 56.3112311,25.0026568 56.6325937,25.0057505 C56.9722561,25.0092862 57.3288792,24.9001222 57.3114721,25.4945573 C57.2695164,26.926505 57.298082,28.3602205 57.298082,29.9680679 C57.7725381,29.4668862 58.1925411,29.1252518 58.4804283,28.6969933 C59.0611126,27.8334052 59.8676434,27.8555031 60.8442284,27.9788097" id="Fill-28"></path>
                <path d="M51.4506799,28.62265 C51.8438609,28.3016567 52.2248137,28.0668248 52.714879,28.016564 C53.8789015,27.8974586 54.7273447,28.4249857 54.8990086,29.460189 C55.074435,30.5190444 54.9714367,31.5914154 54.9554461,32.6570285 C54.9465101,33.2415742 54.3882496,32.8855251 54.0891311,32.9573262 C53.8201125,33.0215248 53.5506237,32.9949162 53.5609705,32.6114137 C53.5816643,31.8338498 53.5816643,31.0545964 53.5609705,30.27661 C53.5398065,29.4910212 53.1884833,29.1049846 52.558265,29.1168107 C51.8908921,29.1294815 51.4577346,29.5522634 51.426694,30.2880137 C51.3951831,31.0208076 51.3693159,31.757825 51.4234018,32.4880847 C51.4647893,33.0468664 51.0932427,32.9674628 50.7226367,32.9691523 C50.3515604,32.9708417 50.0011779,33.0455993 50.0232825,32.4910412 C50.072195,31.269155 50.0246935,30.0447346 50.0500903,28.8220037 C50.0552638,28.5875941 49.8121124,28.1749488 50.3529713,28.1512967 C50.7734304,28.1331352 51.3208737,27.9443405 51.4506799,28.62265" id="Fill-30"></path>
                <path d="M46.0730328,30.7700502 C45.6044336,30.7799976 45.1757962,30.8069383 44.7928294,30.984747 C44.3266088,31.2015162 44.2647633,31.6118441 44.6344095,31.8895407 C45.2014859,32.3156186 46.3760762,32.0399943 46.5834967,31.4141406 C46.7128967,31.0245364 46.7585673,30.6299585 46.0730328,30.7700502 M46.766179,32.2766581 C45.8960593,33.0135904 45.0111918,33.163215 44.0411677,32.8353672 C43.4070127,32.6210849 43.0245216,32.2124149 43.0012105,31.597752 C42.976948,30.9631945 43.3180502,30.5143206 43.9660016,30.24367 C44.683886,29.9440063 45.4640918,29.9311577 46.2376372,29.887638 C46.3984357,29.8785196 46.6286916,29.9626576 46.6981489,29.7811186 C46.7733151,29.5846586 46.645818,29.3993893 46.4935828,29.2476923 C46.1072858,28.8634762 45.2818852,28.8265882 44.531175,29.1370282 C44.3465897,29.2137056 44.1905486,29.4636326 43.9431663,29.2936988 C43.7523964,29.162311 43.5259465,29.0006667 43.4645766,28.8149829 C43.3965465,28.6081611 43.6995898,28.5091022 43.8803692,28.4170892 C44.6938764,28.0030311 45.5754138,27.9060445 46.4854953,28.087169 C47.3637025,28.2620765 47.8936715,28.7540555 47.9464781,29.5490139 C48.0126053,30.5478929 47.9740708,31.55216 47.9997605,32.5539403 C48.0083237,32.8855184 47.7861553,32.8896631 47.5173649,32.8784724 C47.1272621,32.8623079 46.606332,33.0260246 46.766179,32.2766581" id="Fill-32"></path>
                <path d="M65.4266337,28.6919119 C66.1213726,27.9703553 66.9216052,27.8631599 67.7969191,28.1411054 C68.6798362,28.421593 68.9530748,29.0745106 68.9692315,29.8392843 C68.9882394,30.7531995 68.9625787,31.6683858 68.9991689,32.5814536 C69.021028,33.1275995 68.6071309,32.9848135 68.2949262,32.9788817 C67.9912749,32.9737973 67.5597955,33.1449711 67.5845058,32.5873853 C67.6182448,31.8302382 67.6087409,31.0705488 67.5868818,30.3125543 C67.5640723,29.5181218 67.2209797,29.1274728 66.5941941,29.1198462 C65.9350951,29.1122197 65.4646496,29.5240535 65.4100018,30.2672187 C65.3539285,31.0222473 65.3463254,31.7844789 65.3914691,32.5399312 C65.422357,33.0542998 65.0854419,32.9945585 64.7342709,32.9869319 C64.378348,32.9793054 63.9829836,33.098788 64.0005659,32.5293388 C64.0404825,31.2586705 64.0086443,29.986731 64.0195738,28.715639 C64.0214746,28.4792159 63.8774897,28.1720353 64.3864263,28.1355973 C65.100173,28.0843299 65.2617402,28.1330551 65.4266337,28.6919119" id="Fill-34"></path>
                <path d="M62.0070507,30.5071678 C62.0070507,29.8187626 62.0259219,29.1290502 62.000985,28.441952 C61.9811028,27.8934063 62.2661928,28.0097381 62.4966912,28.0140951 C62.7201128,28.0188878 63.0065508,27.8716213 62.9984631,28.4310595 C62.978918,29.8078701 62.978581,31.185552 62.9998111,32.5623625 C63.0082357,33.1139581 62.7332553,32.9902195 62.5041049,32.983684 C62.2833791,32.9771485 61.9831247,33.1379216 62.0030069,32.5723836 C62.0276068,31.8852854 62.0087356,31.1955731 62.0087356,30.5071678 L62.0070507,30.5071678 L62.0070507,30.5071678 Z" id="Fill-36"></path>
                <path d="M62.4990517,27 C62.1833211,26.9657478 61.9903901,26.8097418 62.0003693,26.4824745 C62.0103485,26.1554952 62.2210203,25.9882636 62.5140204,26.0006405 C62.8011994,26.0130173 63.0093764,26.179961 62.9996744,26.5141363 C62.9902496,26.849175 62.7745882,26.9709288 62.4990517,27" id="Fill-38"></path>
                <path d="M83.6576874,16.7194094 C83.6493604,17.512207 83.4069994,17.7421184 82.6159296,17.760617 C81.6911887,17.7817582 81.3765139,17.5659411 81.3690634,16.776667 C81.3475883,14.5766534 81.3489031,12.375759 81.3690634,10.175305 C81.3760756,9.41245746 81.691627,9.18518879 82.5576402,9.20016386 C83.3850861,9.21425804 83.645416,9.43051563 83.6568109,10.187197 C83.673465,11.2759724 83.6611935,12.3647479 83.6611935,13.4535234 C83.660317,14.5418584 83.6690823,15.6306339 83.6576874,16.7194094 M87.97855,13.6103211 L87.9754822,13.6103211 C87.9754822,12.2889917 88.0320185,10.942557 87.9623342,9.6476541 C87.8584652,7.71675132 86.8714906,6.59009773 84.9922068,6.22056593 C83.5989598,5.94705073 82.1921265,5.96070447 80.784855,6.08490944 C78.2845486,6.3060119 77.0666079,7.56479843 77.0232196,10.0797288 C76.985967,12.2370194 77.0026211,14.3912269 77.0113864,16.5493983 C77.0131395,16.9876392 77.0604722,17.427642 77.1292799,17.8614785 C77.3782149,19.4325392 78.2770981,20.406359 79.8346948,20.7265612 C81.5737335,21.0837606 83.3276733,21.0890459 85.0645207,20.7538686 C86.8991013,20.3997523 87.8628479,19.3453314 87.965402,17.4390935 C88.034648,16.1441906 87.97855,14.9316506 87.97855,13.6103211" id="Fill-40"></path>
            </g>
        </g>
    </g>
</svg>