<?xml version="1.0" encoding="UTF-8" standalone="no"?>
<svg width="41px" height="41px" viewBox="0 0 41 41" version="1.1" xmlns="http://www.w3.org/2000/svg" xmlns:xlink="http://www.w3.org/1999/xlink">
    <defs></defs>
    <g id="Page-1" stroke="none" stroke-width="1" fill="none" fill-rule="evenodd">
        <g fill="#A8A8A8">
            <path d="M15.1786,18.1942 C12.9346,19.0002 10.7136,19.7982 8.4766,20.6012 C8.4746,20.5502 8.4706,20.5142 8.4706,20.4772 C8.4706,18.8912 8.4716,17.3062 8.4686,15.7202 C8.4686,15.6352 8.4926,15.5972 8.5736,15.5682 C15.2766,13.1652 21.9796,10.7612 28.6816,8.3572 C28.7176,8.3442 28.7546,8.3322 28.8066,8.3142 L28.8066,8.4392 C28.8066,15.0882 28.8066,21.7362 28.8086,28.3842 C28.8086,28.4792 28.7806,28.5172 28.6906,28.5482 C24.2306,30.1232 19.7716,31.7022 15.3116,33.2792 C15.2726,33.2932 15.2326,33.3042 15.1786,33.3212 L15.1786,18.1942 Z" id="Fill-5"></path>
            <path d="M20.6303,38.1153 C10.8113,38.1153 2.8513,30.1553 2.8513,20.3363 C2.8513,10.5183 10.8113,2.5583 20.6303,2.5583 C30.4493,2.5583 38.4093,10.5183 38.4093,20.3363 C38.4093,30.1553 30.4493,38.1153 20.6303,38.1153 M20.6303,0.5733 C9.7153,0.5733 0.8663,9.4213 0.8663,20.3363 C0.8663,31.2523 9.7153,40.1003 20.6303,40.1003 C31.5453,40.1003 40.3943,31.2523 40.3943,20.3363 C40.3943,9.4213 31.5453,0.5733 20.6303,0.5733" id="Fill-7"></path>
        </g>
    </g>
</svg>