<?xml version="1.0" encoding="UTF-8" standalone="no"?>
<svg width="87px" height="24px" viewBox="0 0 87 24" version="1.1" xmlns="http://www.w3.org/2000/svg" xmlns:xlink="http://www.w3.org/1999/xlink">
    <defs></defs>
    <g id="Page-1" stroke="none" stroke-width="1" fill="none" fill-rule="evenodd">
        <g id="Klarna" fill="#A6A6A6">
            <g>
                <path d="M59.3563608,7.75553846 C59.6462657,7.59046881 59.8202087,7.5093063 59.9750841,7.40069752 C61.9425463,6.02524778 64.1251997,5.75431399 66.4140867,6.19306206 C67.9702341,6.49105003 69.0205072,7.48303631 69.4559483,8.99493317 C69.7470206,10.0061318 69.9474247,11.0796727 69.9645466,12.128904 C70.0252515,15.8067029 69.9789446,19.4860702 69.9999578,23.1646533 C70.00346,23.7896438 69.7894362,24.0201924 69.1718804,23.9986275 C68.1791992,23.9645157 67.1841832,23.9676524 66.1911128,23.9974512 C65.5922354,24.0154873 65.4015597,23.7645501 65.4042836,23.1822973 C65.4206272,19.8522817 65.4124554,16.5218741 65.4116772,13.1914664 C65.4116772,12.9083778 65.4108989,12.6252892 65.4038945,12.3425928 C65.3568092,10.3993975 64.3999284,9.49210257 62.5099039,9.79126681 C61.6355195,9.93006647 60.7860396,10.3307819 59.9774189,10.7220871 C59.7524994,10.831088 59.609298,11.331002 59.6073523,11.6529074 C59.5820586,15.4185344 59.5913978,19.1845534 59.5906196,22.9501803 C59.5906196,23.987649 59.5894522,23.9884332 58.5380117,23.9896094 C57.6091485,23.9907857 56.6798962,23.9758863 55.7514221,23.9943145 C55.246326,24.0041167 54.9988367,23.8382629 55.0000041,23.2842405 C55.0105107,17.8424313 55.0097325,12.400622 55.0007824,6.95881273 C55.0000041,6.4553699 55.1930146,6.25305175 55.6922737,6.26363816 C56.5993454,6.28363472 57.5079736,6.2957895 58.4138779,6.25893309 C59.0283207,6.23383936 59.2995472,6.45615407 59.2481815,7.08545762 C59.2333944,7.26503458 59.3042168,7.45206124 59.3563608,7.75553846 Z M0.00889333333,12.1179097 C0.00889333333,8.61507097 0.00773333333,5.11223226 0.00966666667,1.60939355 C0.0100533333,0.553006452 0.515813333,0.0381677419 1.58185333,0.022683871 C2.4186,0.0102967742 3.25612,0.0312 4.09325333,0.0161032258 C4.64696,0.0056516129 4.92497333,0.210425806 4.9242,0.805393548 C4.91569333,7.89700645 4.9242,14.9886194 4.91144,22.0798452 C4.90950667,23.219071 4.42733333,23.6444903 3.27042667,23.6487484 C2.45494667,23.6518452 1.63792,23.6251355 0.8236,23.6568774 C0.204933333,23.6812645 -0.00309333333,23.4284903 7.70317105e-14,22.8195871 C0.0181733333,19.2524903 0.00889333333,15.6850065 0.00889333333,12.1179097 Z M20.0071365,12.4730555 C20.0071365,8.94493907 20.00612,5.41682262 20.0078142,1.88832999 C20.008153,1.06902755 20.0698213,1.00394981 20.8203443,1.00169277 C21.6101724,0.999435742 22.4000005,0.999435742 23.1898285,1.00169277 C23.9345913,1.00394981 23.9915159,1.06376114 23.9918547,1.89660578 C23.9932101,8.28475735 23.9925324,14.6732851 23.9925324,21.0614367 C23.9925324,21.7919625 23.9728799,22.5236169 23.9986315,23.2533905 C24.0172675,23.7849214 23.8478492,24.0140101 23.3504371,23.9993394 C22.4484541,23.9726312 21.5447769,23.9737597 20.6427939,23.9982109 C20.1436876,24.011753 19.9979879,23.7740124 20.0000209,23.2454908 C20.0139132,19.6545537 20.0071365,16.0639927 20.0071365,12.4730555 Z M48.4459724,7.62202811 C48.7920972,7.37971045 49.0439598,7.20219411 49.296195,7.02664145 C50.2354635,6.3723445 51.2734653,6.05737082 52.3930615,6.00160241 C52.8181727,5.9803947 52.9977552,6.16890763 52.9914214,6.61426942 C52.9802441,7.39934721 52.9649684,8.18599594 52.9981278,8.96989553 C53.0216002,9.52797234 52.8263695,9.6701425 52.2987993,9.76047161 C51.24813,9.93995163 50.218325,10.2663146 49.1874022,10.5612588 C48.5823359,10.7340623 48.3923212,11.1778532 48.3971648,11.8455031 C48.4243629,15.5317163 48.4105776,19.2183222 48.4098324,22.9049281 C48.4094598,23.9967322 48.4075969,23.9975176 47.3740662,23.9983031 C46.4843504,23.9990886 45.5942621,23.9888775 44.7045463,23.9998741 C44.2082727,24.0061578 43.9996292,23.7775859 44.0003743,23.2489642 C44.0081985,17.8174355 44.0089436,12.3855141 44.0000017,6.95398542 C43.9992566,6.40179964 44.2369612,6.23213801 44.7231752,6.24234913 C45.6330102,6.26237862 46.5439629,6.24509827 47.454543,6.24824015 C48.2842737,6.25138204 48.3129622,6.2843718 48.3684763,7.16095691 C48.3751827,7.26620996 48.4027534,7.36989207 48.4459724,7.62202811 Z M7,11.229572 C7.56808343,6.9679869 9.70541932,3.78770529 13.6878559,1.99950011 C14.808416,1.49590056 16.0877743,1.32906865 17.3058763,1.05786982 C17.9672097,0.910436978 18.0468038,1.01674382 17.9812557,1.7050224 C17.8368938,3.22164077 17.4572611,4.6773461 16.717114,6.01665708 C14.8322162,9.42584757 11.9110345,11.3626495 8.06632694,11.9457852 C7.12446333,12.0885623 7.00312134,11.9818675 7,11.229572 Z M16.897837,23.9905434 C13.4772885,23.5458753 10.5613022,21.7840047 8.57666496,18.5607468 C7.71292956,17.1579712 7.1790551,15.6297663 7.02624038,13.9847286 C6.93634937,13.0164618 7.03405699,12.9156495 8.01660486,13.0453769 C11.5544025,13.513099 14.3113208,15.2464452 16.2678183,18.2301763 C17.2609186,19.7454865 17.7815048,21.4315525 17.9773109,23.2250734 C18.0566495,23.9499059 17.9788742,24.0343069 16.897837,23.9905434 Z" id="Fill-1"></path>
                <path d="M41.9608804,11.5430248 C41.9111084,8.86842521 40.4942646,7.12181076 37.7937173,6.43410058 C34.7646745,5.66206311 31.7223592,6.02902157 28.7190321,6.68554221 C28.5186996,6.7294386 28.2810382,7.05981673 28.2557374,7.27621826 C28.1897895,7.84725644 28.2287776,8.42869115 28.2300219,9.00627529 C28.2316809,9.94658227 28.2839416,9.96660518 29.288507,9.91115711 C30.8961436,9.82220915 32.5050244,9.75751973 34.1147348,9.70938771 C34.5477514,9.69629581 34.9923816,9.74250254 35.4171029,9.82605971 C36.7323287,10.0840473 37.4125465,11.296974 37.0633127,13.0535999 C36.867128,14.0397285 35.8841304,13.4263342 35.2698606,13.5541728 C34.8530199,13.6411955 34.3938729,13.5364602 33.9621006,13.5834371 C32.8459628,13.7043447 31.710331,13.7721146 30.6261303,14.0243263 C28.6481069,14.4840833 27.3291481,15.6192286 27.0703336,17.5810894 C26.9786701,18.2768858 26.9869654,18.99232 27.0363227,19.6935072 C27.1740253,21.6334198 28.3594291,23.1567017 30.1163818,23.6468781 C32.3934521,24.2818356 34.5697341,24.0808363 36.6029215,22.8783061 C36.8061573,22.7581686 37.0284723,22.6653701 37.2221685,22.5694911 C37.2964117,22.6445771 37.3183944,22.658054 37.3258602,22.6765367 C37.3495019,22.7350653 37.3905638,22.7978294 37.3847571,22.8552028 C37.3100991,23.5737174 37.7381385,23.7154181 38.4034246,23.6911595 C39.3466046,23.6568895 40.2922731,23.6703665 41.2362826,23.6857687 C41.7422982,23.69424 41.9998685,23.5440681 41.9977947,23.0257826 C41.981204,19.19794 42.0318056,15.3697123 41.9608804,11.5430248 L41.9608804,11.5430248 Z M37.2246571,18.2333745 C37.2246571,20.1474883 37.2043335,20.1678963 35.1848334,20.5718201 C34.8733435,20.6341992 34.5460924,20.6657738 34.2271366,20.6711646 C33.3648362,20.6850266 32.4295368,20.7038944 32.0031564,19.8494549 C31.5249302,18.8914353 31.5576968,17.8375368 32.2204943,16.9830973 C32.5531374,16.5545299 33.2437243,16.2430195 33.8281308,16.1348187 C34.7169763,15.9700147 35.6539348,16.0258479 36.5705697,15.992348 C36.9957057,15.9769458 37.2093107,16.2591919 37.2055778,16.6600353 C37.2014301,17.1505967 37.2047483,17.4524807 37.2047483,18.2225929 L37.2246571,18.2225929 L37.2246571,18.2333745 L37.2246571,18.2333745 Z" id="Path"></path>
                <path d="M86.7633987,11.0207613 C86.6883853,8.48643871 84.9329187,6.67482581 82.4404653,6.18785806 C80.0342387,5.71753548 77.7061187,5.96372903 75.3319853,6.37792258 C74.0269853,6.60553548 74.087692,6.64656774 74.087692,7.99908387 L74.087692,8.6439871 C74.087692,9.95237419 74.043612,9.88811613 75.3899853,9.80566452 C77.099052,9.70076129 78.7918787,9.67443871 80.5028787,9.73289032 C81.531412,9.76772903 82.0607587,10.3847613 82.2397853,11.4020516 C82.3024253,11.7593419 82.320212,12.1270839 82.3244653,12.4905677 C82.3349053,13.4768903 82.293532,13.5109548 81.321452,13.5121161 C79.6263053,13.5136645 77.9245853,13.4486323 76.2727453,13.9487613 C74.8540653,14.3784387 73.641092,15.0903097 73.1662653,16.5891484 C72.665532,18.1688903 72.7243053,19.7706968 73.3043053,21.3291484 C73.7180387,22.4416645 74.521532,23.2174065 75.6370653,23.5839871 C77.7134653,24.2660516 79.7349587,24.1379226 81.6423853,22.9866968 C81.893332,22.8353419 82.1477587,22.6905677 82.4864787,22.4927613 C82.547572,22.7176645 82.6059587,22.8206323 82.5970653,22.9170194 C82.539452,23.5224387 82.832932,23.7047613 83.4005587,23.6861806 C84.3231453,23.6559871 85.2472787,23.6668258 86.1706387,23.6819226 C86.645852,23.6892774 86.890612,23.5232129 86.8855853,23.0122452 C86.8469187,19.0150839 86.881332,15.0156 86.7633987,11.0207613 L86.7633987,11.0207613 Z M82.364292,18.0144387 C82.3650653,18.1859226 82.3650653,18.3577935 82.3650653,18.5292774 C82.365452,20.0226968 82.3774387,20.0703097 80.9216387,20.4411484 C80.2306653,20.6168903 79.4801453,20.6455355 78.763652,20.6087613 C77.921492,20.5657935 77.448212,20.0602452 77.3476787,19.211729 C77.0975053,17.099729 77.866972,16.0863097 79.743852,16.0127613 C80.4274787,15.9856645 81.111492,15.9647613 81.795892,15.947729 C82.1895187,15.9380516 82.384012,16.1184387 82.367772,16.5345677 C82.3488253,17.0273419 82.3635187,17.5212774 82.364292,18.0144387 L82.364292,18.0144387 Z" id="Path"></path>
            </g>
        </g>
    </g>
</svg>