<?xml version="1.0" encoding="UTF-8" standalone="no"?>
<svg width="71px" height="42px" viewBox="0 0 71 42" version="1.1" xmlns="http://www.w3.org/2000/svg" xmlns:xlink="http://www.w3.org/1999/xlink">
    <defs></defs>
    <g id="Homepage" stroke="none" stroke-width="1" fill="none" fill-rule="evenodd">
        <g id="Large-Device-HOMEPAGE-B-Review-Copy-4" transform="translate(-85.000000, -1572.000000)" fill="#A8A8A8">
            <g id="Section-Plus" transform="translate(0.000000, 1094.000000)">
                <g id="Section-Press-Copy" transform="translate(0.000000, 445.000000)">
                    <g id="Page-1" transform="translate(85.000000, 33.000000)">
                        <g id="Group-3">
                            <g id="Clip-2-+-Fill-1-+-Fill-4">
                                <path d="M20.3924,0.6988 L20.9054,0.6988 C21.0004,0.7128 21.0964,0.7318 21.1924,0.7398 C21.8774,0.7918 22.5654,0.8238 23.2484,0.8968 C24.4864,1.0298 25.6984,1.2988 26.8794,1.6888 C32.3024,3.4808 36.3434,6.9118 39.0094,11.9608 C39.0964,12.1248 39.1894,12.1798 39.3734,12.1798 C42.2224,12.1808 45.0724,12.1878 47.9214,12.1988 C48.8564,12.2018 49.7794,12.3068 50.6864,12.5408 C51.8314,12.8348 52.8734,13.3308 53.7484,14.1418 C54.8374,15.1498 55.4534,16.4248 55.8194,17.8378 C55.9114,18.1928 55.9824,18.5538 56.0684,18.9358 C56.0874,18.8938 56.0994,18.8788 56.1004,18.8628 C56.1044,18.7958 56.1044,18.7288 56.1064,18.6618 C56.1234,17.7828 56.1884,16.9108 56.4334,16.0608 C56.8894,14.4768 57.8324,13.3228 59.3814,12.6948 C60.3824,12.2898 61.4344,12.1838 62.4974,12.1788 C65.1584,12.1668 67.8184,12.1768 70.4794,12.1718 C70.6404,12.1718 70.6874,12.2168 70.6864,12.3788 C70.6794,13.3058 70.6824,14.2338 70.6824,15.1608 C70.6824,15.4028 70.6824,15.4028 70.4444,15.4028 C68.1624,15.4028 65.8804,15.3948 63.5984,15.4108 C63.1384,15.4138 62.6724,15.4688 62.2224,15.5598 C60.9514,15.8188 60.2524,16.5588 60.1084,17.8198 C60.0294,18.5138 60.0244,19.2168 59.9934,19.9158 C59.9814,20.1888 59.9904,20.1898 60.2714,20.1898 C63.1994,20.1898 66.1284,20.1918 69.0574,20.1858 C69.2464,20.1858 69.2944,20.2408 69.2924,20.4238 C69.2844,21.3268 69.2894,22.2298 69.2884,23.1328 C69.2884,23.3828 69.2884,23.3828 69.0384,23.3828 L60.2514,23.3828 L59.9914,23.3828 L59.9914,23.6708 C59.9844,25.9288 59.9754,28.1858 59.9734,30.4438 C59.9734,30.6158 59.9284,30.6748 59.7474,30.6728 C58.6194,30.6658 57.4904,30.6698 56.3614,30.6698 C56.0994,30.6688 56.0994,30.6688 56.0994,30.4128 L56.0994,24.7568 L56.0994,24.5518 C56.0784,24.5498 56.0564,24.5468 56.0354,24.5448 C56.0004,24.6878 55.9654,24.8298 55.9304,24.9728 C55.6084,26.2858 55.0514,27.4768 54.1044,28.4618 C52.6764,29.9478 50.8924,30.6318 48.8704,30.6588 C45.6924,30.7018 42.5124,30.6768 39.3334,30.6868 C39.1504,30.6878 39.1104,30.6228 39.1124,30.4528 C39.1194,29.5628 39.1154,28.6718 39.1154,27.7808 C39.1154,27.4898 39.1154,27.4898 38.8244,27.4898 L27.9874,27.4898 C27.8714,27.4898 27.7554,27.4838 27.6404,27.4908 C27.5104,27.4988 27.4674,27.4458 27.4734,27.3198 C27.5004,26.7358 27.4914,26.1478 27.5534,25.5678 C27.6604,24.5838 28.1714,23.8958 29.1364,23.5768 C29.7214,23.3838 30.3274,23.3198 30.9354,23.3098 C31.8994,23.2928 32.8634,23.3058 33.8284,23.3038 C34.5744,23.3018 35.3104,23.2168 36.0274,23.0068 C37.5444,22.5628 38.6484,21.6438 39.2024,20.1448 C39.7944,18.5418 39.7764,16.9198 39.2014,15.3178 C38.7684,14.1128 37.9484,13.2398 36.7794,12.7098 C35.9354,12.3268 35.0394,12.1508 34.1184,12.1478 C30.6764,12.1368 27.2354,12.1448 23.7934,12.1378 C23.6004,12.1378 23.5614,12.2028 23.5624,12.3788 C23.5694,13.3068 23.5654,14.2338 23.5664,15.1618 C23.5664,15.4658 23.5664,15.4658 23.8624,15.4658 C26.7674,15.4658 29.6714,15.4598 32.5764,15.4738 C33.0354,15.4758 33.5014,15.5308 33.9504,15.6248 C34.7014,15.7798 35.2894,16.1728 35.4804,16.9668 C35.5564,17.2818 35.5844,17.6208 35.5624,17.9438 C35.5144,18.6558 35.2624,19.2618 34.3784,19.5498 C33.9614,19.6858 33.5124,19.7708 33.0754,19.7858 C31.8864,19.8278 30.6964,19.8248 29.5064,19.8298 C28.7474,19.8318 28.0004,19.9248 27.2704,20.1318 C25.6884,20.5808 24.5464,21.5328 23.9454,23.0878 C23.6024,23.9738 23.4694,24.9008 23.4594,25.8428 C23.4434,27.3558 23.4534,28.8688 23.4554,30.3818 C23.4554,30.7238 23.3924,30.7268 23.8024,30.7268 C28.7814,30.7268 33.7604,30.7268 38.7394,30.7278 C38.8264,30.7278 38.9134,30.7378 39.0064,30.7438 C38.9954,30.7878 38.9944,30.8068 38.9864,30.8228 C38.9524,30.8938 38.9164,30.9648 38.8794,31.0348 C37.6474,33.3508 36.0454,35.3728 34.0394,37.0628 C30.0354,40.4358 25.4094,42.0818 20.1704,41.9968 C19.2014,41.9808 18.2394,41.8888 17.2824,41.7348 C15.2904,41.4138 13.3884,40.8098 11.5784,39.9208 C8.3114,38.3158 5.6414,36.0118 3.5834,33.0098 C1.4364,29.8778 0.2564,26.4028 0.0254,22.6158 C-0.0296,21.7128 0.0184,20.8008 0.0494,19.8948 C0.0834,18.9258 0.2434,17.9708 0.4474,17.0238 C1.2004,13.5298 2.7554,10.4338 5.1164,7.7568 C7.9774,4.5128 11.5154,2.3538 15.7194,1.3228 C16.6374,1.0978 17.5814,0.9658 18.5194,0.8338 C19.0604,0.7578 19.6134,0.7678 20.1604,0.7358 C20.2384,0.7318 20.3154,0.7118 20.3924,0.6988 Z M43.1144,21.4408 L43.1144,15.6578 C43.1144,15.4038 43.1154,15.4028 43.3624,15.4028 C44.8204,15.4028 46.2784,15.3988 47.7364,15.4058 C48.3154,15.4088 48.8894,15.4788 49.4494,15.6368 C50.5994,15.9628 51.3264,16.7238 51.7054,17.8388 C51.9144,18.4518 52.0454,19.0838 52.0754,19.7298 C52.1134,20.5578 52.1574,21.3868 52.1414,22.2138 C52.1204,23.2438 52.0094,24.2668 51.6304,25.2398 C51.1724,26.4148 50.3044,27.1008 49.0794,27.3228 C48.5724,27.4138 48.0524,27.4628 47.5374,27.4698 C46.1414,27.4898 44.7444,27.4728 43.3474,27.4808 C43.1614,27.4818 43.1104,27.4268 43.1104,27.2418 C43.1164,25.3088 43.1144,23.3748 43.1144,21.4408 Z" id="Fill-1"></path>
                            </g>
                        </g>
                    </g>
                </g>
            </g>
        </g>
    </g>
</svg>