<?xml version="1.0" encoding="UTF-8" standalone="no"?>
<svg width="22px" height="25px" viewBox="0 0 22 25" version="1.1" xmlns="http://www.w3.org/2000/svg" xmlns:xlink="http://www.w3.org/1999/xlink">
    <defs></defs>
    <g id="Page-1" stroke="none" stroke-width="1" fill="none" fill-rule="evenodd">
        <g id="Homepage" fill="#A6A6A6">
            <g id="Large-Device-HOMEPAGE-B-Review-Copy-4">
                <g id="Footer-Copy">
                    <g id="ocial">
                        <g id="youtube">
                            <path d="M4.9255115,18.0171834 L4.942126,13.9659484 L5.6992744,13.9580095 L6.4556316,13.9484828 L6.4469287,13.324483 L6.4374347,12.6996894 L4.252227,12.6909565 L2.0686016,12.6822237 L2.0686016,13.3157502 L2.0686016,13.9484828 L2.8075531,13.9580095 L3.5465045,13.9659484 L3.5552074,17.9838399 C3.5591632,20.1932436 3.5702396,22.0207849 3.5789425,22.0438078 C3.59081,22.0763574 3.7442967,22.0842963 4.2514358,22.0771513 L4.9088969,22.0684185 L4.9255115,18.0171834 L4.9255115,18.0171834 Z M17.5296188,17.7321759 C17.4987632,17.6511988 17.5414863,16.7151992 17.5826271,16.5794435 C17.6783585,16.2602986 17.8816888,16.1046956 18.2021121,16.1046956 C18.4687359,16.1046956 18.638046,16.2079017 18.7519743,16.4397184 C18.8239706,16.5865886 18.8310912,16.6493061 18.8421675,17.1923288 L18.8532439,17.7837789 L18.2005298,17.7837789 C17.6395912,17.7837789 17.5462333,17.7766339 17.5296188,17.7321759 L17.5296188,17.7321759 L17.5296188,17.7321759 Z M18.7480185,22.0969986 C19.3872827,21.9167849 19.829546,21.4785561 19.9964825,20.8601136 C20.0241734,20.7545259 20.0566114,20.4536405 20.0676877,20.1924497 L20.0866758,19.7177018 L19.4711466,19.7177018 L18.8548262,19.7177018 L18.839794,20.1432284 C18.8223883,20.6267091 18.7725447,20.7926327 18.5969052,20.9474418 C18.4101895,21.1117776 18.0668223,21.123686 17.8437127,20.9728464 C17.5778801,20.7926327 17.5122131,20.4885718 17.5256629,19.5009691 L17.535157,18.8007556 L18.8097296,18.7928167 L20.0843023,18.78329 L20.0676877,17.7417026 C20.0471173,16.5794435 20.0233823,16.4031993 19.8287548,15.9903751 C19.4576967,15.2083907 18.4299687,14.8138259 17.5762977,15.1258258 C16.9322865,15.361612 16.5517344,15.7863446 16.3990388,16.4436879 C16.3452393,16.6755046 16.33891,16.8835045 16.33891,18.5840229 C16.33891,20.6695793 16.3460305,20.7545259 16.5580637,21.1816402 C16.9370335,21.9413956 17.8856447,22.338342 18.7480185,22.0969986 L18.7480185,22.0969986 L18.7480185,22.0969986 Z M13.7011538,20.909335 C13.7794795,20.8561441 13.8309055,20.7823121 13.8712551,20.6671976 C13.922681,20.5155641 13.927428,20.3226482 13.9203075,18.5340077 C13.913187,16.6699473 13.9092312,16.5603901 13.8491023,16.4381306 C13.6948245,16.1261307 13.3063607,16.0959628 12.9503348,16.3690619 L12.8332418,16.4579779 L12.8332418,18.5840229 L12.8332418,20.7100679 L12.9495436,20.7989839 C13.2130028,21.0006326 13.5017793,21.0427089 13.7011538,20.909335 L13.7011538,20.909335 L13.7011538,20.909335 Z M14.4725432,22.1097009 C14.6663795,22.0533345 14.9005654,21.8223117 15.0057909,21.5865255 C15.20833,21.1348005 15.2091212,21.123686 15.2091212,18.5840229 C15.2091212,16.4992604 15.2027919,16.2420391 15.1513659,16.0165735 C14.9844293,15.294925 14.6204918,14.9797495 14.0081272,15.0257953 C13.6655512,15.0527877 13.3957627,15.1893372 13.0721748,15.5029249 C12.9313467,15.6386806 12.8055509,15.7506194 12.7913099,15.7506194 C12.7786512,15.7506194 12.7667837,15.0599327 12.7667837,14.2168185 L12.7667837,12.6830176 L12.1686602,12.6830176 L11.5705367,12.6830176 L11.5705367,17.383657 L11.5705367,22.0850902 L12.1686602,22.0850902 L12.7667837,22.0850902 L12.7667837,21.768327 C12.7667837,21.5579454 12.7794424,21.4515637 12.8039686,21.4515637 C12.8237478,21.4515637 12.9582465,21.5627087 13.1030303,21.6992583 C13.5682375,22.138281 13.9709423,22.2589527 14.4725432,22.1097009 L14.4725432,22.1097009 L14.4725432,22.1097009 Z M8.1060093,22.0787391 C8.3449422,21.9898231 8.6258071,21.7945254 8.8623665,21.553182 C8.9707566,21.442037 9.0791467,21.3515333 9.1028818,21.3515333 C9.1345285,21.3515333 9.1456049,21.442037 9.1456049,21.7183117 L9.1456049,22.0850902 L9.7437284,22.0850902 L10.3418518,22.0850902 L10.3418518,18.6006946 L10.3418518,15.117093 L9.7437284,15.117093 L9.1456049,15.117093 L9.1456049,17.8044202 L9.1456049,20.4925412 L8.8876839,20.7489686 C8.6835624,20.9529991 8.5981162,21.0149227 8.4715292,21.049854 C8.2579137,21.1093959 8.1218327,21.0681135 8.034013,20.91648 C7.9675548,20.8037472 7.9659725,20.7513503 7.9564784,17.9592293 L7.9477756,15.117093 L7.3496521,15.117093 L6.753111,15.117093 L6.753111,18.1346796 C6.753111,21.4221897 6.7562756,21.4936401 6.9398268,21.8104033 C7.1407836,22.1565406 7.6107378,22.2653039 8.1060093,22.0787391 L8.1060093,22.0787391 L8.1060093,22.0787391 Z M8.6139396,24.9859746 C7.837012,24.9724784 6.917674,24.9510433 6.570351,24.938341 C4.2387771,24.8541884 2.638243,24.7644785 2.3186108,24.6993793 C1.8628977,24.6072877 1.3533851,24.2976695 1.0574881,23.9332727 C0.5843692,23.3497615 0.3311953,22.6416091 0.2085641,21.5515942 C-0.0754654,19.0174884 -0.0691361,16.0618254 0.2259698,13.6166356 C0.3557215,12.5448803 0.6777271,11.7708348 1.2180953,11.2309876 C1.5266511,10.9221633 1.8233393,10.7506825 2.2181324,10.6490642 C3.0741769,10.4291559 9.7722104,10.2544995 13.8467288,10.3450033 C16.2004555,10.3974002 18.7432714,10.5069574 19.4189294,10.583965 C20.2931708,10.6839955 20.9071176,11.1381022 21.3319752,11.9994759 C21.6531896,12.6496741 21.7552504,13.1561777 21.8857932,14.716971 C21.987854,15.9522682 22.0131714,16.7223442 21.9941833,18.1489696 C21.9728218,19.8558392 21.8644317,21.3594722 21.7022421,22.2033802 C21.5313497,23.0957158 21.1278537,23.8562651 20.6048912,24.2682955 C20.2021864,24.5866465 19.7725818,24.7287533 19.0961326,24.7668601 C18.8951758,24.7787685 18.6412107,24.7946464 18.5312383,24.8033792 C18.1419833,24.8335471 16.0548805,24.9176998 14.9100595,24.9502494 C13.2090469,24.997883 10.2326706,25.0145547 8.6139396,24.9859746 L8.6139396,24.9859746 Z M6.5148799,9.500828 C6.4863978,9.4539883 6.4911449,6.7110887 6.5196269,6.3228751 C6.5568118,5.8251043 6.472948,5.4329212 6.1169221,4.4310285 C6.0014115,4.1063263 5.792543,3.4759754 5.6532973,3.0313955 C4.6461396,-0.18307654 4.6991479,0.0050761 4.7956705,0.0042822 C5.459461,-0.00127509 6.2783205,0.0026944 6.2878145,0.0122211 C6.2941439,0.0185722 6.5093417,0.8029383 6.7664715,1.7564036 C7.0243925,2.709075 7.2387992,3.5021739 7.2443374,3.5196395 C7.2490844,3.5355174 7.4001976,2.9805863 7.5797929,2.2859301 C7.955598,0.8283429 8.16684,0.0241295 8.1747517,0.0169844 C8.1913662,0.0011066 8.378082,-0.00206898 8.9896554,0.0011066 L9.6661045,0.0050761 L9.6510723,0.1138394 C9.6392048,0.2019615 9.1771623,1.7579914 8.6937583,3.338632 C8.6415412,3.5132884 8.5062513,3.9634256 8.3946966,4.3397308 C8.2831418,4.7152421 8.1486431,5.1614099 8.0948436,5.3313029 L7.9975299,5.6409211 L7.9975299,7.5716685 C7.9975299,9.382538 7.9935741,9.5040036 7.9397746,9.5182937 C7.8179346,9.5516372 6.5362415,9.5357593 6.5148799,9.500828 L6.5148799,9.500828 Z M15.2572932,9.6167364 C14.92342,9.5722784 14.7280014,9.4428738 14.5942939,9.1769197 C14.4265661,8.8434848 14.4265661,8.8450725 14.4265661,5.5226311 L14.4265661,2.4224797 L15.1006418,2.4224797 L15.7739263,2.4224797 L15.7881673,5.2804938 C15.8031995,8.3846147 15.7992437,8.3123705 15.9843772,8.3592101 C16.1544784,8.4012865 16.3427765,8.3099888 16.5769625,8.0702332 L16.8016543,7.8407981 L16.8103572,5.131242 L16.8182689,2.4224797 L17.4915534,2.412953 L18.1648379,2.405014 L18.1648379,5.952921 L18.1648379,9.5016219 L18.0730623,9.5206753 C17.9630899,9.5436982 16.9424824,9.5421104 16.8602008,9.5182937 C16.8103572,9.5047975 16.8024455,9.4587517 16.8024455,9.1808892 L16.8024455,8.8585687 L16.6109827,9.0459274 C16.1710929,9.4754234 15.6963918,9.6754844 15.2572932,9.6167364 L15.2572932,9.6167364 L15.2572932,9.6167364 Z M11.8647621,8.2615613 C12.0957834,8.0853171 12.0973657,8.0702332 12.1092332,6.0751805 C12.1195184,4.5247078 12.1139803,4.2611354 12.0673013,4.0499599 C12.0040078,3.7641585 11.8932442,3.6291968 11.676464,3.5696548 C11.3963903,3.4950289 11.1400517,3.6553952 11.0498585,3.9626317 C10.981818,4.1992118 10.9826091,7.716157 11.0514408,7.952737 C11.1036579,8.130569 11.2705945,8.3250728 11.3940168,8.3520651 C11.554624,8.3862025 11.751625,8.3480956 11.8655533,8.2615613 L11.8647621,8.2615613 L11.8647621,8.2615613 Z M11.3370527,9.6151486 C10.7341822,9.5421104 10.1803641,9.1864465 9.9137403,8.7005841 C9.6423695,8.2059888 9.6170521,7.9471798 9.6328755,5.7687379 C9.6455341,4.0817157 9.6502812,3.9761279 9.7167393,3.7339906 C9.8757642,3.1584183 10.1835288,2.7662353 10.6606035,2.5288613 C11.3156911,2.2041592 12.0222047,2.2462355 12.6401074,2.6479452 C13.0341094,2.9027848 13.2730423,3.2727389 13.4012116,3.8229066 C13.4573846,4.0658378 13.4629228,4.2524026 13.4629228,5.9560966 C13.4629228,8.0281568 13.4534287,8.1480347 13.2413955,8.5965841 C13.0380652,9.0292557 12.5776051,9.4103242 12.0973657,9.5444921 C11.8853325,9.6024463 11.5174391,9.6373776 11.3370527,9.6151486 L11.3370527,9.6151486 L11.3370527,9.6151486 Z" id="Shape"></path>
                        </g>
                    </g>
                </g>
            </g>
        </g>
    </g>
</svg>