<?xml version="1.0" encoding="UTF-8" standalone="no"?>
<svg width="78px" height="22px" viewBox="0 0 78 22" version="1.1" xmlns="http://www.w3.org/2000/svg" xmlns:xlink="http://www.w3.org/1999/xlink">
    <defs></defs>
    <g id="Page-1" stroke="none" stroke-width="1" fill="none" fill-rule="evenodd">
        <g id="Sepa" fill="#A6A6A6">
            <path d="M0,14.5176205 L5.03299189,14.5176205 C5.05487185,14.8015527 5.06206527,15.0824771 5.10043014,15.3594915 C5.23051104,16.2982122 5.62315155,16.7809571 6.55859507,16.826675 C7.86869557,16.891041 9.18778783,16.8528425 10.499387,16.7860703 C11.2043415,16.750278 11.7090794,16.1571485 11.7468448,15.4494234 C11.769624,15.025029 11.7678256,14.5864981 11.6860005,14.1723301 C11.5715053,13.5942393 11.1566851,13.2579721 10.5773156,13.1993209 C9.41378092,13.0814168 8.24485117,13.0158477 7.08221566,12.8916274 C5.84374957,12.7592861 4.59359419,12.6630379 3.37820698,12.4082809 C1.61162443,12.0377254 0.526917564,10.9236524 0.247573327,9.08892103 C0.00419615808,7.48849387 -0.00959121846,5.89167602 0.350678925,4.30718997 C0.720840012,2.68029456 1.86039666,1.81375995 3.37820698,1.41553301 C4.14460528,1.21431411 4.94906873,1.1009217 5.74124343,1.0675356 C7.2995167,1.00166574 8.86228586,0.982416096 10.4214583,1.01670452 C11.2936597,1.03595416 12.1790491,1.1267884 13.0296703,1.31537472 C14.9748893,1.74638621 16.1594048,3.14048128 16.3533272,5.14184236 C16.413572,5.76294405 16.3919918,6.39186591 16.411474,7.01717845 C16.4180679,7.2301276 16.32845,7.30020833 16.1126476,7.29900522 C14.6194147,7.29058351 13.1261819,7.29178661 11.6329491,7.29780212 C11.4351302,7.29870445 11.3563024,7.24366251 11.3557029,7.03281879 C11.3548038,6.76031606 11.3188367,6.48751256 11.286766,6.21591216 C11.222325,5.66759818 10.9124088,5.33704575 10.3854912,5.18876336 C9.65296193,4.98273205 8.90394771,4.95205294 8.15313514,4.98543903 C7.62861538,5.00859876 7.10439535,5.06875388 6.58407175,5.14154159 C5.89440319,5.23778979 5.46339782,5.64052837 5.37917493,6.33983172 C5.33301719,6.72422298 5.32132789,7.12726234 5.38247191,7.50744274 C5.50475994,8.26780355 5.96753624,8.61820716 6.83584123,8.6819716 C8.49841901,8.80348495 10.1624954,8.9078541 11.8238743,9.04530857 C12.9547389,9.13854901 14.0688189,9.32863921 15.076796,9.90221835 C16.1680968,10.52332 16.7474663,11.4824935 16.8910349,12.7189822 C17.0552845,14.1350339 17.0289087,15.547777 16.8451769,16.9623249 C16.5913093,18.917968 15.4376656,20.0482829 13.6183313,20.5941907 C12.6472204,20.8856422 11.6464367,20.9882067 10.6426558,20.9960269 C9.06310199,21.0086595 7.48204958,20.991816 5.90309524,20.9361726 C4.92119425,20.9018841 3.93899353,20.7936049 2.99335934,20.4883176 C1.39582201,19.9724874 0.470569156,18.8635276 0.228990341,17.2137733 C0.100408068,16.3364108 0.0752311198,15.4437087 0,14.5176205" id="Fill-1"></path>
            <path d="M35.7017008,15.4986424 C35.7017008,15.7184456 35.7018382,15.8926254 35.7022497,16.2818006 C35.7037366,17.684955 35.7022113,18.2906633 35.6920093,19.051649 C35.695678,18.7753828 35.7857015,18.6466963 35.9268907,18.5543279 C34.8612681,19.2505583 33.7030205,19.694684 32.4608037,19.8822704 C30.117412,20.2365316 27.9723046,19.7927805 26.0029819,18.5338959 C24.5511266,17.6060386 23.4598031,16.3550542 22.7224703,14.7744 C22.4728681,14.2401924 22.0211275,13.9354714 21.4145508,13.9425079 C20.9607115,13.9476131 20.4870179,13.9495235 19.9063309,13.9492657 C19.667419,13.9491597 19.4760259,13.9488215 19.0452142,13.9478702 C18.7163414,13.947144 18.5698558,13.9468581 18.3868076,13.9466413 C18.3899879,13.9466502 18.3899879,13.9466502 18.3903454,13.9466523 C18.3962559,13.9466897 18.4028945,13.9473515 18.2704623,13.9331802 C18.2416793,13.9302645 18.2416793,13.9302645 18.2097498,13.927299 L18.1197478,14.9232405 L19.032656,15.3314056 C19.0461188,15.3012944 19.2152213,14.9208276 19.2617365,14.817809 C19.2965725,14.7408854 19.2965725,14.7408854 19.3311654,14.6656286 C19.4147392,14.4839704 19.4823056,14.3382577 19.6330138,14.0141006 C19.6357758,14.0081597 19.6357758,14.0081597 19.6385383,14.0022181 C19.9697146,13.2898917 20.11987,12.9627626 20.3001262,12.5547035 C20.2277979,12.7183093 19.9649085,12.9006431 19.7314155,12.8904858 C19.9693726,12.9008552 20.1501384,12.9015711 20.5636795,12.8978691 C20.7284294,12.8964026 20.7995466,12.8959307 20.8902494,12.8959307 L21.8902494,12.8959307 L21.8902494,11.8959307 L21.8902494,10.2777254 L21.8902494,9.27772544 L20.8902494,9.27772544 L18,9.27772544 L18,10.2777254 L18.9390993,10.6213714 C18.9593989,10.5658974 19.0034033,10.4387047 19.0073545,10.4279351 C19.0138036,10.4110125 19.0126357,10.413907 19.0121868,10.4148845 C19.1131425,10.1953106 19.1945521,10.0191965 19.3781795,9.62266213 C19.7786535,8.75785862 19.9558294,8.37202894 20.1736273,7.88550515 C20.091316,8.06946802 19.821047,8.24465746 19.6057654,8.23964458 C19.8627667,8.2456381 20.0931571,8.24669715 20.5006567,8.24553653 C20.5357375,8.24543491 20.5357375,8.24543491 20.5707209,8.24533017 C20.963896,8.244153 21.1371866,8.24445942 21.3505094,8.24788657 C21.9205216,8.25758326 22.3808994,7.981014 22.6270965,7.44811579 C23.9920378,4.49728097 26.2235289,2.73736306 29.3323011,2.16930817 C32.2827928,1.6299224 34.9023305,2.37936246 37.1917569,4.41484282 C37.1385463,4.36759301 37.073991,4.28309118 37.0281224,4.11675947 C36.9730238,3.91695705 37.0006349,3.75412296 37.0510021,3.64937109 C36.8407741,4.08559193 36.6786368,4.43557958 36.3195622,5.22112576 C36.3190672,5.2222086 36.3190672,5.2222086 36.3185723,5.22329142 C36.1666799,5.55558591 36.0984409,5.7044993 36.0134196,5.88866388 C36.0185045,5.87826507 36.0185045,5.87826507 36.0165128,5.8820604 C36.012055,5.89008491 36.0025796,5.90624677 35.9638142,5.97287199 C35.9566827,5.98540627 35.9566827,5.98540627 35.9490955,5.99895842 L36.8226342,6.48571312 L37.6026517,5.85995538 C33.9662946,1.32717546 27.1643286,2.04737452 24.5170884,6.73660819 L23.6750227,8.22821553 L25.3879054,8.22821553 L36.4044062,8.22821553 L36.4044062,7.22821553 L35.4955977,6.8110019 C35.3023765,7.23189205 35.1608378,7.54041178 34.8522507,8.21322723 C34.8043462,8.31776794 34.766521,8.39954317 34.679037,8.58807139 C34.6760954,8.59440965 34.6760954,8.59440965 34.6731524,8.60075101 C34.4407108,9.1015966 34.3373373,9.32897124 34.2133901,9.61938056 C34.2877142,9.44537065 34.5453839,9.27662963 34.7280049,9.27712918 C32.4957464,9.27126392 30.7103971,9.27030025 26.6938251,9.27092743 C25.7427776,9.27107593 25.3201389,9.27112542 24.7918341,9.27112542 L24.3824982,9.27112542 L23.3824982,9.27112542 L23.3824982,10.2711254 C23.3824029,10.4318034 23.3824029,10.4318034 23.3821148,10.5926623 C23.3810521,11.1849815 23.3821492,11.4457965 23.3895657,11.7772971 C23.4044318,12.3717713 23.8208973,12.7170239 24.2560595,12.8465654 C24.4526387,12.9038496 24.5704523,12.9075649 24.7720118,12.8971499 C24.7741956,12.897037 24.7741956,12.897037 24.776281,12.8969289 C24.8061034,12.895498 24.8061034,12.895498 24.8004299,12.8956307 C25.6370428,12.895714 26.3064051,12.8957474 27.8123808,12.8957974 C30.8241338,12.8958974 32.1626563,12.8960307 33.8357543,12.8965307 C33.8366967,12.8965308 33.8366967,12.8965308 33.8373433,12.8965314 C33.885988,12.8965846 33.8693384,12.8957965 34.092286,12.9078312 C34.1433082,12.9105411 34.1433082,12.9105411 34.2000345,12.9132151 L34.2450926,11.9142308 L33.3362654,11.4970579 C33.2235953,11.7425142 33.0807818,12.0538437 32.8456637,12.5663719 C32.7841137,12.7004126 32.7341404,12.8082815 32.6212225,13.0513016 C32.6210542,13.0516637 32.6210542,13.0516637 32.6208859,13.0520259 C32.3372195,13.6625279 32.2119324,13.9370686 32.0607811,14.2871155 C32.134996,14.114944 32.3894425,13.9512972 32.5695396,13.9520494 C31.3056061,13.9477231 30.0827584,13.9466071 28.1824841,13.9470407 C27.8171998,13.9471333 27.8171998,13.9471333 27.4519662,13.9472444 C26.7215752,13.9474666 26.3970527,13.9475406 25.9913869,13.9475406 L25.6327363,13.9475406 L23.8896669,13.9475406 L24.7694655,15.4522816 C27.2244876,19.6511656 33.6813789,20.4571116 37.4533732,16.1581791 L35.7017008,15.4986424 L35.7017008,15.4986424 L35.7017008,15.4986424 Z M37.7017008,15.4986424 L37.7017008,12.8427291 L35.9500285,14.8391057 C33.0979088,18.0896594 28.2763951,17.4878404 26.4960071,14.4427996 L25.6327363,14.9475406 L25.6327363,15.9475406 L25.9913869,15.9475406 C26.3973231,15.9475406 26.7220822,15.9474665 27.4525747,15.9472443 C27.8177829,15.9471332 27.8177829,15.9471332 28.1829404,15.9470406 C30.0809634,15.9466075 31.3017756,15.9477217 32.5619404,15.9520348 C33.1762246,15.9546007 33.6517249,15.6487834 33.8971665,15.0793834 C34.0384328,14.7522294 34.158668,14.4887589 34.4346552,13.8947838 C34.4348235,13.8944217 34.4348235,13.8944217 34.4349918,13.8940595 C34.5491726,13.6483215 34.5999864,13.5386383 34.6633118,13.4007312 C34.8986968,12.8876214 35.0413757,12.5765853 35.1539198,12.3314036 L35.7732629,10.9821405 L34.2901506,10.9152464 C34.2444401,10.9130928 34.2444401,10.9130928 34.2000886,10.9107386 C33.9158376,10.8953948 33.942247,10.8966448 33.8395286,10.8965326 C33.8377924,10.896531 33.8377924,10.896531 33.8360531,10.8965307 C32.1630179,10.8960307 30.8243773,10.8958974 27.8124473,10.8957974 C26.3064937,10.8957474 25.637183,10.895714 24.8005295,10.8956307 C24.7192913,10.8970826 24.7192913,10.8970826 24.6727698,10.8996093 C24.6707383,10.8997146 24.6707383,10.8997146 24.6688053,10.8998146 C24.6907173,10.8986824 24.7238731,10.899728 24.8210597,10.9280398 C25.1274647,11.0192342 25.376388,11.2255932 25.3890028,11.729925 C25.3821302,11.4225776 25.3810779,11.1724073 25.3821116,10.5962506 C25.382401,10.434778 25.382401,10.434778 25.3824982,10.2711254 L24.3824982,10.2711254 L24.3824982,11.2711254 L24.7918341,11.2711254 C25.3202777,11.2711254 25.7430378,11.2710759 26.6941374,11.2709274 C30.7088536,11.2703005 32.4929657,11.2712635 34.7226419,11.277122 C35.3409581,11.2788134 35.8108306,10.9711063 36.0527487,10.4047209 C36.1659571,10.1394731 36.2635752,9.92475779 36.4873002,9.44269385 C36.4902432,9.43635247 36.4902432,9.43635247 36.4931877,9.430008 C36.5814225,9.23986618 36.6207807,9.1547765 36.6703041,9.04670305 C36.9786911,8.37432402 37.1201208,8.06604175 37.3132146,7.64542916 L37.9638257,6.22821553 L36.4044062,6.22821553 L25.3879054,6.22821553 L26.2587224,7.71982287 C28.2225029,4.241247 33.3080474,3.70278439 36.0426168,7.11147085 L36.9726968,8.27083112 L37.6961729,6.97246781 C37.6982128,6.96882321 37.6982128,6.96882321 37.7007231,6.96441003 C37.7221598,6.92782678 37.7467852,6.88582396 37.7648509,6.8533038 C37.7951988,6.79771927 37.7951988,6.79771927 37.8301457,6.72502617 C37.9156762,6.53976409 37.9846166,6.38931971 38.1375494,6.05474931 C38.1380444,6.05366644 38.1380444,6.05366644 38.1385394,6.0525836 C38.4919766,5.27937026 38.6503121,4.93758909 38.8530794,4.51684819 C39.1466955,3.90619668 38.9896233,3.33661057 38.5201847,2.9197578 C35.7742202,0.4783789 32.5329106,-0.448947806 28.972719,0.20189852 C25.2178355,0.888015027 22.4471835,3.07315488 20.8116894,6.60889176 C20.904146,6.40876748 21.1773333,6.24465185 21.383581,6.24816024 C21.1523725,6.2444453 20.9706165,6.24412392 20.564733,6.24533913 C20.5297982,6.24544373 20.5297982,6.24544373 20.4949604,6.24554464 C20.1039915,6.24665818 19.8870679,6.24566104 19.6523589,6.24018739 C19.0529505,6.22623004 18.5909924,6.52567311 18.3481129,7.06850013 C18.1350301,7.54449108 17.9602242,7.92515973 17.5633273,8.78223883 C17.3789374,9.18041953 17.2970202,9.35763174 17.1948791,9.57978406 C17.1707483,9.6323251 17.1567062,9.66712643 17.1297339,9.7390659 C17.1173532,9.77281134 17.0729826,9.90106279 17.0609007,9.93407949 L16.5692184,11.2777254 L18,11.2777254 L20.8902494,11.2777254 L19.8902494,10.2777254 L19.8902494,11.8959307 L20.8902494,11.8959307 L20.8902494,10.8959307 C20.7916699,10.8959307 20.7137177,10.896448 20.5457761,10.8979492 C20.167526,10.9013353 20.0095927,10.9007099 19.8184111,10.8923788 C19.1858912,10.8648634 18.7165495,11.1903877 18.4707898,11.7462925 C18.2972952,12.1390447 18.1507688,12.4582677 17.8249614,13.159046 C17.8221997,13.1649862 17.8221997,13.1649862 17.8194377,13.1709271 C17.667606,13.4975008 17.5992833,13.6448442 17.5147955,13.8284915 C17.4767606,13.9112417 17.4767606,13.9112417 17.4389335,13.9947724 C17.3895378,14.1041705 17.2181852,14.4896997 17.2068396,14.5150755 L16.6353954,15.7931764 L18.0297458,15.9191821 C18.0477673,15.920855 18.0477673,15.920855 18.0656645,15.9226671 C18.174599,15.935957 18.2749722,15.9459634 18.3777105,15.9466124 C18.3796635,15.946624 18.3796635,15.946624 18.381623,15.9466326 C18.5665774,15.9468556 18.7122665,15.94714 19.0407982,15.9478654 C19.4727858,15.9488192 19.6649631,15.9491588 19.905443,15.9492655 C20.4932914,15.9495265 20.9743276,15.9475865 21.4373989,15.9423773 C21.2326838,15.9447522 20.9830975,15.7763941 20.9102355,15.6204523 C21.8072225,17.5433652 23.1530642,19.0861038 24.9258721,20.2190767 C27.3065322,21.7409078 29.9410951,22.2859108 32.7595964,21.8598252 C34.2866981,21.6292185 35.7159728,21.0811685 37.0213196,20.2283127 C37.3870139,19.9890692 37.6854012,19.5625317 37.6918313,19.0783326 C37.7022044,18.3045767 37.7037458,17.6925312 37.7022486,16.2796813 C37.7018376,15.890875 37.7017008,15.7175098 37.7017008,15.4986424 L37.7017008,15.4986424 L37.7017008,15.4986424 Z" id="Shape"></path>
            <path d="M50.3515193,9.83697415 C50.247605,10.8259965 49.8726748,11.1674948 48.8946222,11.2080777 C47.4257465,11.2694031 45.9622612,11.2618878 44.4915887,11.282029 C44.4649363,11.2826302 44.3903695,11.2660964 44.3903695,11.2459552 L44.3903695,9.29676956 C44.3903695,8.09340896 44.3792893,6.89004836 44.3700059,5.68668776 C44.3682091,5.46122675 44.4092358,5.38186447 44.647011,5.38396877 C45.8748174,5.39539213 47.1029233,5.38517123 48.3307297,5.39298721 C48.5723979,5.3947909 48.8200554,5.41613454 49.0536381,5.47445379 C49.901124,5.68638715 50.3083964,6.15654852 50.3826637,7.20719686 C50.4443534,8.07958068 50.4428561,8.96789709 50.3515193,9.83697415 M55.6508515,12.1381796 C56.0967548,9.90220754 56.1036425,7.63887955 55.7394931,5.39509151 C55.4277501,3.47416365 54.3311093,2.12199878 52.4843089,1.43539484 C51.5945984,1.10441806 50.6593693,1.01663857 49.7244397,1.01182874 C46.2521433,0.994092473 42.7750555,1.00190846 39.3027591,1.000706 C39.2000426,1.000706 39,1.01002505 39,1.01453427 L39,21 L44.3903695,21 L44.3903695,15.9448634 C44.3903695,15.9448634 44.6326367,15.9457652 44.7461339,15.9448634 C45.9158441,15.9352437 47.0807629,15.9385505 48.2501736,15.9120964 C49.3893383,15.8865441 50.5308988,15.8871454 51.6628764,15.7750161 C53.7249922,15.5708987 55.2420818,14.1865681 55.6508515,12.1381796" id="Fill-5"></path>
            <path d="M77.7348609,20.3458652 C75.7233141,13.7339087 73.7102437,7.15877826 71.7029625,0.5453 C71.6408062,0.339865217 71.5484859,0.2933 71.3336812,0.293908696 C68.7636422,0.301821739 66.1936031,0.311256522 63.6235641,0.302734783 C63.3938297,0.302126087 63.305775,0.375473913 63.2393531,0.596430435 C61.4063531,6.71473478 59.5645172,12.8327348 57.7242047,18.949213 C57.5514469,19.5235174 57.3799078,20.0996478 57.2044078,20.6858217 C57.2778375,20.6970826 57.3162281,20.7089522 57.3549234,20.7089522 C59.1211969,20.7104739 60.8874703,20.7074304 62.6534391,20.7162565 C62.8560562,20.7171696 62.8990172,20.6124739 62.9413687,20.4599957 C63.2183297,19.4596043 63.5032125,18.4616478 63.7749937,17.4597348 C63.8261812,17.2704304 63.8980875,17.1861261 64.1135016,17.1870391 C66.3959156,17.1952565 68.678025,17.1952565 70.9604391,17.1870391 C71.1706734,17.1864304 71.2523297,17.2613 71.3077828,17.4524304 C71.5935797,18.4403435 71.8988766,19.4224739 72.1801031,20.4113 C72.2446969,20.6383435 72.3339703,20.6474739 72.5816812,20.6456478 C74.2190719,20.6325609 75.8561578,20.5656043 77.4935484,20.5656043 L77.8095094,20.5656043 C77.7784312,20.5656043 77.7604547,20.4298652 77.7348609,20.3458652 L77.7348609,20.3458652 L77.7348609,20.3458652 Z M64.8426187,13.2612565 C65.6710641,10.2177783 66.4931109,7.3989087 67.3148531,4.49086522 C67.3407516,4.4926913 67.3669547,4.50608261 67.3928531,4.5079087 C68.2389703,7.41351739 69.0850875,10.2177783 69.9385172,13.2612565 L64.8426187,13.2612565 L64.8426187,13.2612565 L64.8426187,13.2612565 Z" id="Path"></path>
        </g>
    </g>
</svg>