<?xml version="1.0" encoding="UTF-8" standalone="no"?>
<svg width="33px" height="32px" viewBox="0 0 33 32" version="1.1" xmlns="http://www.w3.org/2000/svg" xmlns:xlink="http://www.w3.org/1999/xlink" xmlns:sketch="http://www.bohemiancoding.com/sketch/ns">
    <!-- Generator: Sketch 3.4 (15575) - http://www.bohemiancoding.com/sketch -->
    <title>Shape</title>
    <desc>Created with Sketch.</desc>
    <defs></defs>
    <g id="MyAccount" stroke="none" stroke-width="1" fill="none" fill-rule="evenodd" sketch:type="MSPage">
        <g id="SP-MYACCOUNT-" sketch:type="MSArtboardGroup" transform="translate(-361.000000, -237.000000)" fill="#838C8E">
            <path d="M393.762341,252.169461 C393.883754,252.321873 393.968484,252.498051 393.983984,252.705228 C393.9845,252.723827 393.9969,252.737777 393.996383,252.756893 C393.9969,252.762576 394,252.766192 394,252.771359 C394,252.776525 393.9969,252.781692 393.9969,252.786858 C393.9969,252.799775 393.990184,252.810108 393.989667,252.82354 C393.976751,253.069983 393.880137,253.290076 393.725659,253.461087 C393.713259,253.475036 393.718942,253.495186 393.705509,253.509652 C393.692593,253.522052 393.672444,253.516885 393.658494,253.528768 C393.648161,253.538068 393.630595,253.536518 393.620262,253.544784 L385.40604,261.776572 C385.012353,262.169226 384.374806,262.169226 383.981635,261.776572 C383.587948,261.381851 383.587948,260.742755 383.981635,260.349068 L390.513128,253.805176 L366.155653,253.805176 C365.585271,253.805176 365.123902,253.342257 365.123902,252.770842 C365.123902,252.20046 365.585787,251.737542 366.155653,251.737542 L390.513644,251.737542 L383.981119,245.193133 C383.587431,244.799446 383.587431,244.160866 383.981119,243.765629 C384.37429,243.371941 385.011836,243.371941 385.405523,243.765629 L393.59288,251.969001 C393.602179,251.976751 393.605796,251.988117 393.614579,251.99535 C393.641961,252.017049 393.680194,252.00775 393.705509,252.033066 C393.743225,252.071298 393.731859,252.128129 393.762341,252.169461 L393.762341,252.169461 Z M377.499742,240.37227 C377.499742,239.800855 378.069607,239.338453 377.499742,239.338453 L364.093702,239.338453 C363.52332,239.338453 363.061951,239.800855 363.061951,240.37227 L363.061951,265.170964 C363.061951,265.741346 363.523836,266.204265 364.093702,266.204265 L376.468508,266.204265 C377.038373,266.204265 377.499742,265.741346 377.499742,265.170964 L377.499742,262.07003 L379.562726,262.07003 L379.562726,266.204265 C379.562726,267.346578 378.638955,268.271382 377.499742,268.271382 L363.061951,268.271382 C361.922737,268.271382 361,267.346578 361,266.204265 L361,239.338453 C361,238.196656 361.922737,237.272369 363.061951,237.272369 L377.499742,237.272369 C378.638955,237.272369 379.562726,238.196656 379.562726,239.338453 L379.562726,243.471138 L377.499742,243.471138 L377.499742,240.37227 L377.499742,240.37227 Z" id="Shape" sketch:type="MSShapeGroup"></path>
        </g>
    </g>
</svg>