<?xml version="1.0" encoding="UTF-8" standalone="no"?>
<svg width="35px" height="23px" viewBox="0 0 35 23" version="1.1" xmlns="http://www.w3.org/2000/svg" xmlns:xlink="http://www.w3.org/1999/xlink">
    <defs></defs>
    <g id="Page-1" stroke="none" stroke-width="1" fill="none" fill-rule="evenodd">
        <g id="Shape-+-Oval" fill="#DCDCDC">
            <path d="M17.4840568,1.77635684e-15 C9.77130225,1.77635684e-15 3.12392819,4.56983607 0.0703376206,11.1644262 C-0.0234458735,11.3642623 -0.0234458735,11.5980328 0.0703376206,11.8016393 C3.12392819,18.3961918 9.77133976,22.9660656 17.4840568,22.9660656 C25.1967738,22.9660656 31.8441854,18.3962295 34.897776,11.8016393 C34.9915595,11.6018033 34.9915595,11.3680328 34.897776,11.1644262 C31.8441854,4.56983607 25.1968114,1.77635684e-15 17.4840568,1.77635684e-15 L17.4840568,1.77635684e-15 Z M17.4840568,19.406759 C13.1287513,19.406759 9.60249196,15.8586885 9.60249196,11.484918 C9.60249196,7.10737705 13.1325027,3.56311475 17.4840568,3.56311475 C21.8393623,3.56311475 25.3656217,7.11114754 25.3656217,11.484918 C25.3656217,15.8586885 21.8356109,19.406759 17.4840568,19.406759 L17.4840568,19.406759 Z" id="Shape"></path>
            <ellipse id="Oval" cx="17.4840568" cy="11.4811475" rx="5.04555198" ry="5.07131148"></ellipse>
        </g>
    </g>
</svg>