<?xml version="1.0" encoding="UTF-8" standalone="no"?>
<svg width="70px" height="70px" viewBox="0 0 70 70" version="1.1" xmlns="http://www.w3.org/2000/svg" xmlns:xlink="http://www.w3.org/1999/xlink">
    <defs></defs>
    <g id="WHYPAGE" stroke="none" stroke-width="1" fill="none" fill-rule="evenodd">
        <g transform="translate(-179.000000, -697.000000)" id="LIST" fill="#62BC46">
            <g transform="translate(179.000000, 697.000000)">
                <g id="Frische-und-gesunde--+-tick7">
                    <g id="tick7">
                        <g id="Capa_1">
                            <g id="check-circle-outline">
                                <path d="M20.3547745,28.5821525 L15.4807692,33.4590081 L31.1472149,49.1346154 L65.9615385,14.2999325 L61.0875332,9.42307692 L31.1472149,39.3809042 L20.3547745,28.5821525 L20.3547745,28.5821525 Z M63,35 C63,50.4 50.4,63 35,63 C19.6,63 7,50.4 7,35 C7,19.6 19.6,7 35,7 C37.8,7 40.25,7.35 42.7,8.05 L48.3001373,2.45 C44.1,1.05 39.55,0 35,0 C15.75,0 0,15.75 0,35 C0,54.25 15.75,70 35,70 C54.25,70 70,54.25 70,35 L63,35 L63,35 Z" id="Shape"></path>
                            </g>
                        </g>
                    </g>
                </g>
            </g>
        </g>
    </g>
</svg>