<?xml version="1.0" encoding="UTF-8" standalone="no"?>
<svg width="37px" height="45px" viewBox="0 0 37 45" version="1.1" xmlns="http://www.w3.org/2000/svg" xmlns:xlink="http://www.w3.org/1999/xlink">
    <defs></defs>
    <g id="Page-1" stroke="none" stroke-width="1" fill="none" fill-rule="evenodd">
        <g id="Lock" fill="#969EA0">
            <path d="M4.26923077,45 C1.85,45 0,43.171875 0,40.78125 L0,21.09375 C0,18.703125 1.85,16.875 4.26923077,16.875 L7.11538462,16.875 L7.11538462,11.25 C7.11538462,5.0625 12.2384615,0 18.5,0 C24.7615385,0 29.8846154,5.0625 29.8846154,11.25 L29.8846154,16.875 L32.7307692,16.875 C35.15,16.875 37,18.703125 37,21.09375 L37,40.78125 C37,43.171875 35.15,45 32.7307692,45 L4.26923077,45 Z M24,11.5 C24,8.475 21.525,6 18.5,6 C15.475,6 13,8.475 13,11.5 L13,17 L24,17 L24,11.5 Z M23.5605014,35.7372439 C23.5605014,35.8755366 23.6711355,36 23.8232575,36 L28.8847697,36 C29.0368916,36 29.1475258,35.8755366 29.1475258,35.7372439 L29.1475258,34.6032439 C29.1475258,34.4649512 29.0368916,34.3404878 28.8847697,34.3404878 L25.3583062,34.3404878 L25.3583062,26.5822683 C25.3583062,26.4439756 25.2338428,26.3195122 25.0955501,26.3195122 L23.8232575,26.3195122 C23.6711355,26.3195122 23.5605014,26.4439756 23.5605014,26.5822683 L23.5605014,35.7372439 Z M15.4116287,35.0596098 C15.6882141,35.3223659 16.71158,36.1382927 18.4540678,36.1382927 C20.4039946,36.1382927 21.6347995,34.8245122 21.6347995,33.4000976 C21.6347995,31.616122 20.0859214,30.8140244 18.7444824,30.2746829 C17.6243117,29.8183171 17.1126287,29.3757805 17.1126287,28.7258049 C17.1126287,28.2832683 17.541336,27.7577561 18.3296043,27.7577561 C19.0902141,27.7577561 20.1412385,28.4492195 20.2518726,28.5183659 C20.4178239,28.629 20.6252629,28.5183659 20.735897,28.3524146 L21.2614092,27.5641463 C21.3582141,27.4258537 21.3167263,27.1907561 21.1784336,27.1077805 C20.9018482,26.9003415 19.8231653,26.1812195 18.41258,26.1812195 C16.2137263,26.1812195 15.3009946,27.6056341 15.3009946,28.836439 C15.3009946,30.4682927 16.6009458,31.2980488 17.900897,31.823561 C19.0625556,32.2937561 19.6572141,32.7777805 19.6572141,33.4830732 C19.6572141,34.0777317 19.1178726,34.5479268 18.3987507,34.5479268 C17.4998482,34.5479268 16.3796775,33.732 16.3105312,33.6905122 C16.1860678,33.5937073 15.9509702,33.5937073 15.840336,33.7873171 L15.3424824,34.6447317 C15.218019,34.866 15.2871653,34.9351463 15.4116287,35.0596098 Z M7.76060976,35.0596098 C8.03719512,35.3223659 9.06056098,36.1382927 10.8030488,36.1382927 C12.7529756,36.1382927 13.9837805,34.8245122 13.9837805,33.4000976 C13.9837805,31.616122 12.4349024,30.8140244 11.0934634,30.2746829 C9.97329268,29.8183171 9.46160976,29.3757805 9.46160976,28.7258049 C9.46160976,28.2832683 9.89031707,27.7577561 10.6785854,27.7577561 C11.4391951,27.7577561 12.4902195,28.4492195 12.6008537,28.5183659 C12.7668049,28.629 12.9742439,28.5183659 13.084878,28.3524146 L13.6103902,27.5641463 C13.7071951,27.4258537 13.6657073,27.1907561 13.5274146,27.1077805 C13.2508293,26.9003415 12.1721463,26.1812195 10.761561,26.1812195 C8.56270732,26.1812195 7.64997561,27.6056341 7.64997561,28.836439 C7.64997561,30.4682927 8.94992683,31.2980488 10.249878,31.823561 C11.4115366,32.2937561 12.0061951,32.7777805 12.0061951,33.4830732 C12.0061951,34.0777317 11.4668537,34.5479268 10.7477317,34.5479268 C9.84882927,34.5479268 8.72865854,33.732 8.6595122,33.6905122 C8.53504878,33.5937073 8.29995122,33.5937073 8.18931707,33.7873171 L7.69146341,34.6447317 C7.567,34.866 7.63614634,34.9351463 7.76060976,35.0596098 Z"></path>
        </g>
    </g>
</svg>