<?xml version="1.0" encoding="UTF-8" standalone="no"?>
<svg width="95px" height="18px" viewBox="0 0 95 18" version="1.1" xmlns="http://www.w3.org/2000/svg" xmlns:xlink="http://www.w3.org/1999/xlink">
    <defs></defs>
    <g id="Page-1" stroke="none" stroke-width="1" fill="none" fill-rule="evenodd">
        <g id="DerSpiegel" fill="#FFFFFF">
            <path d="M0.0054,0.2436 L0.0054,0.5676 C0.0054,6.2616 0.0069,11.9556 0.00015,17.6496 C-0.0006,17.91885 0.0609,17.99985 0.3459,17.99985 C31.69065,17.9931 63.0354,17.9931 94.38015,17.9931 L94.68165,17.9931 L94.68165,0.2436 L0.0054,0.2436 Z M4.067025,5.242275 C3.829275,5.242275 3.603525,5.254275 3.380775,5.234775 C3.308025,5.228775 3.183525,5.143275 3.182025,5.091525 C3.167775,4.512525 3.173025,3.933525 3.173025,3.331275 C3.301275,3.325275 3.398025,3.317025 3.494775,3.317025 C5.540775,3.312525 7.586025,3.308025 9.632025,3.305775 C10.526025,3.305025 11.045025,3.831525 11.045775,4.733025 C11.045775,7.660275 11.029275,10.588275 11.058525,13.515525 C11.065275,14.253525 10.437525,14.942775 9.631275,14.933025 C7.686525,14.909025 5.741025,14.937525 3.795525,14.942025 C3.597525,14.942775 3.400275,14.924775 3.187275,14.915025 L3.187275,13.042275 L4.067025,13.042275 L4.067025,5.242275 Z M29.421,13.0485 L30.294,13.0485 L30.294,14.8995 L26.32875,14.8995 L26.32875,13.0425 L27.0945,13.0425 C27.10575,12.9435 27.12,12.87375 27.12,12.804 C27.1215,11.886 27.1215,10.96725 27.12,10.0485 C27.11925,9.93825 27.1605,9.7935 26.96925,9.79275 L24.49875,9.79275 L24.49875,13.038 L25.3185,13.038 L25.3185,14.90325 L21.321,14.90325 L21.321,13.03725 L22.3095,13.03725 L22.3095,5.26425 C21.9825,5.24475 21.6525,5.22525 21.312,5.205 L21.312,3.306 C21.4275,3.3 21.5415,3.28725 21.65625,3.288 C23.775,3.294 25.89375,3.30075 28.0125,3.3105 C28.1565,3.31125 28.3065,3.3135 28.4445,3.35025 C29.06475,3.516 29.43225,4.011 29.43,4.656 C29.427,5.574 29.41575,6.492 29.424,7.41075 C29.43075,8.21325 29.1615,8.62425 28.392,8.904 C28.521,8.9625 28.6425,9.0015 28.74825,9.06675 C29.16975,9.32775 29.421,9.69525 29.421,10.20675 L29.421,13.0485 Z M15.3741,13.030725 L18.06885,13.030725 L18.06885,12.184725 C18.06885,11.811975 18.06135,11.439225 18.07635,11.066475 C18.07935,10.998225 18.17235,10.875975 18.2256,10.874475 C18.87735,10.861725 19.5306,10.866225 20.2011,10.866225 L20.2011,14.907225 C20.10735,14.911725 20.01135,14.919975 19.91535,14.919975 C17.4876,14.922225 15.0591,14.919975 12.63135,14.930475 C12.3741,14.931225 12.2811,14.868225 12.2916,14.599725 C12.31185,14.092725 12.2976,13.584975 12.2976,13.040475 L13.1391,13.040475 L13.1391,5.241225 L12.5826,5.241225 C12.41535,5.240475 12.3201,5.190975 12.32235,4.988475 C12.3291,4.552725 12.3051,4.116225 12.29835,3.680475 C12.29235,3.287475 12.29535,3.285975 12.67935,3.288225 C14.6886,3.297225 16.69785,3.307725 18.70785,3.315975 C19.19685,3.318225 19.68585,3.316725 20.2086,3.316725 C20.2086,3.509475 20.2086,3.679725 20.20935,3.849225 C20.21235,4.740975 20.20635,5.631975 20.2251,6.522975 C20.2311,6.772725 20.14785,6.830475 19.9161,6.824475 C19.39785,6.810975 18.8796,6.815475 18.36135,6.830475 C18.14085,6.837225 18.0546,6.776475 18.06435,6.542475 C18.0816,6.125475 18.06885,5.707725 18.06885,5.253975 L15.38235,5.253975 L15.38235,7.899975 L18.85185,7.899975 L18.85185,9.786975 L15.3741,9.786975 L15.3741,13.030725 Z M34.38315,10.870575 L36.54015,10.870575 L36.54015,13.033575 L39.08715,13.033575 L39.08715,9.796575 L34.38315,9.796575 L34.38315,9.469575 C34.38315,7.850325 34.38315,6.231075 34.3839,4.612575 C34.3839,3.954825 34.8864,3.370575 35.5449,3.324075 C36.1059,3.284325 36.6714,3.298575 37.23465,3.297825 C38.1354,3.297825 39.0369,3.331575 39.93615,3.301575 C40.86465,3.271575 41.44365,3.996825 41.3949,4.759575 C41.35215,5.418825 41.3859,6.084075 41.3859,6.794325 L40.3674,6.794325 C40.02165,6.794325 39.6759,6.786825 39.33015,6.796575 C39.1524,6.802575 39.0894,6.739575 39.09315,6.561075 C39.1029,6.135825 39.09615,5.709825 39.09615,5.250075 L36.5814,5.250075 C36.57315,5.294325 36.55215,5.353575 36.5529,5.412825 C36.5589,6.158325 36.57315,6.903825 36.57315,7.650075 C36.57315,7.854825 36.65115,7.908075 36.84915,7.907325 C38.2404,7.899825 39.63165,7.903575 41.02365,7.903575 L41.3829,7.903575 L41.3829,8.215575 C41.3829,10.007325 41.3829,11.799825 41.3814,13.591575 C41.3814,14.270325 40.8624,14.848575 40.1799,14.914575 C39.9459,14.937825 39.70815,14.927325 39.4719,14.927325 C38.25315,14.927325 37.0344,14.927325 35.81565,14.924325 C34.90965,14.922075 34.3809,14.388825 34.3809,13.482825 C34.3809,12.718575 34.3824,11.955075 34.38315,11.190825 L34.38315,10.870575 Z M45.7329,9.779025 L45.7329,13.046025 L46.5174,13.046025 L46.5174,14.901525 C46.42965,14.908275 46.3509,14.919525 46.27215,14.919525 C45.12615,14.922525 43.9809,14.916525 42.8349,14.930775 C42.5859,14.933775 42.52665,14.849775 42.5334,14.618025 C42.54765,14.103525 42.5379,13.587525 42.5379,13.038525 L43.42365,13.038525 C43.42965,12.907275 43.43715,12.809775 43.43715,12.712275 C43.4319,10.339275 43.42215,7.965525 43.4244,5.592525 C43.42515,5.330775 43.3734,5.201775 43.08015,5.237025 C42.92265,5.256525 42.7584,5.219025 42.55065,5.203275 C42.55065,4.605525 42.5439,4.025025 42.5604,3.446025 C42.5619,3.390525 42.70065,3.293025 42.7764,3.292275 C43.29465,3.284775 43.8129,3.302025 44.3304,3.302775 C45.94065,3.305775 47.55015,3.306525 49.15965,3.305025 C49.66815,3.304275 50.0979,3.471525 50.35215,3.925275 C50.4669,4.129275 50.5449,4.382775 50.5479,4.616025 C50.56665,5.888775 50.5569,7.161525 50.5569,8.435025 C50.5569,9.221775 49.9929,9.788025 49.20015,9.788025 C48.15465,9.788025 47.1084,9.782025 46.0629,9.779025 C45.9639,9.778275 45.86415,9.779025 45.7329,9.779025 Z M51.101475,14.9025 L51.101475,13.04325 L51.905475,13.04325 L51.905475,5.22525 L51.116475,5.22525 L51.116475,3.312 L54.963975,3.312 L54.963975,5.20125 L54.171975,5.20125 L54.171975,13.041 L54.966975,13.041 L54.966975,14.9025 L51.101475,14.9025 Z M63.885675,14.90535 L56.030175,14.90535 L56.030175,13.0431 L56.787675,13.0431 C56.795175,12.9111 56.807175,12.8061 56.806425,12.70035 C56.801175,10.32735 56.791425,7.95435 56.793675,5.58135 C56.793675,5.33235 56.745675,5.20485 56.467425,5.2371 C56.327175,5.2536 56.182425,5.22435 56.028675,5.21535 L56.028675,3.31635 L63.888675,3.31635 L63.888675,6.7926 C63.220425,6.7926 62.567925,6.79785 61.915425,6.78285 C61.859925,6.7821 61.765425,6.6456 61.761675,6.5691 C61.745175,6.1971 61.762425,5.82285 61.745175,5.45085 C61.741425,5.37735 61.638675,5.24685 61.580175,5.2461 C60.754425,5.2326 59.927925,5.2371 59.082675,5.2371 L59.082675,7.8951 L62.545425,7.8951 L62.545425,9.77685 L59.082675,9.77685 L59.082675,13.02585 L61.756425,13.02585 L61.756425,10.89585 L63.885675,10.89585 L63.885675,14.90535 Z M69.724425,6.808875 C69.724425,6.327375 69.722175,5.900625 69.725925,5.474625 C69.726675,5.328375 69.701175,5.233125 69.519675,5.233875 C68.783925,5.234625 68.047425,5.224875 67.310925,5.220375 C67.277175,5.220375 67.242675,5.233125 67.188675,5.242875 L67.188675,13.027875 L69.695175,13.027875 C69.706425,12.937875 69.725925,12.852375 69.726675,12.766875 C69.728925,11.866125 69.720675,10.966125 69.732675,10.066125 C69.735675,9.822375 69.632925,9.784125 69.422175,9.790125 C68.951175,9.803625 68.479425,9.794625 67.989675,9.794625 L67.989675,7.926375 L72.011925,7.926375 L72.011925,14.920875 C71.905425,14.920875 71.807175,14.920125 71.708925,14.920875 C70.027425,14.927625 68.345175,14.935875 66.662925,14.938125 C66.436425,14.938875 66.203925,14.936625 65.985675,14.887125 C65.454675,14.767125 65.021175,14.229375 65.020425,13.673625 C65.017425,11.337375 65.026425,9.001125 65.030925,6.664875 C65.032425,6.001125 65.033175,5.336625 65.036925,4.672875 C65.041425,3.847125 65.559675,3.320625 66.377925,3.316875 C67.805925,3.311625 69.233175,3.307875 70.661175,3.307875 C71.492175,3.307875 72.037425,3.861375 72.039675,4.696875 C72.041175,5.324625 72.038925,5.951625 72.038925,6.579375 C72.038925,6.699375 72.053925,6.823875 71.870175,6.821625 C71.351925,6.814875 70.833675,6.812625 70.315425,6.808875 C70.135425,6.808125 69.955425,6.808875 69.724425,6.808875 Z M73.99245,5.2632 C73.73145,5.2437 73.48095,5.22495 73.2132,5.20545 L73.2132,3.31245 L81.08745,3.31245 L81.08745,6.79245 C80.41245,6.79245 79.75845,6.79845 79.10595,6.78345 C79.0497,6.78195 78.95295,6.6477 78.9492,6.5712 C78.9327,6.1992 78.9402,5.8257 78.94095,5.45295 C78.9417,5.33445 78.9312,5.23545 78.7722,5.2362 C77.9637,5.23845 77.1552,5.23695 76.3257,5.23695 L76.3257,7.9227 L79.73895,7.9227 L79.73895,9.7767 L76.32195,9.7767 L76.32195,13.0287 L78.91695,13.0287 C78.9252,12.92895 78.9402,12.83445 78.94095,12.73995 C78.94395,12.20295 78.94995,11.6667 78.9417,11.1297 C78.93945,10.93245 79.00245,10.8552 79.20795,10.8597 C79.76295,10.87395 80.3172,10.86945 80.8722,10.8747 C80.9427,10.87545 81.0132,10.8912 81.0957,10.9017 L81.0957,14.90445 L73.22445,14.90445 L73.22445,13.05345 C73.4772,13.04145 73.72695,13.0302 73.99245,13.01745 L73.99245,5.2632 Z M83.2134,5.264025 C82.9389,5.247525 82.66365,5.231775 82.3689,5.215275 L82.3689,3.320775 L86.3859,3.320775 L86.3859,5.207775 L85.49265,5.207775 L85.49265,13.024275 L88.1049,13.024275 L88.1049,11.513025 C88.1049,10.854525 88.1049,10.853775 88.7619,10.854525 C89.1894,10.854525 89.6169,10.859775 90.0444,10.856025 C90.18765,10.855275 90.26115,10.894275 90.2604,11.054775 C90.25665,12.327525 90.25815,13.600275 90.25815,14.898525 L82.3554,14.898525 C82.3554,14.331525 82.3494,13.769775 82.36365,13.209525 C82.36515,13.152525 82.4814,13.058025 82.5519,13.051275 C82.76565,13.030275 82.9824,13.043775 83.2134,13.043775 L83.2134,5.264025 Z M45.7359,7.890525 L45.7359,5.216025 C46.1139,5.216025 46.4754,5.213775 46.8369,5.216775 C47.26365,5.220525 47.68965,5.229525 48.1164,5.234775 C48.24015,5.236275 48.35265,5.231775 48.3519,5.411775 C48.3474,6.227775 48.34965,7.043775 48.34965,7.890525 L45.7359,7.890525 Z M6.291525,5.228775 C6.708525,5.228775 7.122525,5.227275 7.537275,5.228775 C7.882275,5.229525 8.228775,5.249025 8.573025,5.230275 C8.821275,5.216775 8.879775,5.312025 8.878275,5.543775 C8.867775,6.698025 8.870775,7.853025 8.870775,9.007275 C8.870775,10.244025 8.867025,11.480775 8.878275,12.716775 C8.880525,12.962025 8.816775,13.044525 8.559525,13.038525 C7.896525,13.022775 7.232775,13.040775 6.569025,13.044525 C6.480525,13.044525 6.392025,13.037025 6.291525,13.032525 L6.291525,5.228775 Z M24.48525,5.2275 L27.11775,5.2275 L27.11775,7.896 L24.48525,7.896 L24.48525,5.2275 Z" id="Fill-1"></path>
        </g>
    </g>
</svg>