<?xml version="1.0" encoding="UTF-8" standalone="no"?>
<svg width="24px" height="24px" viewBox="0 0 24 24" version="1.1" xmlns="http://www.w3.org/2000/svg" xmlns:xlink="http://www.w3.org/1999/xlink">
    <defs></defs>
    <g id="Products-Detail-OLD" stroke="none" stroke-width="1" fill="none" fill-rule="evenodd">
        <g id="PACKAGE-DOG-ROUGH" transform="translate(-1124.000000, -5244.000000)" fill="#62BC46">
            <g id="SECTION-LAGERUNG-Copy-2" transform="translate(-18.000000, 4860.000000)">
                <g id="FAQ-CP--Copy" transform="translate(98.000000, 357.000000)">
                    <path d="M1056,51 C1049.4,51 1044,45.6 1044,39 C1044,32.4 1049.4,27 1056,27 C1062.6,27 1068,32.4 1068,39 C1068,45.6 1062.6,51 1056,51 L1056,51 Z M1060,38 L1057,38 L1057,35 C1057,34.4 1056.6,34 1056,34 C1055.4,34 1055,34.4 1055,35 L1055,38 L1052,38 C1051.4,38 1051,38.4 1051,39 C1051,39.6 1051.4,40 1052,40 L1055,40 L1055,43 C1055,43.6 1055.4,44 1056,44 C1056.6,44 1057,43.6 1057,43 L1057,40 L1060,40 C1060.6,40 1061,39.6 1061,39 C1061,38.4 1060.6,38 1060,38 L1060,38 Z" id="Plus"></path>
                </g>
            </g>
        </g>
    </g>
</svg>