<?xml version="1.0" encoding="UTF-8" standalone="no"?>
<svg width="36px" height="54px" viewBox="0 0 36 54" version="1.1" xmlns="http://www.w3.org/2000/svg" xmlns:xlink="http://www.w3.org/1999/xlink">
    <defs></defs>
    <g id="Page-1" stroke="none" stroke-width="1" fill="none" fill-rule="evenodd">
        <g id="Oval-37-+-Shape" fill="#979797">
            <path d="M30.4852814,51.2132034 C30.4852814,45.4223424 25.790861,40.7279221 20,40.7279221 C14.209139,40.7279221 9.51471863,45.4223424 9.51471863,51.2132034 C9.51471863,52.3177729 10.4101491,53.2132034 11.5147186,53.2132034 C12.6192881,53.2132034 13.5147186,52.3177729 13.5147186,51.2132034 C13.5147186,47.6314814 16.418278,44.7279221 20,44.7279221 C23.581722,44.7279221 26.4852814,47.6314814 26.4852814,51.2132034 C26.4852814,52.3177729 27.3807119,53.2132034 28.4852814,53.2132034 C29.5898509,53.2132034 30.4852814,52.3177729 30.4852814,51.2132034 L30.4852814,51.2132034 Z" id="Shape"></path>
            <path d="M10.8,28.8 C8.82,28.8 7.2,30.42 7.2,32.4 C7.2,34.38 8.82,36 10.8,36 C12.78,36 14.4,34.38 14.4,32.4 C14.4,30.42 12.78,28.8 10.8,28.8 L10.8,28.8 Z M0,0 L0,3.6 L3.6,3.6 L10.08,17.28 L7.56,21.6 C7.38,22.14 7.2,22.86 7.2,23.4 C7.2,25.38 8.82,27 10.8,27 L32.4,27 L32.4,23.4 L11.52,23.4 C11.34,23.4 11.16,23.22 11.16,23.04 L11.16,22.8599294 L12.78,19.7999294 L26.1,19.7999294 C27.54,19.7999294 28.62,19.0799294 29.16,17.9999294 L35.64,6.3 C36,5.94 36,5.76 36,5.4 C36,4.32 35.28,3.6 34.2,3.6 L7.56,3.6 L5.94,0 L0,0 L0,0 Z M28.8,28.8 C26.82,28.8 25.2,30.42 25.2,32.4 C25.2,34.38 26.82,36 28.8,36 C30.78,36 32.4,34.38 32.4,32.4 C32.4,30.42 30.78,28.8 28.8,28.8 L28.8,28.8 Z" id="Shape"></path>
        </g>
    </g>
</svg>