<?xml version="1.0" encoding="UTF-8" standalone="no"?>
<svg width="18px" height="18px" viewBox="0 0 18 18" version="1.1" xmlns="http://www.w3.org/2000/svg" xmlns:xlink="http://www.w3.org/1999/xlink">
    <defs></defs>
    <g id="CheckOut" stroke="none" stroke-width="1" fill="none" fill-rule="evenodd">
        <g id="CHECKOUT-STEP-2-KLARNA-OPEN" transform="translate(-579.000000, -803.000000)" fill="#838D8F">
            <g id="Payment-Options" transform="translate(401.000000, 518.000000)">
                <g id="Klarna">
                    <g id="CREDITCARD-SECTION" transform="translate(0.000000, 117.000000)">
                        <g id="/-+-Month-+-Month-Copy" transform="translate(40.000000, 153.000000)">
                            <g id="Month">
                                <path d="M154.3125,33 L139.6875,33 C138.73125,33 138,32.2571429 138,31.2857143 L138,21 L156,21 L156,31.2857143 C156,32.2571429 155.26875,33 154.3125,33 L154.3125,33 Z M144,24.5 C144,24.2 143.8,24 143.5,24 L142.5,24 C142.2,24 142,24.2 142,24.5 L142,25.5 C142,25.8 142.2,26 142.5,26 L143.5,26 C143.8,26 144,25.8 144,25.5 L144,24.5 L144,24.5 Z M144,28.5 C144,28.2 143.8,28 143.5,28 L142.5,28 C142.2,28 142,28.2 142,28.5 L142,29.5 C142,29.8 142.2,30 142.5,30 L143.5,30 C143.8,30 144,29.8 144,29.5 L144,28.5 L144,28.5 Z M148,24.5 C148,24.2 147.8,24 147.5,24 L146.5,24 C146.2,24 146,24.2 146,24.5 L146,25.5 C146,25.8 146.2,26 146.5,26 L147.5,26 C147.8,26 148,25.8 148,25.5 L148,24.5 L148,24.5 Z M148,28.5 C148,28.2 147.8,28 147.5,28 L146.5,28 C146.2,28 146,28.2 146,28.5 L146,29.5 C146,29.8 146.2,30 146.5,30 L147.5,30 C147.8,30 148,29.8 148,29.5 L148,28.5 L148,28.5 Z M152,24.5 C152,24.2 151.8,24 151.5,24 L150.5,24 C150.2,24 150,24.2 150,24.5 L150,25.5 C150,25.8 150.2,26 150.5,26 L151.5,26 C151.8,26 152,25.8 152,25.5 L152,24.5 L152,24.5 Z M152,28.5 C152,28.2 151.8,28 151.5,28 L150.5,28 C150.2,28 150,28.2 150,28.5 L150,29.5 C150,29.8 150.2,30 150.5,30 L151.5,30 C151.8,30 152,29.8 152,29.5 L152,28.5 L152,28.5 Z M138,18.8888889 C138,17.9444444 138.73125,17.2222222 139.6875,17.2222222 L141.9375,17.2222222 L141.9375,16.1111111 C141.9375,15.5 142.44375,15 143.0625,15 C143.68125,15 144.1875,15.5 144.1875,16.1111111 L144.1875,17.2222222 L149.8125,17.2222222 L149.8125,16.1111111 C149.8125,15.5 150.31875,15 150.9375,15 C151.55625,15 152.0625,15.5 152.0625,16.1111111 L152.0625,17.2222222 L154.3125,17.2222222 C155.26875,17.2222222 156,17.9444444 156,18.8888889 L156,20 L138,20 L138,18.8888889 L138,18.8888889 Z" id="Calendar"></path>
                            </g>
                        </g>
                    </g>
                </g>
            </g>
        </g>
    </g>
</svg>