<?xml version="1.0" encoding="UTF-8" standalone="no"?>
<svg width="34px" height="24px" viewBox="0 0 34 24" version="1.1" xmlns="http://www.w3.org/2000/svg" xmlns:xlink="http://www.w3.org/1999/xlink">
    <defs></defs>
    <g id="Product-Detail-NEW" stroke="none" stroke-width="1" fill="none" fill-rule="evenodd">
        <g id="PACKAGE-DOG-Scroll" transform="translate(-860.000000, -334.000000)" fill="#65BA4D">
            <g id="delivery23" transform="translate(860.000000, 334.000000)">
                <g id="Capa_1">
                    <path d="M1.193,15.9734444 L1.193,1.50766667 C1.193,0.703833333 1.84461111,0.0521666667 2.6485,0.0521666667 L17.1068333,0.0521666667 C17.9106667,0.0521666667 18.5622778,0.703833333 18.5622778,1.50766667 L18.5622778,15.9735 C18.5622778,16.2414444 18.3451111,16.4586667 18.0771111,16.4586667 L1.67816667,16.4586667 C1.41016667,16.4586667 1.193,16.2414444 1.193,15.9734444 L1.193,15.9734444 Z M12.8685556,20.9291111 C12.8685556,22.5963333 11.5169444,23.9478889 9.84977778,23.9478889 C8.18261111,23.9478889 6.831,22.5963333 6.831,20.9291111 C6.831,19.2618333 8.18261111,17.9103333 9.84977778,17.9103333 C11.5169444,17.9103333 12.8685556,19.2618333 12.8685556,20.9291111 L12.8685556,20.9291111 Z M11.3591111,20.9291111 C11.3591111,20.0955 10.6833333,19.4197222 9.84972222,19.4197222 C9.01611111,19.4197222 8.34027778,20.0955 8.34027778,20.9291111 C8.34027778,21.7627222 9.01611111,22.4385556 9.84972222,22.4385556 C10.6833333,22.4385556 11.3591111,21.7627222 11.3591111,20.9291111 L11.3591111,20.9291111 Z M7.24972222,17.9102778 L0.485166667,17.9102778 C0.217222222,17.9102778 0,18.1275 0,18.3954444 L0,19.8673889 C0,20.1353333 0.217222222,20.3525556 0.485166667,20.3525556 L5.90727778,20.3525556 C6.04883333,19.3812222 6.53911111,18.5232222 7.24972222,17.9102778 L7.24972222,17.9102778 Z M28.6632222,20.9291111 C28.6632222,22.5963333 27.3116111,23.9478889 25.6444444,23.9478889 C23.9772222,23.9478889 22.6256667,22.5963333 22.6256667,20.9291111 C22.6256667,19.2618333 23.9772222,17.9103333 25.6444444,17.9103333 C27.3116111,17.9102778 28.6632222,19.2618333 28.6632222,20.9291111 L28.6632222,20.9291111 Z M27.1538889,20.9291111 C27.1538889,20.0955 26.4780556,19.4197222 25.6444444,19.4197222 C24.8107778,19.4197222 24.1350556,20.0955 24.1350556,20.9291111 C24.1350556,21.7627222 24.8108333,22.4385556 25.6444444,22.4385556 C26.4780556,22.4385556 27.1538889,21.7627222 27.1538889,20.9291111 L27.1538889,20.9291111 Z M34,18.3954444 L34,19.8673889 C34,20.1353333 33.7827778,20.3525556 33.5148333,20.3525556 L29.5868333,20.3525556 C29.3058889,18.4257222 27.6476111,16.9399444 25.6445556,16.9399444 C23.6411111,16.9399444 21.9827778,18.4257778 21.7018333,20.3525556 L13.7922778,20.3525556 C13.6506667,19.3812778 13.1604444,18.5232222 12.4498333,17.9102778 L19.9495,17.9102778 L19.9495,4.033 C19.9495,3.49711111 20.3839444,3.06266667 20.9198333,3.06266667 L25.5001111,3.06266667 C26.7897778,3.06266667 27.9951667,3.70327778 28.7167778,4.77211111 L31.6695556,9.1455 C32.1026667,9.787 32.3341111,10.5433333 32.3341111,11.3173889 L32.3341111,17.9102778 L33.5148333,17.9102778 C33.7827778,17.9102778 34,18.1275 34,18.3954444 L34,18.3954444 Z M29.0782222,9.2575 L26.7170556,5.90233333 C26.6261667,5.77322222 26.4781667,5.69638889 26.3202778,5.69638889 L22.6372222,5.69638889 C22.3693333,5.69638889 22.1520556,5.91361111 22.1520556,6.18155556 L22.1520556,9.53672222 C22.1520556,9.80472222 22.3692778,10.0218889 22.6372222,10.0218889 L28.6815556,10.0218889 C29.0745556,10.0218889 29.3044444,9.57894444 29.0782222,9.2575 L29.0782222,9.2575 Z" id="Shape"></path>
                </g>
            </g>
        </g>
    </g>
</svg>