<?xml version="1.0" encoding="UTF-8" standalone="no"?>
<svg width="746px" height="264px" viewBox="0 0 746 264" version="1.1" xmlns="http://www.w3.org/2000/svg" xmlns:xlink="http://www.w3.org/1999/xlink">
    <defs></defs>
    <g id="Page-1" stroke="none" stroke-width="1" fill="none" fill-rule="evenodd">
        <g id="uE029-vorkasse" transform="translate(-1.000000, 0.000000)" fill="#A6A6A6">
            <path d="M729.4,177.8 C730.1,173.8 730.7,170.2 731.4,166.5 L746.6,166.5 C745.6,173 744.6,179.3 743.5,185.7 C740.4,203.4 737.4,221.2 734.2,238.9 C733.7,241.6 732.8,244.3 731.9,246.9 C728.6,256.5 722,262.2 711.8,263 C706.4,263.5 700.8,263.6 695.4,262.8 C683.4,261 677.3,252.1 679.1,239.2 C683.1,239.8 687.2,240.5 691.2,241.1 C692.1,241.2 692.9,241.5 693.8,241.5 C695.3,241.6 696.2,242.1 696.3,243.9 C696.6,247.2 698.7,249.2 701.8,249.7 C709.9,251.1 715.7,248.2 717.6,240.9 C718.6,237 719.4,232.9 720.1,229.3 C715.6,231.3 711.4,233.9 706.9,235.1 C697.8,237.5 689.4,233.6 685.7,224.9 C683.7,220.2 682.7,214.9 682.3,209.9 C681.6,199.4 683.5,189.2 688.4,179.7 C691.6,173.5 696.4,168.9 702.8,166.1 C711.7,162.3 721,165 726.5,173 C727.4,174.4 728.2,175.9 729.4,177.8 L729.4,177.8 L729.4,177.8 Z M697.9,206.9 C698.2,208.6 698.5,211.8 699.6,214.8 C702.2,221.9 709.3,223.9 715.3,219.3 C717.3,217.8 719.4,215.7 720.3,213.5 C722.2,209 723.9,204.4 724.8,199.6 C725.8,194.1 725.7,188.4 722.5,183.4 C718.1,176.6 710.9,176.1 705.7,182.2 C704.9,183.1 704.1,184.2 703.5,185.3 C700,191.6 698.4,198.3 697.9,206.9 L697.9,206.9 L697.9,206.9 Z" id="Shape"></path>
            <path d="M64.8,140.4 L81.8,140.4 C80.3,148.6 79,156.7 77.4,164.7 C74.8,178.6 72.1,192.5 69.2,206.3 C68.5,209.8 67.2,213.1 65.8,216.4 C60.2,229.6 50,236.4 35.9,237.4 C29.5,237.9 23.2,237.5 17.2,234.9 C5.9,230 -0.8,217.7 1.4,204.4 C4.4,186.7 7.9,169.2 11.2,151.6 C11.9,147.9 12.6,144.2 13.4,140.4 L30.5,140.4 C27.3,157 24.2,173.5 21.1,189.9 C20.1,194.9 19.2,199.9 18.2,204.9 C16.4,214.4 21.4,220.7 31.1,221.1 C41.9,221.6 48.6,217.5 51.4,207.1 C54.3,196.5 56.2,185.7 58.3,175 C60.4,164 62.3,153 64.3,142 C64.4,141.5 64.6,141 64.8,140.4 L64.8,140.4 L64.8,140.4 Z" id="Shape"></path>
            <path d="M292.9,211.4 C294.9,206.4 297,201.3 299,196.2 C302.7,186.9 306.4,177.6 310.1,168.3 C310.7,166.7 311.5,166.1 313.2,166.2 C317.3,166.3 321.5,166.2 325.9,166.2 C326.6,181.3 327.2,196.3 327.9,211.3 C328.1,211.4 328.2,211.4 328.4,211.5 C328.9,210.3 329.3,209.2 329.8,208 C335,194.8 340.3,181.5 345.5,168.3 C346.1,166.7 347,166.1 348.7,166.2 C353.3,166.3 357.9,166.2 362.9,166.2 C360.9,170.8 359.1,175.1 357.2,179.4 C349.6,197.2 341.9,214.9 334.3,232.7 C333.3,235 332.1,235.8 329.6,235.7 C325.7,235.5 321.7,235.6 317.5,235.6 C316.5,221.3 315.6,207.1 314.6,192.2 C314,193.4 313.6,194.1 313.4,194.8 C308.1,207.6 302.7,220.4 297.5,233.2 C296.8,235 296,235.7 294,235.6 C289.9,235.4 285.7,235.5 281.3,235.5 C278.8,212.4 276.3,189.5 273.8,166.3 L288.4,166.3 C289.7,181.1 291.1,196 292.4,211 C292.5,211.3 292.7,211.3 292.9,211.4 L292.9,211.4 L292.9,211.4 Z" id="Shape"></path>
            <path d="M97.7,226.1 C97.1,229 96.5,232.3 95.9,235.6 L81,235.6 C86.8,203.8 92.6,172.1 98.3,140.4 L114.8,140.4 C113,150.6 111.1,160.7 109.2,171.2 C111.1,169.9 112.5,168.9 113.9,168 C125.8,160.5 140.2,164.9 144.2,178.3 C149.7,196.8 147.1,214.4 134.2,229.5 C126.7,238.3 114.4,240.3 106.1,234.5 C102.7,232.2 100.4,228.9 97.7,226.1 L97.7,226.1 L97.7,226.1 Z M131.3,194.4 C130.4,190.9 129.9,187.2 128.4,184 C124.9,176.9 117.2,175.9 111.7,181.4 C110.2,182.9 109,184.7 107.9,186.5 C103.9,193.7 102.7,201.5 103.1,209.6 C103.3,213.7 104.7,217.5 107.8,220.5 C111.2,223.8 115.6,224.7 119.3,221.9 C122,219.9 124.4,217.2 126,214.3 C129.3,208.2 130.5,201.5 131.3,194.4 L131.3,194.4 L131.3,194.4 Z" id="Shape"></path>
            <path d="M31.3,73.3 C42.9,48.8 54.2,25.1 65.4,1.4 L82.4,1.4 C81.9,2.5 81.6,3.5 81.1,4.4 C66.7,34.5 52.3,64.7 38,94.8 C37.3,96.3 36.4,96.9 34.7,96.9 C29.4,96.8 24.1,96.9 18.5,96.9 C13.6,65.1 8.6,33.4 3.7,1.5 L20.8,1.5 C24.3,25.1 27.7,48.8 31.3,73.3 L31.3,73.3 L31.3,73.3 Z" id="Shape"></path>
            <path d="M213.5,1.5 L229.9,1.5 C227,17.5 224.1,33.4 221.1,50.1 C222.3,49 222.9,48.5 223.4,47.9 C229,41.7 234.6,35.4 240.3,29.3 C241.2,28.3 242.9,27.6 244.2,27.6 C250.3,27.4 256.3,27.5 263.1,27.5 C259.8,30.9 256.9,34 254,37.1 C249.6,41.7 245.3,46.4 240.8,50.8 C239.3,52.3 239.2,53.5 239.7,55.4 C243.6,68.5 247.3,81.6 251.1,94.8 C251.3,95.4 251.4,96.1 251.6,96.9 L235.4,96.9 C232.7,86.5 230,76.1 227.5,66.3 C223.9,69.5 220.1,72.8 216.6,76.3 C215.8,77.1 215.9,78.8 215.6,80.1 C214.6,85.7 213.6,91.2 212.5,96.9 L196.1,96.9 C202,64.9 207.8,33.2 213.5,1.5 L213.5,1.5 L213.5,1.5 Z" id="Shape"></path>
            <path d="M77.4,67 C77.7,54.4 80.5,42.8 90,33.7 C101.4,22.8 121.9,22.8 131.9,33.6 C136.6,38.7 138.9,44.8 139.5,51.6 C140.9,66.5 137.4,80 126.5,90.7 C113.8,103.2 90.4,100.8 81.9,86.1 C78.6,80.2 77.2,73.8 77.4,67 L77.4,67 L77.4,67 Z M93.9,68 C94,69.3 94,71 94.2,72.6 C95.2,79.9 100.5,84.9 106.7,84.6 C111.1,84.4 114.3,82 116.7,78.5 C122.3,70.6 124.1,61.7 123.5,52.2 C123.1,46.7 120.8,42 115.1,40.2 C109.9,38.5 105.4,40.3 101.8,44.1 C100.6,45.3 99.6,46.8 98.8,48.3 C95.5,54.4 94.1,60.9 93.9,68 L93.9,68 L93.9,68 Z" id="Shape"></path>
            <path d="M315.5,96.8 C311,96.8 306.1,96.9 301.3,96.7 C300.7,96.7 299.9,95.8 299.7,95.2 C299.3,93.5 299.1,91.8 298.8,89.8 C297.2,91.3 295.7,92.7 294.1,94 C288.2,98.5 281.6,100.3 274.6,97.1 C267.6,93.9 264.7,87.7 264.3,80.3 C264.2,77.9 264.2,75.5 264.6,73.1 C266,64 271.2,58.2 280.2,56.4 C286.5,55.1 292.9,54.5 299.3,53.4 C304.5,52.5 305.2,51.5 305.1,45.9 C305,42 302.5,39.5 298.3,39.1 C292.6,38.5 289.4,40.5 286.5,46.6 C281.4,46.1 276.3,45.7 270.7,45.1 C273.2,36.7 278,30.5 286.1,27.5 C293.2,24.9 300.5,24.9 307.7,26.8 C315.7,29 321.3,35.8 320.7,44.1 C320.2,52.2 318.4,60.3 317.2,68.3 C316.4,73.5 315.2,78.7 314.8,84 C314.6,88.2 315.2,92.4 315.5,96.8 L315.5,96.8 L315.5,96.8 Z M302.3,64.2 C299.9,64.6 298.2,64.6 296.5,65.1 C292.1,66.4 287.5,67.4 283.4,69.3 C279.6,71 278.6,76.2 280.3,80.2 C282,83.9 285.2,85.3 289.7,84.2 C293.8,83.2 297,80.8 298.5,76.9 C300.1,73 301,68.8 302.3,64.2 L302.3,64.2 L302.3,64.2 Z" id="Shape"></path>
            <path d="M419.8,217.7 C413.2,236.3 390.9,243.6 376.5,232.1 C370.4,227.3 367.1,220.7 366,213.1 C363.9,199.2 366.4,186.2 375.4,175.1 C382.5,166.4 392,163.5 402.8,164.8 C410.4,165.7 416,170.1 419.3,176.9 C423.9,186.4 423.3,196.5 421.9,206.8 L381.6,206.8 C380.1,213.2 383.4,220.4 388.7,222.7 C394.6,225.2 399.9,222.6 405.4,214.3 C410.1,215.4 414.8,216.5 419.8,217.7 L419.8,217.7 L419.8,217.7 Z M408.1,195.1 C407.8,192.4 407.8,189.9 407.3,187.5 C406.5,183.4 404.3,180.2 400.1,179 C395.7,177.7 391.9,179.1 388.8,182.2 C385.2,185.7 383.7,190.2 382.9,195.2 C391.2,195.1 399.3,195.1 408.1,195.1 L408.1,195.1 L408.1,195.1 Z" id="Shape"></path>
            <path d="M213.5,206.8 L173.1,206.8 C172,213.9 175.4,220.8 180.8,222.8 C186.7,225 192.1,222.2 197,214.2 C201.7,215.3 206.5,216.5 211.4,217.7 C205.3,236.1 182.8,243.6 168.2,232.2 C162,227.3 158.7,220.6 157.6,212.9 C155.6,199.2 157.9,186.4 166.8,175.3 C174.6,165.6 185,162.8 196.9,165.2 C203.9,166.6 208.6,171.3 211.5,177.7 C215.5,187.1 215.1,196.7 213.5,206.8 L213.5,206.8 L213.5,206.8 Z M199.9,195.1 C199.5,191.9 199.5,189 198.7,186.3 C196.6,179 189,176.2 182.6,180.4 C177.4,183.8 175.5,189.1 174.5,195.1 L199.9,195.1 L199.9,195.1 L199.9,195.1 Z" id="Shape"></path>
            <path d="M522.2,78.8 C515.9,97.3 493.4,104.7 478.9,93.3 C472.8,88.5 469.5,81.9 468.4,74.3 C466.3,60.4 468.7,47.4 477.8,36.3 C485.6,26.8 496,24 507.7,26.5 C514.3,27.9 519,32.3 521.8,38.3 C526.3,47.8 525.8,57.7 524.3,68 L483.8,68 C482.9,75.4 486.2,82.1 491.6,84.1 C497.5,86.2 502.6,83.6 507.8,75.5 C510.1,76.1 512.5,76.6 515,77.2 C517.3,77.7 519.6,78.2 522.2,78.8 L522.2,78.8 L522.2,78.8 Z M510.5,56.2 C510.2,53.5 510.2,51.1 509.7,48.6 C508.9,44.5 506.7,41.3 502.5,40.1 C498,38.8 494.2,40.2 490.9,43.4 C487.4,46.9 485.9,51.3 485.2,56.2 L510.5,56.2 L510.5,56.2 L510.5,56.2 Z" id="Shape"></path>
            <path d="M622.8,235.6 L606.6,235.6 C610.8,212.4 614.9,189.4 619,166.4 L634.4,166.4 C634,169.1 633.7,171.6 633.2,174.8 C635.3,173 636.8,171.7 638.4,170.4 C642.9,166.8 647.8,164.5 653.7,164.5 C662.8,164.5 669.4,170 669.8,179.1 C670,185 669.1,191 668.2,196.8 C666,209.7 663.5,222.5 661.1,235.5 L644.8,235.5 C646,229.2 647.1,223 648.3,216.8 C650.1,207.1 651.8,197.5 653.5,187.8 C654.1,184.4 653.6,181.1 650.6,179 C647.6,176.9 644.5,177.8 641.6,179.5 C635.7,183 632,188.2 630.7,194.8 C628.2,206.9 626,219 623.7,231.1 C623.4,232.6 623.1,234 622.8,235.6 L622.8,235.6 L622.8,235.6 Z" id="Shape"></path>
            <path d="M582.7,166.4 L599.2,166.4 C594.6,189.6 590,212.6 585.5,235.6 L570.2,235.6 C570.7,232.9 571.1,230.4 571.6,227.6 C569.4,229.5 567.5,231.3 565.4,232.8 C560.4,236.5 554.7,238.2 548.5,237.2 C541.8,236.1 536.8,229.9 536.9,221.9 C537,215.7 538,209.5 539.2,203.3 C541.3,191.5 543.8,179.7 546.1,167.9 C546.2,167.4 546.5,166.8 546.7,166.3 L563,166.3 C561.9,172 560.8,177.5 559.7,183 C557.7,193.1 555.7,203.2 553.8,213.3 C553.8,213.5 553.7,213.7 553.7,213.9 C553,218.4 554.2,221.9 557,223.3 C559.7,224.7 563.3,223.6 566.7,220.6 C572.2,215.7 574.2,209.1 575.6,202.2 C578,190.4 580.3,178.5 582.7,166.4 L582.7,166.4 L582.7,166.4 Z" id="Shape"></path>
            <path d="M479.2,213.6 C479.7,214.7 480.1,215.6 480.6,216.4 C484.1,223.6 492.6,226.3 499.7,222.5 C502.2,221.2 504,219.4 504,216.2 C504,213.1 501.9,211.9 499.5,210.8 C494.5,208.6 489.4,206.5 484.4,204.4 C468,197.8 469.8,177 481.6,169.5 C492.2,162.7 503.7,162.6 515,167.7 C520.9,170.4 523.8,176 525,182.6 C519.9,183.5 515,184.4 510.2,185.3 C506.4,178.8 500,176.2 492.9,178.4 C490.3,179.2 488.4,180.7 488.1,183.6 C487.8,186.6 489.7,188.2 492.2,189.2 C497,191 501.8,192.6 506.5,194.6 C517.4,199.1 521.5,205.2 520.7,215.4 C520,224.9 512.8,233.7 503.3,236.2 C495.6,238.2 487.8,238.1 480.2,235.6 C471.1,232.6 466.1,225.9 463.6,216.5 C468.9,215.5 473.9,214.6 479.2,213.6 L479.2,213.6 L479.2,213.6 Z" id="Shape"></path>
            <path d="M396.4,77.8 C397.4,77.5 397.9,77.4 398.5,77.3 C403,76.5 407.6,75.7 412.1,74.9 C412.6,75.9 413,76.8 413.4,77.6 C417,84.8 425.7,87.6 432.7,83.6 C435.1,82.3 436.8,80.5 436.8,77.5 C436.8,74.4 434.7,73.1 432.3,72.1 C427.3,69.9 422.2,67.8 417.2,65.7 C400.8,59.1 402.6,38.3 414.3,30.8 C424.9,23.9 436.3,23.9 447.7,28.9 C453.3,31.4 457.1,37.9 457.5,43.9 C452.7,44.8 447.8,45.7 443,46.6 C439.1,40.2 433.4,37.8 426.2,39.5 C423,40.3 421,42.2 420.8,44.7 C420.6,47.8 422.5,49.4 425.1,50.4 C429.8,52.2 434.5,53.8 439.1,55.7 C449.9,60.2 454,66.2 453.4,76.2 C452.8,85.8 445.8,94.6 436.3,97.2 C428.4,99.4 420.4,99.2 412.7,96.6 C403.8,93.7 398.9,87 396.4,77.8 L396.4,77.8 L396.4,77.8 Z" id="Shape"></path>
            <path d="M329.4,77.6 C334.7,76.6 339.8,75.7 345,74.8 C345.5,75.8 345.9,76.6 346.3,77.5 C349.9,84.8 358.5,87.6 365.6,83.6 C368.1,82.2 369.9,80.4 369.8,77.2 C369.7,74.3 367.7,73 365.4,72 C360.4,69.8 355.4,67.6 350.3,65.6 C333.8,59.1 335.6,38.3 347.2,30.7 C357.9,23.8 369.4,23.6 380.8,28.9 C386.6,31.6 389.4,37.1 390.8,43.8 C385.8,44.7 380.9,45.7 376.1,46.6 C373,40.6 367.8,37.9 359.1,39.6 C356,40.2 354,42.4 353.9,45 C353.8,48 355.6,49.6 358.1,50.5 C362.7,52.3 367.3,53.8 371.9,55.7 C383.2,60.3 387.3,66.4 386.6,76.8 C385.9,86.5 378.5,95.1 368.5,97.6 C360.8,99.5 353,99.2 345.4,96.6 C337.1,93.8 331.1,86.5 329.4,77.6 L329.4,77.6 L329.4,77.6 Z" id="Shape"></path>
            <path d="M192.7,42.8 C185.5,40.4 180.8,43.7 176.7,48.6 C172.2,54 170.8,60.7 169.5,67.2 C167.5,76.9 165.8,86.7 164,96.6 L147.7,96.6 C151.8,73.6 156,50.6 160.1,27.5 L175.4,27.5 C174.8,31.2 174.1,34.8 173.4,39.1 C179.9,29.9 186.4,21.9 199,27.5 C196.8,32.7 194.8,37.6 192.7,42.8 L192.7,42.8 L192.7,42.8 Z" id="Shape"></path>
            <path d="M221.1,235.5 C225.3,212.4 229.4,189.5 233.6,166.4 L248.9,166.4 C248.3,170.1 247.6,173.7 246.9,178 C253.4,168.8 259.9,160.8 272.5,166.4 C270.4,171.5 268.4,176.5 266.3,181.4 C256.9,180.3 250.6,183.6 247.2,192.7 C244.5,199.8 243,207.5 241.3,214.9 C239.8,221.6 238.8,228.5 237.5,235.5 L221.1,235.5 L221.1,235.5 L221.1,235.5 Z" id="Shape"></path>
            <path d="M610.9,0.2 C608,7.1 605.4,13.5 602.8,19.9 C592.2,45.3 581.6,70.7 571.1,96.1 C570.3,98 569.5,98.8 567.4,98.7 C564.6,98.5 561.8,98.6 558.7,98.6 C559.1,97.5 559.3,96.6 559.7,95.7 C572.6,64.6 585.6,33.6 598.5,2.5 C599.2,0.9 599.9,0.1 601.8,0.2 C604.6,0.3 607.5,0.2 610.9,0.2 L610.9,0.2 L610.9,0.2 Z" id="Shape"></path>
            <path d="M446.7,235.6 L430.4,235.6 C431.6,228.9 432.8,222.3 434,215.7 C436.9,200 439.8,184.3 442.5,168.6 C442.8,166.8 443.4,166.2 445.2,166.3 C449.8,166.4 454.4,166.3 459.3,166.3 C455,189.5 450.8,212.6 446.7,235.6 L446.7,235.6 L446.7,235.6 Z" id="Shape"></path>
            <path d="M444.7,156.3 C445.7,150.9 446.6,145.6 447.6,140.3 L463.9,140.3 C462.9,145.7 462,150.9 461,156.3 L444.7,156.3 L444.7,156.3 L444.7,156.3 Z" id="Shape"></path>
            <path d="M41.6,132 L27.6,132 C28.6,126.4 29.5,121 30.4,115.5 L44.5,115.5 C43.5,121.1 42.5,126.6 41.6,132 L41.6,132 L41.6,132 Z" id="Shape"></path>
            <path d="M51.3,132 C52.3,126.4 53.2,120.9 54.2,115.5 L68.2,115.5 C67.2,121.1 66.3,126.5 65.3,132 L51.3,132 L51.3,132 L51.3,132 Z" id="Shape"></path>
        </g>
    </g>
</svg>